<?xml version="1.0" encoding="utf-8"?>
<svg xmlns="http://www.w3.org/2000/svg" viewBox="0.9003 -0.4492 152.0076 421.7095" width="152.008px" height="421.709px" preserveAspectRatio="none"><defs><style>
      .cls-1 {
        fill: #d6734c;
      }

      .cls-2, .cls-3, .cls-4, .cls-5, .cls-6, .cls-7, .cls-8, .cls-9, .cls-10, .cls-11, .cls-12, .cls-13, .cls-14, .cls-15, .cls-16, .cls-17 {
        opacity: .5;
      }

      .cls-2, .cls-18 {
        fill: #ea8b60;
      }

      .cls-19, .cls-7, .cls-20 {
        fill: #ff7b94;
      }

      .cls-21 {
        fill: #e8426a;
      }

      .cls-22 {
        fill: #dd3e4e;
      }

      .cls-23 {
        fill: #e23354;
      }

      .cls-3, .cls-24 {
        fill: #f4996c;
      }

      .cls-4, .cls-25, .cls-26 {
        fill: #ff9cb4;
      }

      .cls-27 {
        fill: #59a038;
      }

      .cls-5, .cls-28 {
        fill: #ba5b5b;
      }

      .cls-29 {
        fill: #ffb38d;
      }

      .cls-30 {
        fill: #4174e5;
      }

      .cls-6, .cls-31, .cls-32 {
        fill: #ffc1a6;
      }

      .cls-33 {
        fill: #bf2a26;
      }

      .cls-34 {
        fill: #b55454;
        opacity: .6;
      }

      .cls-31, .cls-35, .cls-25, .cls-20, .cls-28 {
        opacity: .7;
      }

      .cls-36 {
        fill: #892c29;
      }

      .cls-8 {
        fill: #ed5551;
      }

      .cls-35, .cls-37 {
        fill: #ff5f76;
      }

      .cls-38 {
        fill: #fea97a;
      }

      .cls-39 {
        fill: #ffcdbb;
      }

      .cls-40 {
        fill: #2a66d1;
      }

      .cls-41 {
        fill: #e5937a;
      }

      .cls-9 {
        fill: #ffa9be;
      }

      .cls-42 {
        fill: #ce392e;
      }

      .cls-43 {
        fill: #d63048;
      }

      .cls-10 {
        fill: #e54c41;
      }

      .cls-44 {
        fill: #e08686;
      }

      .cls-45 {
        fill: #528bef;
      }

      .cls-46 {
        fill: #bc2f40;
      }

      .cls-47 {
        fill: #96362f;
      }

      .cls-11 {
        fill: #ff9f9f;
      }

      .cls-12 {
        fill: #ef566d;
      }

      .cls-48 {
        fill: #e83f57;
      }

      .cls-49 {
        fill: #dd7b54;
      }

      .cls-50 {
        fill: #c9633f;
      }

      .cls-51 {
        fill: #a84848;
      }

      .cls-13 {
        fill: #f46060;
      }

      .cls-52 {
        fill: #7c1e1e;
      }

      .cls-53 {
        fill: #609cf4;
      }

      .cls-54 {
        fill: #d37863;
      }

      .cls-14, .cls-55 {
        fill: #ffd0c0;
      }

      .cls-56 {
        fill: #f4bba6;
      }

      .cls-57 {
        fill: #a03f3d;
      }

      .cls-58 {
        fill: #d64532;
      }

      .cls-15 {
        fill: #ffbbce;
      }

      .cls-16 {
        fill: #f9738d;
      }

      .cls-59 {
        fill: #f44d5d;
      }

      .cls-17 {
        fill: #ffccdc;
      }

      .cls-60 {
        fill: #f2aa91;
      }

      .cls-61 {
        fill: #ce1743;
      }

      .cls-62 {
        fill: #cc173a;
      }

      .cls-63 {
        fill: #70b753;
      }

      .cls-64 {
        fill: #ffe7e1;
      }

      .cls-65 {
        fill: #e88b62;
      }

      .cls-66 {
        fill: #d6253f;
      }
    </style></defs><path class="cls-56" d="M -8.321 235.929 C -8.571 232.949 -8.301 229.539 -10.811 225.659 C -12.411 223.189 -14.551 217.489 -15.571 216.569 C -16.591 215.649 -16.301 207.159 -16.301 202.289 C -16.301 197.789 -15.031 189.409 -16.301 180.409 C -17.571 171.409 -18.071 159.659 -18.461 156.329 C -18.851 152.999 -19.161 135.449 -20.501 126.089 C -21.841 116.729 -27.331 92.159 -27.331 92.159 L -27.511 92.309 C -28.461 84.959 -31.101 78.859 -39.521 75.669 C -41.201 75.079 -45.091 74.209 -46.721 73.389 C -56.131 68.609 -64.951 64.989 -72.681 63.459 C -72.751 61.429 -72.601 57.169 -72.561 55.369 C -69.191 53.469 -67.111 40.749 -67.001 39.749 C -65.211 39.919 -63.021 38.129 -61.711 34.719 C -61.101 33.129 -60.751 30.479 -61.921 29.009 C -62.251 28.589 -62.691 28.049 -64.071 28.799 C -63.281 25.299 -62.781 16.549 -65.841 11.489 C -68.891 6.429 -73.061 0.439 -84.501 0.449 C -87.681 0.449 -93.581 1.479 -97.321 4.049 C -103.78 8.489 -104.21 12.439 -105.69 18.299 C -106.69 22.259 -105.54 27.429 -105.44 27.919 C -106.81 27.919 -107.37 28.499 -107.64 29.049 C -108.87 31.469 -107.03 37.529 -105.29 39.279 C -104.56 40.009 -103.41 40.389 -102.48 39.959 C -102.57 41.919 -101.45 52.539 -97.231 54.329 C -96.971 56.889 -96.951 61.709 -96.921 63.009 C -100.69 64.559 -107.94 67.349 -111.57 69.389 C -113.75 70.379 -115.81 71.639 -117.86 72.859 C -120.68 74.539 -124.07 74.769 -127.31 75.849 C -130.96 77.069 -134.99 79.129 -137.6 81.949 C -140.36 84.929 -142.82 88.939 -143.41 97.659 C -143.41 97.659 -146.8 116.479 -148.14 125.839 C -149.48 135.189 -149.79 152.749 -150.18 156.079 C -150.57 159.409 -151.07 171.159 -152.34 180.159 C -153.61 189.159 -152.34 197.539 -152.34 202.039 C -152.34 206.909 -152.05 215.399 -153.07 216.319 C -154.09 217.239 -156.23 222.939 -157.83 225.409 C -160.33 229.299 -160.06 232.709 -160.31 235.689 C -160.56 238.669 -158.23 239.139 -156.65 237.029 C -155.06 234.919 -151.94 227.549 -151.94 227.549 C -151.94 227.549 -151.27 233.779 -151.42 237.599 C -151.56 241.419 -150.9 250.519 -149.09 251.419 C -146.82 252.549 -146.11 250.439 -146.11 250.439 C -146.11 250.439 -145.47 252.539 -143.06 251.919 C -141.61 251.549 -140.92 247.759 -140.92 247.759 C -140.92 247.759 -139.75 249.119 -138.43 248.789 C -136.76 248.379 -137.31 245.169 -137.31 245.169 C -137.31 245.169 -135.72 245.169 -134.54 243.639 C -133.64 242.479 -133.32 239.449 -133.07 237.019 C -132.82 234.589 -133.36 222.859 -134.58 219.809 C -135.98 216.319 -138.05 215.199 -138.42 213.359 C -139.12 209.879 -137.79 205.009 -136.75 199.419 C -135.24 191.309 -133.52 184.419 -133.06 181.419 C -131.92 173.879 -130.93 162.469 -130.23 159.009 C -129.06 153.259 -127 137.499 -126.25 122.979 C -126.06 119.299 -125.85 116.469 -125.65 114.349 C -125.14 115.699 -124.33 117.899 -122.24 122.329 C -121.52 130.479 -120.33 141.909 -118.7 150.919 C -117.47 157.729 -116.43 162.769 -117.63 169.519 C -118.83 176.269 -122.58 186.249 -124.23 196.619 C -127.02 214.069 -127.8 222.509 -123.72 250.439 C -121.84 263.309 -119.15 273.919 -118.7 277.919 C -118.25 281.919 -118.53 293.539 -118.7 296.869 C -119.96 320.949 -120.54 328.919 -118.7 347.919 C -116.86 366.919 -112.12 379.169 -113.07 390.349 C -113.22 392.169 -115.9 394.669 -116.03 399.419 C -116.17 404.329 -119.05 408.919 -117.93 414.129 C -118.17 417.119 -116.56 420.509 -114.12 418.889 C -113.59 420.509 -111.16 421.099 -110.41 419.889 C -109.89 421.099 -107.46 422.929 -106.19 421.099 C -105.98 422.129 -103.3 422.849 -102.07 421.099 C -99.94 423.099 -96.781 422.159 -95.611 418.629 C -95.091 417.079 -92.751 415.909 -93.311 412.899 C -94.281 407.669 -94.711 404.039 -95.341 399.839 C -95.841 396.499 -98.011 394.709 -96.791 391.939 C -95.571 389.169 -94.971 387.339 -95.821 383.669 C -96.311 381.529 -92.981 344.049 -92.091 338.169 C -89.821 323.169 -91.491 315.019 -92.821 309.419 C -94.071 304.169 -92.781 300.499 -92.071 291.429 C -91.521 284.369 -92.641 276.079 -92.961 273.749 C -93.701 268.419 -87.821 235.929 -87.821 218.019 C -87.821 215.039 -86.341 216.319 -84.801 216.319 C -81.741 216.319 -81.781 214.699 -81.781 217.589 C -81.781 234.309 -75.491 268.419 -76.231 273.749 C -76.561 276.079 -77.681 284.369 -77.121 291.429 C -76.411 300.489 -75.121 304.169 -76.371 309.419 C -77.701 315.019 -79.371 323.169 -77.101 338.169 C -76.211 344.049 -72.871 381.529 -73.371 383.669 C -74.221 387.339 -73.621 389.169 -72.401 391.939 C -71.181 394.709 -73.351 396.489 -73.851 399.839 C -74.481 404.029 -74.911 407.669 -75.881 412.899 C -76.441 415.909 -74.101 417.079 -73.581 418.629 C -72.411 422.159 -69.241 423.099 -67.121 421.099 C -65.881 422.849 -63.201 422.129 -63.001 421.099 C -61.731 422.919 -59.301 421.099 -58.781 419.889 C -58.031 421.099 -55.601 420.519 -55.071 418.889 C -52.641 420.509 -51.021 417.109 -51.261 414.129 C -50.141 408.919 -53.021 404.329 -53.161 399.419 C -53.291 394.669 -55.971 392.169 -56.121 390.349 C -57.071 379.169 -52.331 366.919 -50.491 347.919 C -48.651 328.919 -49.231 320.949 -50.491 296.869 C -50.661 293.539 -50.931 281.919 -50.491 277.919 C -50.051 273.919 -47.351 263.309 -45.471 250.439 C -41.381 222.509 -42.171 214.069 -44.961 196.619 C -46.621 186.249 -50.361 176.269 -51.561 169.519 C -52.761 162.769 -51.721 157.729 -50.491 150.919 C -48.661 140.779 -47.381 127.549 -46.701 119.409 C -45.631 117.519 -44.551 115.679 -43.411 113.879 C -42.991 116.449 -42.591 119.619 -42.411 123.229 C -41.661 137.749 -39.601 153.519 -38.431 159.259 C -37.731 162.719 -36.731 174.129 -35.601 181.669 C -35.151 184.669 -33.421 191.559 -31.911 199.669 C -30.871 205.259 -29.541 210.129 -30.241 213.609 C -30.611 215.449 -32.681 216.569 -34.081 220.059 C -35.301 223.109 -35.841 234.839 -35.591 237.269 C -35.341 239.699 -35.021 242.729 -34.121 243.889 C -32.941 245.419 -31.351 245.419 -31.351 245.419 C -31.351 245.419 -31.901 248.629 -30.231 249.039 C -28.911 249.369 -27.741 248.009 -27.741 248.009 C -27.741 248.009 -27.051 251.799 -25.601 252.169 C -23.181 252.789 -22.551 250.689 -22.551 250.689 C -22.551 250.689 -21.841 252.809 -19.571 251.669 C -17.761 250.769 -17.091 241.669 -17.241 237.849 C -17.381 234.029 -16.721 227.799 -16.721 227.799 C -16.721 227.799 -13.601 235.169 -12.011 237.279 C -10.421 239.389 -8.101 238.919 -8.351 235.939 L -8.321 235.929 Z" id="object-7" transform="matrix(1, 0, 0, 1, 161.22885131835935, -0.8982110023498535)"/></svg>