<?xml version="1.0" encoding="utf-8"?>
<svg xmlns="http://www.w3.org/2000/svg" viewBox="57.1209 4.6413 39.3946 33.3498" width="39.3946px" height="33.3498px"><defs><style>
      .cls-1 {
        fill: #d6734c;
      }

      .cls-2, .cls-3, .cls-4, .cls-5, .cls-6, .cls-7, .cls-8, .cls-9, .cls-10, .cls-11, .cls-12, .cls-13, .cls-14, .cls-15, .cls-16, .cls-17 {
        opacity: .5;
      }

      .cls-2, .cls-18 {
        fill: #ea8b60;
      }

      .cls-19, .cls-7, .cls-20 {
        fill: #ff7b94;
      }

      .cls-21 {
        fill: #e8426a;
      }

      .cls-22 {
        fill: #dd3e4e;
      }

      .cls-23 {
        fill: #e23354;
      }

      .cls-3, .cls-24 {
        fill: #f4996c;
      }

      .cls-4, .cls-25, .cls-26 {
        fill: #ff9cb4;
      }

      .cls-27 {
        fill: #59a038;
      }

      .cls-5, .cls-28 {
        fill: #ba5b5b;
      }

      .cls-29 {
        fill: #ffb38d;
      }

      .cls-30 {
        fill: #4174e5;
      }

      .cls-6, .cls-31, .cls-32 {
        fill: #ffc1a6;
      }

      .cls-33 {
        fill: #bf2a26;
      }

      .cls-34 {
        fill: #b55454;
        opacity: .6;
      }

      .cls-31, .cls-35, .cls-25, .cls-20, .cls-28 {
        opacity: .7;
      }

      .cls-36 {
        fill: #892c29;
      }

      .cls-8 {
        fill: #ed5551;
      }

      .cls-35, .cls-37 {
        fill: #ff5f76;
      }

      .cls-38 {
        fill: #fea97a;
      }

      .cls-39 {
        fill: #ffcdbb;
      }

      .cls-40 {
        fill: #2a66d1;
      }

      .cls-41 {
        fill: #e5937a;
      }

      .cls-9 {
        fill: #ffa9be;
      }

      .cls-42 {
        fill: #ce392e;
      }

      .cls-43 {
        fill: #d63048;
      }

      .cls-10 {
        fill: #e54c41;
      }

      .cls-44 {
        fill: #e08686;
      }

      .cls-45 {
        fill: #528bef;
      }

      .cls-46 {
        fill: #bc2f40;
      }

      .cls-47 {
        fill: #96362f;
      }

      .cls-11 {
        fill: #ff9f9f;
      }

      .cls-12 {
        fill: #ef566d;
      }

      .cls-48 {
        fill: #e83f57;
      }

      .cls-49 {
        fill: #dd7b54;
      }

      .cls-50 {
        fill: #c9633f;
      }

      .cls-51 {
        fill: #a84848;
      }

      .cls-13 {
        fill: #f46060;
      }

      .cls-52 {
        fill: #7c1e1e;
      }

      .cls-53 {
        fill: #609cf4;
      }

      .cls-54 {
        fill: #d37863;
      }

      .cls-14, .cls-55 {
        fill: #ffd0c0;
      }

      .cls-56 {
        fill: #f4bba6;
      }

      .cls-57 {
        fill: #a03f3d;
      }

      .cls-58 {
        fill: #d64532;
      }

      .cls-15 {
        fill: #ffbbce;
      }

      .cls-16 {
        fill: #f9738d;
      }

      .cls-59 {
        fill: #f44d5d;
      }

      .cls-17 {
        fill: #ffccdc;
      }

      .cls-60 {
        fill: #f2aa91;
      }

      .cls-61 {
        fill: #ce1743;
      }

      .cls-62 {
        fill: #cc173a;
      }

      .cls-63 {
        fill: #70b753;
      }

      .cls-64 {
        fill: #ffe7e1;
      }

      .cls-65 {
        fill: #e88b62;
      }

      .cls-66 {
        fill: #d6253f;
      }
    </style></defs><g transform="matrix(1, 0, 0, 1, 0.8982086181640341, 2.2455270290374756)" id="object-0"><path class="cls-59" d="M88.67,30.67c-2.54-.53-4.93-1.69-7.44-2.36-2.54-.68-5.16-1.12-7.79-1.13-3.67-.02-8,.56-10.17,3.87-.13,.2,.1,.37,.28,.3,.54,1.8,1.91,3.29,3.83,3.67,1.75,.35,2.47-.82,4.24-.33,1.18,.33,2.63,1.13,3.83,1.05,1.57-.1,2.5-.78,4.52-1.01,1.78-.2,3.29,.58,5.25,.04,2.12-.59,3.22-1.85,3.57-3.89,.01-.08-.02-.18-.11-.2Z"/><g><path class="cls-38" d="M70.72,26.58c.02,3.24,2.55,5.56,5.87,5.05,2.14-.33,3.66-1.68,4.71-3.43-.08-.31-.18-.63-.32-.97-1.31-3.07-5.22-4.09-8.14-2.81-.98,.43-1.67,1.07-2.12,1.91,.04,.08,.04,.18,0,.26Z"/><path class="cls-24" d="M70.49,30.66c1.65,5.53,12.32,3.69,10.81-2.47-1.04,1.75-2.57,3.1-4.71,3.43-3.32,.51-5.85-1.81-5.87-5.05,.04-.08,.04-.17,0-.26-.23,.44-.41,.92-.52,1.46-.18,.9-.54,2.28,.29,2.88Z"/></g><g><path class="cls-37" d="M75.87,10.18c.07-2.08,.6-5.72-.36-6.66-2.55-2.5-6.07-.18-8.76,.73-1.9,.64-5.52,1.93-5.19,4.38-2.48,.4-3.68,4.22-4.29,6.46-.65,2.38-1.99,6.48,0,7.58-.38,1.17-1.43,1.64,.86,5.6,1.05,1.81,1.65,2.57,3.76,2.66,.59,.75,2.36,1.69,3.91,1.18,1.4,.8,2.92,1.16,4.51,0,.98,.18,2.27-1.65,2.2-3.06,1.41-.61,1.03-1.36,1.71-2.63,1.09-.31,1.97-1.49,2.02-2.54,.03-.79-.12-2.76-.11-3.56-.07-3.85-.42-6.15-.28-10.13Z"/><path class="cls-19" d="M62.94,14.6c.5-.14,1.75-1.42,.34-2.04-.73-.32-1.75-.3-2.24-.99-.47-.65-.06-1.13-.56-1.28-.76-.22-1.06,.22-1.31,.87-.48,.77-.86,1.83-.94,2.27-.33,1.77-1.13,3.43-1.35,5.21-.1,.79-.27,1.94,.15,2.69,.26,.46,1.31,.94,1.46,.97,.51,.12,.92-.53,.61-1.15-.66-1.29-.13-1.99,.28-2.11,.17-.05,1.68-.05,1.85,0,.72-.17,1.7,.29,2.16-.5,.28-.48,.04-1.02-.31-1.45-.13-.16-1.15-.49-1.2-.53-1.36-.78-.83-1.64-.45-1.96,.23-.2,1.16,.1,1.53,0Z"/><g><path class="cls-48" d="M76.37,22.73c-.01-.61,.31-3.21-.11-5.03-.18-.56-.28-1.64-.12-3.21,.17-1.63-.14-3.36-.12-3.79,.06-1.53,.18-3.09,.24-4.65,.02-.61-.07-1.24-.35-1.92-.04-.1-.41-.75-.42-.7-.2,.97-.46,2.31-.34,3.45,.03,.28,.59,1.71,.28,2.56-.11,.33-.33,.6-.73,.69-.21,.05-.23,.41,0,.45,.26,.04,.74-.07,.84,.6,.11,.72-.04,1.46-.11,2.17-.01,0-.03,0-.04,.02-.23-.05-.57-.25-.67-.29-.2-.07-.37-.06-.56,.01-.18,.07-.22,.35,0,.41,.12,.03,.9,.77,.96,1.09,.03,.18,0,.36-.01,.54-.27,.91-.71,1.7-1.46,2.21-.28,.19-.12,.7,.24,.58,.37-.12,.73-.24,1.1-.35-.17,1.28,.38,2.45-1.08,3.26-.3,.17-.08,.57,.22,.52,.5-.08,1.23,.02,1.6-.2,.15,.34,.29,2.44,.29,2.61,0,.44-.84,.73-.77,1.21,.1,.66-.16,.63-.46,.76-.91,.18-2.12-.83-2.55-1.04-.19-.09-.39,.14-.23,.3,.24,.25,.91,.86,.89,.93-.13,.47,.07,.99,0,1.44-.05,.69-.47,1.33-1.04,.66-.58-.7-1.76-1.22-2.39-1.49-.64-.27-.72-.17-1.37-.31-.98,.11-1.58,.04-2.23-.59-.49-.33-.93-1.27-1.19-1.71-.18-.3-.84-.59-1.12-1.11-.34-.61-.5-1.5-.55-1.65-.2-.59-.63-.86-1.04-1.09-.26-.15-1.69-.69-2.05-.42-.45,.34-.41,.83-.36,1.19,.06,.42,.17,1.03,.13,1.49-.06,.79-.27,1.01-.39,1.7-.03,.18,.16,.4,.35,.27,.36-.26,.57-.95,.71-2.43,.03-.28,0-1.37,.29-1.4,1.16-.11,1.27,.38,1.9,1.74,.39,.8,.67,2.49,.5,2.72-.22,.28,.17,.68,.4,.4,.2-.27,.54-.55,.64-1.04,.6,.87,1.39,1.92,2.38,2.35,.33,.15,.71,.2,1.05,.27,.12,.02,1.4,.29,2.49,.7,.73,.32,1.64,.95,1.95,1.82,.1,1.14-.8,2.41-1.73,1.71-.14-.18-.31-.36-.48-.56-.14-.22-.27-.47-.39-.79-.09-.23-.47-.22-.46,.06,.02,.41,.11,.4,.29,.75,0,0,.01,.01,.02,.02,.1,.21,.32,.69,.76,1.05-.81,1.27-2.27,.24-3.25-.22,0-.02,.02-.03,.02-.05,.03-.32,.19-1.35-.43-1.95-.77-.75-1.46-.87-2-1.26-.51-.64-.21-1.26,0-1.61,.08-.14,.33-.37,.43-.42,.05-.03-.16-.48-.76-.09-.19,.12-.28,.49-.85,.25-1.03-.43-1.47,.23-2.15,.01-.25-.12-.33-.4-.35-.8-.01-.25-.4-.41-.52-.14-.23,.53,.3,1.62,1.6,1.68,.13,0,.92-.36,1.16,.25,.04,.11,.28,.64,.97,1.08,1.7,1.08,1.85,1.63,1.98,1.81,.23,.43,.25,1.22-.16,1.96-.03,.05,.3-.02,.71,.21,.84,.47,2.1,.91,2.81,.53,.24-.13,.76-.37,1.27-.54,1.69-.58,1.83-1.15,2.01-1.92,.06-.24,.26-.9,.19-1.24,.78-.05,1.48-1.59,1.52-2.65,1.21-.09,2.28-.51,2.45-1.49,.12-.67-.18-1.64-.19-2.34Z"/><path class="cls-48" d="M69.47,10.07c-.42-.12-1.35-.3-1.7-.53-1.05-.7-.75-1.42-.1-1.73,.08-.04,.7-.17,.74-.65,.06-.79-.99-1.02-1.22-1.13-.22-.1-2.34-.67-1.14-.95,.42-.1,1.67-.33,2.17-.81,.12-.11,1.25-.6,2.07-.7,1.04-.13,1.01-.67,.72-.87-.09-.06-.29,.05-.9,.24-1.16,.35-4.15,1.61-4.44,1.71-1.08,.36-.93,.65-.84,.94,.09,.28,.36,.33,.57,.45,.29,.16,1.67,.55,1.79,.8,.37,.76-.15,.8-.5,1.1-.64,.55-.23,.93,.19,1.44,.59,.71,1.64,1.31,2.9,1.39,.77,.05,2.08,.16,2.28,.41,.17,.45,.16,1.04,.2,1.45,.08,.85-.77,.85-1.4,1.12-.61,.26-2.45,.58-2.57,.68-.59,.48-.38,1.21-.26,1.83,.15,.78,.07,1.61,.43,2.37,.33,.69,2.02,1.4,2.9,2.19,.55,.49,.54,1.23,.46,1.38-.19,.33-1.01,1.5-1.43,1.54-.13,.01-1.65-.56-1.85-1.84,.17-.16,.33-.32,.5-.48,.32-.29-.16-.76-.47-.47-.13,.12-.26,.24-.4,.36-.3,.26-.63,.46-1.06,.5-.29-.45-.89-.94-1.02-1.09-1.43-1.71-1.28-5.1-.54-7.06,.36-.95,1.54-.88,2.33-.98,.28-.04,.4-.35,.15-.57-1.03-.91-3.86-.39-4.49-.61-.96-.35-1.01-.82-.99-1.8,.01-.68-.24-.92-.27-1.78,0-.2-.28-.94,0-1.29-.81-.19-.82,1.77-.85,1.89-.02,.11-.23,.24-.49,.36-.43,.1-.81,.58-1.14,.76,.91-.1,1.52,.1,1.88,.61,.08,.12-.02,.53,.27,.96,.31,.46,.64,.61,1.13,.9,.21,.12,1.33,.29,1.51,.39,.5,.29,.09,1.16,0,1.39-.39,.65-1.07,1.34-1.68,1.55-.4,.14-.84,.04-1.05-.31-.14-.23-.44-.18-.45,.06-.03,.8,.54,1.15,1.31,1.08,1.07-.1,1.13,.85,1.3,1.48,.03,.09,.05,1,.09,1.16,.04,.15,.09,.27,.14,.39,.14,.4,1.73,1.85,2.27,2.8,.38,.67-.14,.54-.44,1.06-.11,.19-.02,.48,.54,.23,.4-.18,1.14-.78,1.21-.81,.35-.16,.44,.49,.87,.96,.5,.53,1.42,1.01,1.99,.62,.63-.43,2.04-1.33,1.99-2.31-.03-.59-.42-1.04-.83-1.42-.3-.28-2.53-1.72-2.65-1.86-.52-.57-.69-1.48-.68-2.24-.03-1.23,1.07-1.46,1.76-1.65,1.34-.36,2.12-.46,2.43-.78,.18-.18,.22-.42,.2-.66,.13-.53,.16-1.99-.63-2.61-.86-.67-2.56-.47-2.84-.55Z"/><path class="cls-48" d="M64.75,31.97c-.94-.43-1.88-.35-2.22-1.67-.05-.19-.34-.12-.48,0-1.59,1.34-4.13-2.49-4.72-5.22-.05-.89,.23-1.69,.88-2.39,.07-.08,.07-.28-.17-.37-.3-.1-.86-.09-.94-.15-.35-.27-.42-.75-.77-1.03,0,0,0,0,0,0,.12,.43,.2,.84,.41,1.13,.13,.18,.42,.24,.42,.47,0,.25-.47,.91-.52,1.22-.11,.59,0,1.08,.2,1.61,.97,2.62,1.49,3.7,2.66,4.81,.88,.84,1.61,.54,2.6,.75,.47,.98,2.11,1.25,3.03,1.11,.21-.03-.16-.19-.36-.27Z"/><path class="cls-48" d="M73.78,7.93c-.09-.05-.58-.42-.42-.62,.14-.18,.33-.5,.32-.75,0-.19-.11-.32-.23-.45-.42-.45-.94-.41-.94-1.21,0-.37,.15-.94-.36-1.08-.52-.14-.48,.56-.81,.76-.45,.27-1.27,.42-.79,.86,.17,.15,.27,.03,.48,.06,.58,.09,1.15,.61,1.34,1.17,.31,.93-.63,.97-1.13,1.47-.1,.1,.02,.24,.14,.18,.56-.28,.92-.09,1.46,.14,.1,.04,.18,.11,.3,.13,.28,.05,.5-.06,.69-.25,.12-.11,.1-.34-.05-.42Z"/><path class="cls-48" d="M59.91,16.29c-.05-.23-.04-.44-.12-.67-.06-.21-.17-.39-.23-.59,.11-.39,.37-.79,.14-1.13-.12-.18-.36-.29-.53-.11-.16,.17-.11,.67-.12,.86-.01,.42,.08,.83,.08,1.24,0,.55-.21,.78-.47,1.19-.14,.22-.21,.35-.24,.61,0,.06,.05,.12,.1,.13,.46,.09,1.62,.08,1.77-.54,.09-.36-.31-.67-.38-1Z"/></g><path class="cls-19" d="M69.49,11.32c-1.22-.26-2.23-.83-3.27-1.42-.34-.25-.83-.46-.97-.81-.27-.71,.39-.9,.68-1.32,.21-.31,.24-.69-.1-.91-.23-.14-.5-.1-.72-.25-.18-.12-.28-.3-.46-.43-.58-.41-1.56,.08-1.78,.43-.24,.39,.04,1.52,.11,2.02,.03,.18,.1,1.46,.21,1.64,.28,.46,.28,.29,.83,.44,.07,.02,1.32-.02,1.38,0,.56,.1,1,.25,1.52,.42,.89,.29,2.09,.64,2.17,1.08,.16,.78-.93,.7-1.85,.98-1.29,.39-1.44,.88-1.37,2.12,.04,.7,.02,.99,.05,1.75,.03,.69-.13,1.07-.11,1.69,.02,.36,.11,.46,.3,.76,.22,.26,.48,1.3,1.06,1.52,.74,.28,1.31-.61,1.34-1.23,.04-.69-.88-1.38-.91-2.2-.02-.66-.24-3.11,.15-3.77,.17-.06,.35-.11,.56-.15,.56-.1,1.14-.07,1.71-.18,.56-.11,1.48-.42,1.44-1.14-.05-.81-1.38-.91-1.97-1.03Z"/><path class="cls-19" d="M70.41,20.81c-.18-.14-.48-.44-.72-.27-.1,.07-.12,.18-.12,.29,0,.14,.05,.26,.08,.38-.04,.09-.08,.17-.14,.25-.17,.24-.53,.36-.46,.72,.11,.51,1.16,1.21,1.58,.73,.23-.27,.55-.76,.51-1.14-.04-.41-.43-.72-.73-.96Z"/><path class="cls-19" d="M73.85,14.15c-.19-.13-.39-.16-.61-.07-.37,.14-.57,.41-.83,.61-.75,.16-1.53,.13-2.29,.41-.61,.22-1.15,.7-1.22,1.38-.12,1.26,1.8,3.02,3.05,2.53,.66-.26,.65-.85,.73-1.43,.13-.84,1.28-.96,1.55-1.82,.15-.49,.09-1.29-.39-1.6Z"/><path class="cls-19" d="M71.43,6.38c-.11-.17-.39-.32-.56-.41-.13-.06-.26-.1-.4-.15-1.31-.45,.51-1.14,.57-1.68,.13-1.04-1.23-.25-1.82,.23-.12,.06-.24,.12-.38,.16-.68,.2-1.37,.17-2,.54-.07,.04-.1,.16-.03,.22,.51,.4,1.4,.48,1.76,1.03,.35,.53,.2,1.03,.93,1.19,.54,.12,2.59-.14,1.93-1.13Z"/><path class="cls-19" d="M74.7,4.89c-.1-.33-.08-.51,0-.83,.13-.54-.31-.93-.8-.99-.55-.26-1.38-.36-1.72,.06-.05,.06-.06,.15,0,.2,.22,.2,.43,.21,.7,.29,.31,.1,.57,.28,.53,.64-.02,.18-.14,.31-.19,.48-.19,.64,.49,.74,.85,1.08,.06,.06,.15,.09,.24,.06,.27-.09,.43-.31,.46-.59,.02-.15-.03-.27-.07-.41Z"/><path class="cls-19" d="M75.04,8.19c-.07-.35-.16-.67-.2-1.03-.02-.21-.05-.42-.16-.6-.14-.23-.36-.36-.59-.16-.18,.16-.18,.36-.12,.55,0,.15,.05,.32,.09,.45,.04,.14,.1,.23,.16,.36,.15,.33,.07,.58-.09,.91-.14,.3-.37,.6-.07,.91,.24,.25,.67,.22,.89-.05,.27-.33,.17-.97,.1-1.34Z"/><path class="cls-19" d="M72.85,8.84c-.35-.16-1.21,.03-1.57-.03-.52-.09-.4-.61-.83-.82-.59-.28-1.28-.09-1.9,.05-.56,.12-.97,.3-.57,.93,.35,.56,.98,.69,1.59,.66,.64-.03,1.22-.13,1.87,.03,.4,.1,.84,.41,1.26,.4,.84-.02,.85-.9,.17-1.21Z"/><path class="cls-19" d="M75.26,11.54c-.16-.54-.82-1.1-1.4-.99-.34-.02-.57,.24-.59,.59-.02,.38,.17,.75,.17,1.13,0,.27-.08,.45,.09,.66,.04,.05,.12,.06,.19,.05,.31-.07,.57-.2,.89-.21,.19,0,.33,.04,.48-.09,.29-.24,.26-.81,.16-1.13Z"/><path class="cls-19" d="M62.79,28.34c-.33-.74-1.3-.66-1.93-.92-1.27-.53-1.44-1.73-1.84-2.76-.19-.5,.24-1.86-.41-1.81-.3,.02-.43,.35-.52,.65-.13,.15-.21,.35-.28,.56-.29,.96,.35,1.77,.8,2.57,.71,1.25,1.79,4.34,3.8,2.84,.37-.28,.56-.69,.36-1.14Z"/><path class="cls-19" d="M62.56,23.78c-.13-.74-.38-2.04-.99-2.57-.42-.37-.93,.71-.94,1.02-.02,.54-.06,1.06-.1,1.59-.02,.24-.02,.36,.09,.58,.04,.07,.13,.09,.17,.15,.13,.18,.23,.41,.35,.61,.13,.21,.09,.24,.29,.36,.27,.15,.94,.22,1.17-.03,.34-.38,.04-1.24-.04-1.69Z"/><path class="cls-19" d="M65.03,30.13c-.17-.23-.39-.41-.57-.63-.1-.13-.19-.26-.32-.36-.22-.18-.48-.33-.69-.07-.08,.09-.13,.22-.16,.36-.28,.39-.2,1.05,.12,1.4,.13,.14,.28,.23,.45,.32,.2,.09,.38,.24,.58,.32,.31,.12,.56-.12,.72-.38,.19-.32,.08-.67-.13-.95Z"/><path class="cls-19" d="M71.14,29.08c-.58-.88-1.83-1-2.76-1.23-.67-.16-1.64-.23-2.22-.64-.43-.3-.41-.8-.92-.8-.6,0-.63,.74-.6,1,.04,.28,.24,.47,.44,.64,.69,.57,1.37,.7,1.82,1.59,.29,.58,.43,1.79,1.33,1.8,.18,0,.38-.03,.5-.19,.25-.33-.66-2.09-.36-2.33,.34-.27,1,0,1.38,.59,.11,.17,.25,.85,.42,.96,.27,.16,.49,.21,.78,.07,.57-.29,.48-1.01,.19-1.46Z"/><path class="cls-19" d="M74.96,22.23c-.27-.38-.96-.32-1.2-.06-.23,.25-.44,.54-.65,.8-.14,.17-.34,.36-.38,.58-.09,.45,.55,.82,.86,1.03,.39,.26,.84,.56,1.29,.25,.38-.26-.06-.7,0-1.13,.06-.42,.35-1.11,.08-1.48Z"/><path class="cls-19" d="M72,25.79s-.05-.03-.08-.04c-.36-.54-.99-.92-1.69-1.08-.75-.17-1.2,.01-1.8-.62-.08-.09-.04-.29-.15-.37-.51-.37-.79-.42-1.41-.17-.65,.25-1.48,1.03-.78,1.71,.52,.51,1.57,.18,2.19,.28,.91,.16,3.5,.9,3.66,1.93,.03,.21,.35,.18,.4,0,.18-.64,.1-1.13-.34-1.64Z"/><path class="cls-19" d="M65.56,21.55c-.16-.28-.41-.47-.63-.71-.27-.29-.43-.72-.72-.98-.26-.24-.62-.19-.8,.12-.06,.11-.08,.24-.09,.38-.19,.5,.16,1.22,.31,1.68,.24,.75,1.05,1.97,1.82,.97,.34-.45,.39-.98,.1-1.47Z"/><path class="cls-26" d="M61.38,21.67c-.44-.16-.48,.35-.41,.84-.02,.13-.03,.24-.03,.26-.03,.37,0,.63,.35,.84,.19,.11,.38,.16,.53-.02,.33-.38,.07-1.74-.43-1.92Z"/><path class="cls-26" d="M63.54,20.29c-.39,.43-.01,1.39,.43,1.78,.38,.33,.76,.08,.73-.37-.02-.36-.62-2-1.16-1.41Z"/><path class="cls-26" d="M62.55,12.87c-.18-.14-.41-.15-.62-.15-.66,0-1.33-.07-1.39-.89-.02-.33,.15-1.1-.36-1.17-.24-.03-.36,.14-.42,.36-.06,.11-.11,.24-.14,.33-.15,.4-.65,1.21-.3,1.59,.06,.07,.48,.21,.48,.22,.24,.16,.34,.41,.51,.62,.11,.13,.21,.23,.39,.26,.3,.05,.65-.18,.96-.17,.29,.01,.55,.08,.82-.07,.36-.21,.43-.66,.09-.93Z"/><path class="cls-26" d="M58.36,15.2c-.03-.08-.07-.14-.16-.15,0,0,0,0,0,0-.08-.06-.18,.03-.18,.12-.16,.2-.16,.65-.2,.85-.1,.44-.45,.86-.43,1.33,.04,.72,.72,.13,.86-.23,.07-.19,.07-.35,.09-.55,.03-.28,.18-.53,.21-.81,.02-.22-.05-.41-.19-.56Z"/><path class="cls-26" d="M58.42,19.25c.12-.35,.21-.82-.16-1.06-.29-.19-.69-.05-.9,.2-.15,.18-.19,.45-.19,.72-.13,.52-.09,1.27-.06,1.47,.06,.38,.32,.78,.72,.86,.27,.06,.58-.09,.64-.37,.04-.17-.05-.29-.1-.45-.18-.51-.12-.86,.06-1.36Z"/><path class="cls-26" d="M62.52,17.5c-.25-.21-1.87-.05-1.81,.33,.09,.55,1.05,.79,1.5,.7,.51-.1,.74-.67,.31-1.03Z"/><path class="cls-26" d="M64.97,7.19c-.42-.44-1.23-.9-1.6-.2-.27,.51,.11,1.2,.15,1.71,.03,.41-.1,1.12,.27,1.43,.22,.18,.5,.13,.67-.08,.31-.37,0-.87-.04-1.27-.04-.43,.26-.6,.51-.86,.04-.05,.1-.08,.14-.13,.07-.1,.11-.21,.09-.33-.03-.13-.11-.21-.2-.25Z"/><path class="cls-26" d="M70.23,8.53c-.2-.39-.74-.42-1.17-.31-.31,0-.61,.06-.7,.35-.18,.59,.74,.74,1.11,.71,.39-.03,1.02-.22,.75-.74Z"/><path class="cls-26" d="M69.81,5.94c-.54-.44,.16-.79-.2-1.18-.29-.3-1.86,.42-1.57,.8,.1,.13,.27,.21,.41,.28,.32,.16,.53,.32,.67,.67,.12,.28,.24,.63,.6,.66,.28,.02,.53-.22,.57-.49,.05-.39-.24-.53-.49-.73Z"/><path class="cls-26" d="M71.16,15.22c-1.06,.07-1.67,.41-1.71,1.2-.04,.67,.89,1.59,1.58,1.36,.49-.16,.84-.79,1.23-1.1,.31-.24,.66-.46,.73-.88,.18-1.16-1.27-.62-1.84-.59Z"/><path class="cls-26" d="M66.66,13.92c-.48,.18-.35,1.3-.35,1.62,0,.34,0,.67-.02,1.01-.01,.24-.19,.71-.08,.93,.08,.15,.13,.24,.32,.25,.89,.07,.41-1.56,.4-1.91-.02-.47,.49-2.18-.27-1.9Z"/></g><g><path class="cls-37" d="M75.96,10.18c-.07-2.08-.6-5.72,.36-6.66,2.55-2.5,6.07-.18,8.77,.73,1.9,.64,5.52,1.93,5.19,4.38,2.48,.4,3.68,4.22,4.29,6.46,.65,2.38,1.99,6.48,0,7.58,.38,1.17,1.43,1.64-.86,5.6-1.05,1.81-1.65,2.57-3.76,2.66-.59,.75-2.36,1.69-3.91,1.18-1.4,.8-2.92,1.16-4.51,0-.98,.18-2.27-1.65-2.2-3.06-1.41-.61-1.03-1.36-1.71-2.63-1.09-.31-1.97-1.49-2.02-2.54-.03-.79,.12-2.76,.11-3.56,.07-3.85,.42-6.15,.28-10.13Z"/><path class="cls-19" d="M88.9,14.6c-.5-.14-1.75-1.42-.34-2.04,.73-.32,1.75-.3,2.24-.99,.47-.65,.06-1.13,.56-1.28,.76-.22,1.06,.22,1.31,.87,.48,.77,.86,1.83,.94,2.27,.33,1.77,1.13,3.43,1.35,5.21,.1,.79,.27,1.94-.15,2.69-.26,.46-1.31,.94-1.46,.97-.51,.12-.92-.53-.61-1.15,.66-1.29,.13-1.99-.28-2.11-.17-.05-1.68-.05-1.85,0-.72-.17-1.7,.29-2.16-.5-.28-.48-.04-1.02,.31-1.45,.13-.16,1.15-.49,1.2-.53,1.36-.78,.83-1.64,.45-1.96-.23-.2-1.16,.1-1.53,0Z"/><g><path class="cls-48" d="M75.46,22.73c.19-.46,.09-1.35-.39-1.43-1.06-.19,.24-2.46,.5-3.59,.18-.56,.28-1.64,.12-3.21-.17-1.63,.14-3.36,.12-3.79-.06-1.53-.18-3.09-.24-4.65-.02-.61,.07-1.24,.35-1.92,.04-.1,.41-.75,.42-.7,.2,.97,.46,2.31,.34,3.45-.03,.28-.59,1.71-.28,2.56,.11,.33,.33,.6,.73,.69,.21,.05,.23,.41,0,.45-.26,.04-.74-.07-.84,.6-.11,.72,.04,1.46,.11,2.17,.01,0,.03,0,.04,.02,.23-.05,.57-.25,.67-.29,.2-.07,.37-.06,.56,.01,.18,.07,.22,.35,0,.41-.12,.03-.9,.77-.96,1.09-.03,.18,0,.36,.01,.54,.27,.91,.71,1.7,1.46,2.21,.28,.19,.12,.7-.24,.58-.37-.12-.73-.24-1.1-.35,.17,1.28-.38,2.45,1.08,3.26,.3,.17,.08,.57-.22,.52-.5-.08-1.23,.02-1.6-.2-.15,.34-.29,2.44-.29,2.61-.01,.76,.5,1.64,1.23,1.97,.91,.18,2.12-.83,2.55-1.04,.19-.09,.39,.14,.23,.3-.24,.25-.91,.86-.89,.93,.13,.47-.07,.99,0,1.44,.05,.69,.47,1.33,1.04,.66,.58-.7,1.76-1.22,2.39-1.49,.64-.27,.72-.17,1.37-.31,.98,.11,1.58,.04,2.23-.59,.49-.33,.93-1.27,1.19-1.71,.18-.3,.84-.59,1.12-1.11,.34-.61,.5-1.5,.55-1.65,.2-.59,.63-.86,1.04-1.09,.26-.15,1.69-.69,2.05-.42,.45,.34,.41,.83,.36,1.19-.06,.42-.17,1.03-.13,1.49,.06,.79,.27,1.01,.39,1.7,.03,.18-.16,.4-.35,.27-.36-.26-.57-.95-.71-2.43-.03-.28,0-1.37-.29-1.4-1.16-.11-1.27,.38-1.9,1.74-.39,.8-.67,2.49-.5,2.72,.22,.28-.17,.68-.4,.4-.2-.27-.54-.55-.64-1.04-.6,.87-1.39,1.92-2.38,2.35-.33,.15-.71,.2-1.05,.27-.12,.02-1.4,.29-2.49,.7-.73,.32-1.64,.95-1.95,1.82-.1,1.14,.8,2.41,1.73,1.71,.14-.18,.31-.36,.48-.56,.14-.22,.27-.47,.39-.79,.09-.23,.47-.22,.46,.06-.02,.41-.11,.4-.29,.75,0,0-.01,.01-.02,.02-.1,.21-.32,.69-.76,1.05,.81,1.27,2.27,.24,3.25-.22,0-.02-.02-.03-.02-.05-.03-.32-.19-1.35,.43-1.95,.77-.75,1.46-.87,2-1.26,.51-.64,.21-1.26,0-1.61-.08-.14-.33-.37-.43-.42-.05-.03,.16-.48,.76-.09,.19,.12,.28,.49,.85,.25,1.03-.43,1.47,.23,2.15,.01,.25-.12,.33-.4,.35-.8,.01-.25,.4-.41,.52-.14,.23,.53-.3,1.62-1.6,1.68-.13,0-.92-.36-1.16,.25-.04,.11-.28,.64-.97,1.08-1.7,1.08-1.85,1.63-1.98,1.81-.23,.43-.25,1.22,.16,1.96,.03,.05-.3-.02-.71,.21-.84,.47-2.1,.91-2.81,.53-.24-.13-.76-.37-1.27-.54-1.69-.58-1.83-1.15-2.01-1.92-.06-.24-.26-.9-.19-1.24-.78-.05-1.48-1.59-1.52-2.65-1.21-.09-2.28-.51-2.45-1.49-.12-.67-.07-1.69,.19-2.34Z"/><path class="cls-48" d="M82.36,10.07c.42-.12,1.35-.3,1.7-.53,1.05-.7,.75-1.42,.1-1.73-.08-.04-.7-.17-.74-.65-.06-.79,.99-1.02,1.22-1.13,.22-.1,2.34-.67,1.14-.95-.42-.1-1.67-.33-2.17-.81-.12-.11-1.25-.6-2.07-.7-1.04-.13-1.01-.67-.72-.87,.09-.06,.29,.05,.89,.24,1.16,.35,4.15,1.61,4.44,1.71,1.08,.36,.93,.65,.84,.94-.09,.28-.36,.33-.57,.45-.29,.16-1.67,.55-1.79,.8-.37,.76,.15,.8,.5,1.1,.64,.55,.23,.93-.19,1.44-.59,.71-1.64,1.31-2.9,1.39-.77,.05-2.08,.16-2.28,.41-.17,.45-.16,1.04-.2,1.45-.08,.85,.77,.85,1.4,1.12,.61,.26,2.45,.58,2.57,.68,.59,.48,.38,1.21,.26,1.83-.15,.78-.07,1.61-.43,2.37-.33,.69-2.02,1.4-2.9,2.19-.55,.49-.54,1.23-.46,1.38,.19,.33,1.01,1.5,1.43,1.54,.13,.01,1.65-.56,1.85-1.84-.17-.16-.33-.32-.5-.48-.32-.29,.16-.76,.47-.47,.13,.12,.26,.24,.4,.36,.3,.26,.63,.46,1.06,.5,.29-.45,.89-.94,1.02-1.09,1.43-1.71,1.28-5.1,.54-7.06-.36-.95-1.54-.88-2.33-.98-.28-.04-.4-.35-.15-.57,1.03-.91,3.86-.39,4.49-.61,.96-.35,1.01-.82,.99-1.8-.01-.68,.24-.92,.27-1.78,0-.2,.28-.94,0-1.29,.81-.19,.82,1.77,.85,1.89,.02,.11,.23,.24,.49,.36,.43,.1,.81,.58,1.14,.76-.91-.1-1.52,.1-1.88,.61-.08,.12,.02,.53-.27,.96-.31,.46-.64,.61-1.13,.9-.21,.12-1.33,.29-1.51,.39-.5,.29-.09,1.16,0,1.39,.39,.65,1.07,1.34,1.68,1.55,.4,.14,.84,.04,1.05-.31,.14-.23,.44-.18,.45,.06,.03,.8-.54,1.15-1.31,1.08-1.07-.1-1.13,.85-1.3,1.48-.03,.09-.05,1-.09,1.16-.04,.15-.09,.27-.14,.39-.14,.4-1.73,1.85-2.27,2.8-.38,.67,.14,.54,.44,1.06,.11,.19,.02,.48-.54,.23-.4-.18-1.14-.78-1.21-.81-.35-.16-.44,.49-.87,.96-.5,.53-1.42,1.01-1.99,.62-.63-.43-2.04-1.33-1.99-2.31,.03-.59,.42-1.04,.83-1.42,.3-.28,2.53-1.72,2.65-1.86,.52-.57,.69-1.48,.68-2.24,.03-1.23-1.07-1.46-1.76-1.65-1.34-.36-2.12-.46-2.43-.78-.18-.18-.22-.42-.2-.66-.13-.53-.16-1.99,.63-2.61,.86-.67,2.56-.47,2.84-.55Z"/><path class="cls-48" d="M87.08,31.97c.94-.43,1.87-.35,2.22-1.67,.05-.19,.34-.12,.48,0,1.59,1.34,4.13-2.49,4.72-5.22,.05-.89-.23-1.69-.88-2.39-.07-.08-.07-.28,.17-.37,.3-.1,.86-.09,.94-.15,.35-.27,.42-.75,.77-1.03,0,0,0,0,0,0-.12,.43-.2,.84-.4,1.13-.13,.18-.42,.24-.42,.47,0,.25,.47,.91,.52,1.22,.11,.59,0,1.08-.2,1.61-.97,2.62-1.49,3.7-2.66,4.81-.88,.84-1.61,.54-2.6,.75-.47,.98-2.11,1.25-3.03,1.11-.21-.03,.16-.19,.35-.27Z"/><path class="cls-48" d="M78.05,7.93c.09-.05,.58-.42,.42-.62-.14-.18-.33-.5-.32-.75,0-.19,.11-.32,.23-.45,.42-.45,.94-.41,.94-1.21,0-.37-.15-.94,.36-1.08,.52-.14,.48,.56,.81,.76,.45,.27,1.27,.42,.79,.86-.17,.15-.27,.03-.48,.06-.58,.09-1.15,.61-1.34,1.17-.31,.93,.63,.97,1.13,1.47,.1,.1-.02,.24-.14,.18-.56-.28-.92-.09-1.46,.14-.1,.04-.18,.11-.3,.13-.28,.05-.5-.06-.69-.25-.12-.11-.1-.34,.05-.42Z"/><path class="cls-48" d="M91.92,16.29c.05-.23,.04-.44,.12-.67,.06-.21,.17-.39,.23-.59-.11-.39-.37-.79-.14-1.13,.12-.18,.36-.29,.53-.11,.16,.17,.11,.67,.12,.86,.01,.42-.08,.83-.08,1.24,0,.55,.21,.78,.47,1.19,.14,.22,.21,.35,.24,.61,0,.06-.05,.12-.1,.13-.46,.09-1.62,.08-1.77-.54-.09-.36,.31-.67,.38-1Z"/></g><path class="cls-19" d="M82.35,11.32c1.22-.26,2.23-.83,3.27-1.42,.34-.25,.83-.46,.97-.81,.27-.71-.39-.9-.68-1.32-.21-.31-.24-.69,.1-.91,.23-.14,.5-.1,.72-.25,.18-.12,.28-.3,.46-.43,.58-.41,1.56,.08,1.78,.43,.24,.39-.04,1.52-.11,2.02-.03,.18-.1,1.46-.21,1.64-.28,.46-.28,.29-.83,.44-.07,.02-1.32-.02-1.38,0-.56,.1-1,.25-1.52,.42-.89,.29-2.09,.64-2.17,1.08-.16,.78,.93,.7,1.85,.98,1.29,.39,1.44,.88,1.37,2.12-.04,.7-.02,.99-.05,1.75-.03,.69,.13,1.07,.11,1.69-.02,.36-.11,.46-.3,.76-.22,.26-.47,1.3-1.06,1.52-.73,.28-1.31-.61-1.34-1.23-.04-.69,.88-1.38,.91-2.2,.02-.66,.24-3.11-.15-3.77-.17-.06-.35-.11-.56-.15-.56-.1-1.14-.07-1.71-.18-.56-.11-1.48-.42-1.44-1.14,.05-.81,1.38-.91,1.97-1.03Z"/><path class="cls-19" d="M81.42,20.81c.18-.14,.48-.44,.72-.27,.1,.07,.12,.18,.12,.29,0,.14-.05,.26-.08,.38,.04,.09,.08,.17,.14,.25,.17,.24,.53,.36,.46,.72-.11,.51-1.16,1.21-1.58,.73-.23-.27-.55-.76-.51-1.14,.04-.41,.43-.72,.73-.96Z"/><path class="cls-19" d="M77.98,14.15c.19-.13,.39-.16,.61-.07,.37,.14,.57,.41,.83,.61,.75,.16,1.53,.13,2.29,.41,.61,.22,1.15,.7,1.22,1.38,.12,1.26-1.8,3.02-3.05,2.53-.66-.26-.65-.85-.73-1.43-.13-.84-1.28-.96-1.55-1.82-.15-.49-.09-1.29,.39-1.6Z"/><path class="cls-19" d="M80.41,6.38c.11-.17,.39-.32,.56-.41,.13-.06,.26-.1,.4-.15,1.31-.45-.51-1.14-.57-1.68-.13-1.04,1.23-.25,1.82,.23,.12,.06,.24,.12,.38,.16,.68,.2,1.37,.17,2,.54,.07,.04,.1,.16,.03,.22-.51,.4-1.4,.48-1.76,1.03-.35,.53-.2,1.03-.93,1.19-.54,.12-2.59-.14-1.93-1.13Z"/><path class="cls-19" d="M77.13,4.89c.1-.33,.08-.51,0-.83-.13-.54,.31-.93,.8-.99,.55-.26,1.38-.36,1.72,.06,.05,.06,.06,.15,0,.2-.22,.2-.43,.21-.7,.29-.31,.1-.57,.28-.53,.64,.02,.18,.14,.31,.19,.48,.19,.64-.49,.74-.85,1.08-.06,.06-.15,.09-.24,.06-.27-.09-.43-.31-.46-.59-.02-.15,.03-.27,.07-.41Z"/><path class="cls-19" d="M76.79,8.19c.07-.35,.16-.67,.2-1.03,.02-.21,.05-.42,.16-.6,.14-.23,.36-.36,.59-.16,.18,.16,.18,.36,.12,.55,0,.15-.05,.32-.09,.45-.04,.14-.1,.23-.16,.36-.15,.33-.07,.58,.09,.91,.14,.3,.37,.6,.07,.91-.24,.25-.67,.22-.89-.05-.27-.33-.17-.97-.1-1.34Z"/><path class="cls-19" d="M78.98,8.84c.35-.16,1.21,.03,1.57-.03,.52-.09,.4-.61,.83-.82,.59-.28,1.28-.09,1.9,.05,.56,.12,.97,.3,.57,.93-.35,.56-.98,.69-1.59,.66-.64-.03-1.22-.13-1.87,.03-.4,.1-.84,.41-1.26,.4-.84-.02-.85-.9-.17-1.21Z"/><path class="cls-19" d="M76.57,11.54c.16-.54,.82-1.1,1.4-.99,.34-.02,.57,.24,.59,.59,.02,.38-.17,.75-.17,1.13,0,.27,.08,.45-.09,.66-.04,.05-.12,.06-.19,.05-.31-.07-.57-.2-.89-.21-.19,0-.33,.04-.48-.09-.29-.24-.26-.81-.16-1.13Z"/><path class="cls-19" d="M89.04,28.34c.33-.74,1.3-.66,1.93-.92,1.27-.53,1.44-1.73,1.84-2.76,.19-.5-.24-1.86,.41-1.81,.3,.02,.43,.35,.52,.65,.13,.15,.21,.35,.28,.56,.29,.96-.35,1.77-.8,2.57-.71,1.25-1.79,4.34-3.8,2.84-.37-.28-.56-.69-.36-1.14Z"/><path class="cls-19" d="M89.27,23.78c.13-.74,.38-2.04,.99-2.57,.42-.37,.93,.71,.94,1.02,.02,.54,.06,1.06,.1,1.59,.02,.24,.02,.36-.09,.58-.04,.07-.13,.09-.17,.15-.13,.18-.23,.41-.35,.61-.13,.21-.09,.24-.29,.36-.27,.15-.94,.22-1.17-.03-.34-.38-.04-1.24,.04-1.69Z"/><path class="cls-19" d="M86.8,30.13c.17-.23,.39-.41,.57-.63,.1-.13,.19-.26,.32-.36,.22-.18,.48-.33,.69-.07,.08,.09,.13,.22,.16,.36,.28,.39,.2,1.05-.12,1.4-.13,.14-.28,.23-.45,.32-.2,.09-.38,.24-.58,.32-.31,.12-.56-.12-.72-.38-.19-.32-.08-.67,.13-.95Z"/><path class="cls-19" d="M80.69,29.08c.58-.88,1.83-1,2.76-1.23,.67-.16,1.64-.23,2.22-.64,.43-.3,.41-.8,.92-.8,.6,0,.63,.74,.6,1-.04,.28-.24,.47-.44,.64-.69,.57-1.37,.7-1.82,1.59-.29,.58-.43,1.79-1.33,1.8-.18,0-.38-.03-.5-.19-.25-.33,.66-2.09,.36-2.33-.34-.27-1,0-1.37,.59-.11,.17-.25,.85-.42,.96-.27,.16-.49,.21-.78,.07-.57-.29-.48-1.01-.19-1.46Z"/><path class="cls-19" d="M76.52,22.18c.27-.38,1.31-.27,1.55-.01,.23,.25,.44,.54,.65,.8,.14,.17,.34,.36,.38,.58,.09,.45-.55,.82-.86,1.03-.39,.26-.84,.56-1.29,.25-.38-.26-.53-.76-.59-1.19-.06-.42-.12-1.09,.14-1.46Z"/><path class="cls-19" d="M79.83,25.79s.05-.03,.08-.04c.36-.54,.99-.92,1.69-1.08,.75-.17,1.2,.01,1.8-.62,.08-.09,.04-.29,.15-.37,.51-.37,.79-.42,1.41-.17,.65,.25,1.48,1.03,.78,1.71-.52,.51-1.57,.18-2.19,.28-.91,.16-3.5,.9-3.66,1.93-.03,.21-.35,.18-.4,0-.18-.64-.1-1.13,.34-1.64Z"/><path class="cls-19" d="M86.27,21.55c.16-.28,.41-.47,.63-.71,.27-.29,.43-.72,.72-.98,.26-.24,.62-.19,.8,.12,.06,.11,.08,.24,.09,.38,.19,.5-.16,1.22-.31,1.68-.24,.75-1.05,1.97-1.82,.97-.34-.45-.39-.98-.1-1.47Z"/><path class="cls-26" d="M90.46,21.67c.44-.16,.48,.35,.41,.84,.02,.13,.03,.24,.03,.26,.03,.37,0,.63-.35,.84-.19,.11-.38,.16-.53-.02-.33-.38-.07-1.74,.43-1.92Z"/><path class="cls-26" d="M88.29,20.29c.39,.43,.01,1.39-.43,1.78-.38,.33-.76,.08-.73-.37,.02-.36,.62-2,1.16-1.41Z"/><path class="cls-26" d="M89.28,12.87c.18-.14,.41-.15,.62-.15,.66,0,1.33-.07,1.39-.89,.02-.33-.15-1.1,.36-1.17,.24-.03,.36,.14,.42,.36,.06,.11,.11,.24,.14,.33,.15,.4,.65,1.21,.3,1.59-.06,.07-.48,.21-.48,.22-.24,.16-.34,.41-.51,.62-.11,.13-.21,.23-.39,.26-.3,.05-.65-.18-.96-.17-.29,.01-.55,.08-.82-.07-.36-.21-.43-.66-.09-.93Z"/><path class="cls-26" d="M93.48,15.2c.03-.08,.07-.14,.16-.15,0,0,0,0,0,0,.08-.06,.18,.03,.18,.12,.16,.2,.16,.65,.2,.85,.1,.44,.45,.86,.43,1.33-.04,.72-.72,.13-.86-.23-.07-.19-.07-.35-.09-.55-.03-.28-.18-.53-.21-.81-.02-.22,.05-.41,.19-.56Z"/><path class="cls-26" d="M93.41,19.25c-.12-.35-.21-.82,.16-1.06,.29-.19,.69-.05,.9,.2,.15,.18,.19,.45,.19,.72,.13,.52,.09,1.27,.06,1.47-.06,.38-.32,.78-.72,.86-.27,.06-.58-.09-.64-.37-.04-.17,.05-.29,.1-.45,.18-.51,.12-.86-.06-1.36Z"/><path class="cls-26" d="M89.31,17.5c.25-.21,1.87-.05,1.81,.33-.09,.55-1.05,.79-1.5,.7-.51-.1-.74-.67-.31-1.03Z"/><path class="cls-26" d="M86.86,7.19c.42-.44,1.23-.9,1.6-.2,.27,.51-.11,1.2-.15,1.71-.03,.41,.1,1.12-.27,1.43-.22,.18-.5,.13-.67-.08-.31-.37,0-.87,.04-1.27,.04-.43-.26-.6-.51-.86-.04-.05-.1-.08-.14-.13-.07-.1-.11-.21-.09-.33,.03-.13,.11-.21,.2-.25Z"/><path class="cls-26" d="M81.6,8.53c.2-.39,.74-.42,1.17-.31,.31,0,.61,.06,.7,.35,.18,.59-.74,.74-1.11,.71-.39-.03-1.02-.22-.75-.74Z"/><path class="cls-26" d="M82.02,5.94c.54-.44-.16-.79,.2-1.18,.29-.3,1.86,.42,1.57,.8-.1,.13-.27,.21-.41,.28-.32,.16-.53,.32-.67,.67-.12,.28-.24,.63-.6,.66-.28,.02-.53-.22-.57-.49-.05-.39,.24-.53,.49-.73Z"/><path class="cls-26" d="M80.67,15.22c1.06,.07,1.67,.41,1.71,1.2,.04,.67-.89,1.59-1.58,1.36-.49-.16-.84-.79-1.23-1.1-.31-.24-.66-.46-.73-.88-.18-1.16,1.27-.62,1.84-.59Z"/><path class="cls-26" d="M85.17,13.92c.48,.18,.35,1.3,.35,1.62,0,.34,0,.67,.02,1.01,.01,.24,.19,.71,.08,.93-.08,.15-.13,.24-.32,.25-.89,.07-.41-1.56-.4-1.91,.02-.47-.49-2.18,.27-1.9Z"/></g></g></svg>