<?xml version="1.0" encoding="utf-8"?>
<svg xmlns="http://www.w3.org/2000/svg" viewBox="50.2092 156.058 52.4905 59.3175" width="52.4905px" height="59.3175px"><defs><style>
      .cls-1 {
        fill: #d6734c;
      }

      .cls-2, .cls-3, .cls-4, .cls-5, .cls-6, .cls-7, .cls-8, .cls-9, .cls-10, .cls-11, .cls-12, .cls-13, .cls-14, .cls-15, .cls-16, .cls-17 {
        opacity: .5;
      }

      .cls-2, .cls-18 {
        fill: #ea8b60;
      }

      .cls-19, .cls-7, .cls-20 {
        fill: #ff7b94;
      }

      .cls-21 {
        fill: #e8426a;
      }

      .cls-22 {
        fill: #dd3e4e;
      }

      .cls-23 {
        fill: #e23354;
      }

      .cls-3, .cls-24 {
        fill: #f4996c;
      }

      .cls-4, .cls-25, .cls-26 {
        fill: #ff9cb4;
      }

      .cls-27 {
        fill: #59a038;
      }

      .cls-5, .cls-28 {
        fill: #ba5b5b;
      }

      .cls-29 {
        fill: #ffb38d;
      }

      .cls-30 {
        fill: #4174e5;
      }

      .cls-6, .cls-31, .cls-32 {
        fill: #ffc1a6;
      }

      .cls-33 {
        fill: #bf2a26;
      }

      .cls-34 {
        fill: #b55454;
        opacity: .6;
      }

      .cls-31, .cls-35, .cls-25, .cls-20, .cls-28 {
        opacity: .7;
      }

      .cls-36 {
        fill: #892c29;
      }

      .cls-8 {
        fill: #ed5551;
      }

      .cls-35, .cls-37 {
        fill: #ff5f76;
      }

      .cls-38 {
        fill: #fea97a;
      }

      .cls-39 {
        fill: #ffcdbb;
      }

      .cls-40 {
        fill: #2a66d1;
      }

      .cls-41 {
        fill: #e5937a;
      }

      .cls-9 {
        fill: #ffa9be;
      }

      .cls-42 {
        fill: #ce392e;
      }

      .cls-43 {
        fill: #d63048;
      }

      .cls-10 {
        fill: #e54c41;
      }

      .cls-44 {
        fill: #e08686;
      }

      .cls-45 {
        fill: #528bef;
      }

      .cls-46 {
        fill: #bc2f40;
      }

      .cls-47 {
        fill: #96362f;
      }

      .cls-11 {
        fill: #ff9f9f;
      }

      .cls-12 {
        fill: #ef566d;
      }

      .cls-48 {
        fill: #e83f57;
      }

      .cls-49 {
        fill: #dd7b54;
      }

      .cls-50 {
        fill: #c9633f;
      }

      .cls-51 {
        fill: #a84848;
      }

      .cls-13 {
        fill: #f46060;
      }

      .cls-52 {
        fill: #7c1e1e;
      }

      .cls-53 {
        fill: #609cf4;
      }

      .cls-54 {
        fill: #d37863;
      }

      .cls-14, .cls-55 {
        fill: #ffd0c0;
      }

      .cls-56 {
        fill: #f4bba6;
      }

      .cls-57 {
        fill: #a03f3d;
      }

      .cls-58 {
        fill: #d64532;
      }

      .cls-15 {
        fill: #ffbbce;
      }

      .cls-16 {
        fill: #f9738d;
      }

      .cls-59 {
        fill: #f44d5d;
      }

      .cls-17 {
        fill: #ffccdc;
      }

      .cls-60 {
        fill: #f2aa91;
      }

      .cls-61 {
        fill: #ce1743;
      }

      .cls-62 {
        fill: #cc173a;
      }

      .cls-63 {
        fill: #70b753;
      }

      .cls-64 {
        fill: #ffe7e1;
      }

      .cls-65 {
        fill: #e88b62;
      }

      .cls-66 {
        fill: #d6253f;
      }
    </style></defs><g transform="matrix(1, 0, 0, 1, 0.8982086181640341, 2.2455270290374756)" id="object-6"><path class="cls-49" d="M83.83,194.27c-.98-1.12-2.42-1.33-3.89-1.27-1.47-.06-2.91,.15-3.89,1.27-1,1.15-1.36,2.69-1.32,4.48,.4,.57,1.16,1.31,2.62,1.84,.49,.18,1.1,.3,1.71,.39,1.53,.22,2.59,1.63,2.37,3.16-.17,1.2-.36,2.62-.48,4.01-.15,1.6-.25,3.52-.31,4.93,.42-.08,.83-.25,1.19-.58,.2-.74,.64-2.57,1.3-4.66,1.76-5.6,3.18-10.73,.71-13.57Z"/><g><path class="cls-65" d="M77.34,200.58c-1.46-.53-2.22-1.27-2.62-1.84,.06,2.61,.99,5.77,2.03,9.09,.66,2.09,1.1,3.92,1.3,4.66,.17,.15,.35,.26,.53,.35-.23-1.79-.47-3.57-1.01-5.3-.67-2.17-2.57-6.21-1.82-6.57,.42-.2,.73,.18,1.05,.36,.98,.57,3.14,.12,3.27,1.72,.08,1.03-.45,2.17-.55,3.2-.13,1.22-.11,2.46-.02,3.69,.07,1,.33,2.1,.38,3.18,.02,0,.04,0,.06,0,.23,0,.46,0,.69-.05,.06-1.41,.16-3.33,.31-4.93,.16-1.77,.42-3.6,.62-4.94,.16-1.05-.59-2.03-1.65-2.13-.86-.08-1.83-.23-2.56-.49Z"/><path class="cls-24" d="M79.52,206.26c.11-1.03,.64-2.18,.55-3.2-.13-1.61-2.29-1.15-3.27-1.72-.32-.19-.63-.56-1.05-.36-.75,.36,1.15,4.39,1.82,6.57,.54,1.74,.78,3.52,1.01,5.3,.42,.21,.87,.28,1.3,.28-.05-1.07-.3-2.18-.38-3.18-.09-1.23-.11-2.46,.02-3.69Z"/></g><g><path class="cls-65" d="M58.32,193.22c1.37-.95,2.5-2.46,2.65-4.16,.14-1.62-.79-3.1-2.32-3.63,.51-1.02,0-1.91-.28-2.13-.45-.36-1.1-.58-1.5-.77,.9-.52,1.57-1.29,1.69-2.37,.14-1.29-1.07-2.18-1.75-2.48,.45-.05,.87-.7,1.06-1.1,.26-.58,.22-1.03-.1-1.55-.34-.54-.85-1.12-1.32-1.29,.39-.58,1-1.22,.75-1.98-.61-1.87-2.79-.41-3.03,.11-.46-1.68-3.18-2.06-3.85-.38-.05,.85,.25,1.79,.8,2.26-1.03,.36-1.49,3.02-.03,4.22-.4,.3-.85,.93-1,1.66-.19,.92,.04,1.99,.8,2.76-1.59,.16-1.69,3.99-.19,4.67-.28,.88-.54,1.93-.54,2.95,0,1.2,.32,2.38,.69,3.42,2.32,1.35,5.16,1.42,7.48-.19Z"/><path class="cls-49" d="M63.77,190.75c.17-2.99-1.65-5.8-3.97-6.01,.15-.37,.16-.8,.03-1.23-.21-.67-.83-1.17-1.34-1.39,1.58-1.19,1.14-4.23-.72-4.42,1.79-1.62,.33-4.24-.61-4.21,1.01-1.14,.94-2.86-.3-3.16,.37-.38,.6-1.3,.59-1.97-.01-1.08-.82-1.32-1.49-1.88-1.41-1.18-5.54-1.53-5.61-1.35-1.43,2.48-.72,4.33,.49,5.01-.32,.33-.49,.82-.52,1.35,.67-1.68,3.39-1.29,3.85,.38,.24-.52,2.42-1.98,3.03-.11,.25,.77-.37,1.4-.75,1.98,.47,.17,.99,.75,1.32,1.29,.32,.52,.36,.98,.1,1.55-.18,.4-.6,1.05-1.06,1.1,.68,.3,1.89,1.19,1.75,2.48-.12,1.08-.79,1.86-1.69,2.37,.4,.19,1.05,.41,1.5,.77,.28,.22,.79,1.11,.28,2.13,1.53,.53,2.46,2.01,2.32,3.63-.15,1.7-1.29,3.21-2.65,4.16-2.33,1.62-5.16,1.54-7.48,.19,.31,.88,.75,1.64,1.31,2.16,3.81,3.53,11.21,2.43,11.62-4.83Z"/></g><g><path class="cls-65" d="M77.85,195.08c.84,.53,2.23,.66,2.76,.64-.48,1.25,.18,2.08,1.23,2.22,.86,.11,2.06-.37,2.42-.64,.65,1.82,4.09,1.39,5.05,.07,.79,1,2.54,1.13,3.2-.19,.5,.6,1.49,.77,2.15,.37,.63-.37,.9-1.1,.85-1.83,1.5,.28,2.73-1.45,2.02-2.76,1.12,.09,1.97-1.52,1.75-2.57-.15-.72-.3-1.32-.99-1.98,1.2-.35,2.21-1.25,2.24-2.58,.02-1.25-.95-2.23-2.14-2.41,1.4-.52,2.71-3.7,.61-4.72,1.21-.24,1.51-2.42,.21-3.1,1.06-.48,1.84-2.67,.08-3.55,1.61-1.35,.84-2.99-.23-3.54,1.46-.84,2.05-1.91,1.4-3.14-.68-1.28-2.53-.95-3.15,.29-.64-1.68-2.31-1.14-3.45-.36,0,0,0,0,0,0-1.33,1.89-.79,3.6,.28,4.04-1.17,.83-1.24,2.56-.04,3.44,0,0,0,0,.01,0-.62,.41-.99,1.15-1,1.89-.01,.6,.23,1.44,.76,1.81-.49,.34-.81,1.11-.86,1.6-.08,.78,.27,1.78,1.04,2.11-.76,.74-1.13,1.88-.85,2.92,.13,.5,.44,1.02,.87,1.31-1.1,.98-1.21,3.01,.19,3.7-.72,.33-1.16,1.27-1.07,2.05-.68-.18-.97,.41-1.03,1.03-.49-.31-1.13,0-1.32,.5-.51-.21-1.16,.05-1.34,.69-.67-.26-1.46-.32-1.99,.06-.37-1.04-1.71-1.17-2.39-.56-.29-.94-.82-1.43-1.87-1.23-.52,.1-1.46,.58-1.54,1.25-1.87-.52-4.16-.01-5.15,1.72,0,.01-.01,.03-.02,.04,.29,.57,.78,1.07,1.28,1.38Z"/><path class="cls-49" d="M79.14,197.05c-.09,.64,.33,1.37,.96,1.68,1.33,.65,2.59,.78,3.7,.19,1.38,1.52,4.38,1.39,5.3-.02,1.03,1.23,2.77,1.03,3.57-.34,.71,.48,1.58,.69,2.26,.41,.72-.29,1.22-1.12,1.33-2.03,1,.35,2.19,.07,2.8-.87,.53-.8,.43-1.79-.06-2.54,.85-.3,1.6-1.36,1.78-2.22,.21-1.04-.19-2.1-.82-2.96,.02,0,.05-.02,.07-.04,1.25-1,2.47-3.06,.13-4.78,0,0,3.18-2.53,.14-4.77,0-.01,0-.03,0-.04,.07,.03,.15,.03,.23-.04,.96-.83,.79-2.49-.21-3.14,.61-.48,.92-1.39,.88-2.13-.02-.39-.23-1-.58-1.29,.54-.82,.75-1.92,.4-2.83-.09-.23-.44-.69-.75-.94,.63-.35,1.14-.97,1.27-1.61,.18-.91-.24-1.86-.74-2.13,.27-.27,.96-.79,1-2.08,.03-1.2-.38-1.74-1.23-3.07-.79,.47-1.96,1.55-2.71,1.76-.88,.25-2.82,0-3.65,.35-.5,.21,0,.84-.37,1.25-.13,.35-.21,.73-.24,.99-.06,.47,.2,1.04,.32,1.48,1.15-.78,2.81-1.32,3.45,.36,.61-1.24,2.47-1.57,3.15-.29,.65,1.23,.06,2.3-1.4,3.14,1.07,.55,1.83,2.19,.23,3.54,1.76,.88,.97,3.07-.08,3.55,1.3,.68,.99,2.87-.21,3.1,2.09,1.02,.78,4.19-.61,4.72,1.19,.18,2.16,1.17,2.14,2.41-.02,1.33-1.04,2.22-2.24,2.58,.68,.66,.84,1.26,.99,1.98,.21,1.05-.63,2.66-1.75,2.57,.71,1.31-.52,3.05-2.02,2.76,.05,.73-.22,1.46-.85,1.83-.67,.39-1.66,.22-2.15-.37-.66,1.32-2.41,1.19-3.2,.19-.96,1.33-4.4,1.75-5.05-.07-.36,.27-1.56,.75-2.42,.64-1.06-.14-1.72-.97-1.23-2.22-.53,.02-1.91-.12-2.76-.64-.5-.31-.99-.81-1.28-1.38-1.03,1.88,.73,3.71,2.57,3.35Z"/></g><g><path class="cls-24" d="M62.86,194.43c.38,.66,.62,1.65,.44,2.33-.14,.49-.6,1.36-.79,1.84-.51,1.2,.35,2.56,1.65,1.71,0-.06-.01-.11-.02-.17-.08-.35-.46-.52-.62-.64-.45-.32,.67-2.08,.47-3.7s-.88-2.23-1.37-2.65c-1.09-.93-2.93-1.3-4.3-2.73-1.36-1.43-3.12-4.52-3.12-4.52,0,0,.9-1.09,.46-2.41-.42-1.25-1.05-1.27-1.05-1.27,0,0,.85-1.42,.62-2.88-.23-1.46-.68-1.83-.68-1.83,0,0,1.05-.7,.89-2-.16-1.3-.82-1.66-.82-1.66,0,0,.3-.4,.21-1.25-.05-.47-.41-.99-.41-.99,0,0,1.1-1.39,.41-3.03-.09-.21-.44-.11-.44-.11,0,0,.2,.72,.2,1.45,0,1.23-.43,1.91-.43,1.91,0,0,.56,.61,.23,2.14,.36,.22,.65,1.07,.59,1.93-.09,1.17-.82,1.58-.82,1.58,0,0,.48,.87,.62,2.06,.14,1.19-.62,2.71-.62,2.71,0,0,.68,.3,.94,1.68,.26,1.4-.34,2.1-.34,2.1,0,0,1.39,3.31,3.15,4.96,1.43,1.34,3.38,2.02,4.34,2.83,.19,.04,.45,.3,.61,.58Z"/><path class="cls-65" d="M62.73,194.43c.19,.42,.25,1.41-.24,2.4-.73,1.48-1.47,3.25-.16,4.02,1.24,.73,1.88,.06,1.83-.54-1.3,.85-2.16-.51-1.65-1.71,.2-.47,.66-1.34,.79-1.84,.19-.68-.06-1.68-.44-2.33-.16-.29-.42-.54-.61-.58,.22,.18,.38,.37,.48,.58Z"/></g><g><path class="cls-38" d="M51.68,166.5c.96,1.2,3.97,2.12,6.04,1.27,.1,.72,1.45,1.65,2.8,1.65,1.73,0,2.36-.49,2.95-.83,.67,.99,2.08,1.78,3.32,1.86,1.23,.08,2.76-.76,3.52-1.36,1.59,2.19,5.98,1.06,6.52-.3,1.04,1.2,2.83,1.25,4.24,.88,1.34-.35,2.79-1.89,2.88-2.39,.75,.43,2.34-.02,2.97-.32,.96-.46,1.84-1.84,1.89-2.31,1.21,.41,2.32,.31,3.42-.37,.84-.53,1.45-1.8,1.64-2.83,.87,.1,1.68,.34,2.56,.25,.87-.09,1.72-.39,2.46-.87,1.44-.95,2.39-2.45,2.35-4.17-.4-1.25-1.44-1.56-2.53-1.51-.22,0-.45,.01-.67,.05-.69-2.67-4.78-1.01-5.41,.99-.58-.18-1.36-.13-1.77-.07-1.54,.25-2.91,1.18-3.7,2.52-.51-.25-1.13-.32-1.69-.21-1.31,.26-2.46,1.38-2.86,2.67-1.18-.38-4.27-.09-5.24,1.74-1.89-1.34-4.91-.69-5.93,.46-.6-.63-3.65-1.58-6.24,.23-.12-.12-2.54-2.1-5.71-.48-1.54-1.3-4.36-2.72-6.31-1.29-.62,.46-.59,.98-.59,1.46-.48-.08-1.08-.13-1.54,.11-.27,.83-.39,1.89,.63,3.17Z"/><path class="cls-24" d="M50.81,166.62c.81,1.09,2.29,1.7,3.58,1.88,1.41,.21,2.73-.02,3.05-.11,.78,1.72,4.87,2.31,6.01,.87,1.58,1.95,3.82,2.06,4.93,1.66,.64-.23,1.75-1.01,1.76-1.02,.39,1.01,2.71,1.63,3.85,1.49,2.26-.28,2.97-1.62,2.97-1.65,1.61,1.5,6.31,1.03,7.26-1.72,1.16,.33,2.56-.15,3.49-.82,.4-.28,1.49-1.68,1.5-1.68,4.87,.65,5.07-3.21,5.07-3.21,.98,.56,2.96,.38,5.36-1.43,1.26-.95,2.1-2.67,1.61-4.23,0,0,0,0,0,0,.04,1.72-.91,3.22-2.35,4.17-.73,.48-1.58,.78-2.46,.87-.89,.09-1.7-.14-2.56-.25-.19,1.03-.8,2.31-1.64,2.83-1.1,.68-2.21,.78-3.42,.37-.05,.46-.93,1.85-1.89,2.31-.63,.3-2.22,.75-2.97,.32-.1,.49-1.54,2.03-2.88,2.39-1.41,.37-3.2,.32-4.24-.88-.54,1.36-4.93,2.49-6.52,.3-.76,.6-2.29,1.44-3.52,1.36-1.25-.08-2.65-.87-3.32-1.86-.58,.34-1.22,.83-2.95,.83-1.35,0-2.7-.93-2.8-1.65-2.07,.84-5.08-.07-6.04-1.27-1.02-1.28-.89-2.34-.63-3.17-.13,.07-.26,.16-.36,.29-.75,.91-.52,2.15,.12,3.01Z"/></g><g><path class="cls-29" d="M100.46,156.6c-.8-1.42-2.56-1.11-3.25-.85-1.65,.78-2.18,1.72-2.29,2.28-.34,1.63,1.35,2.4,2.91,2.07,1.54-.33,3.52-1.94,2.64-3.5Z"/><path class="cls-32" d="M99.72,156.44c-.2-.69-.87-.72-1.51-.62-.7,.11-1.4,.49-1.72,1.09-.58,1.06,.68,1.45,1.52,1.33,.83-.12,2.01-.81,1.71-1.81Z"/><path class="cls-55" d="M99.04,156.12c-.23-.2-.9-.18-1.18,.27-.2,.33,.28,.16,.6,.1,.36-.06,.98-.01,.58-.37Z"/></g><path class="cls-24" d="M95.09,156.11c-1.13,.3-2.66,1.4-2.59,2.72-1.07-.1-2.27-.07-3.16,.49-.71,.44-1.44,1.49-1.55,2.35-1.78-.19-4.59,.47-4.88,2.45-1-.56-2.07-.75-3.19-.46-.57,.15-1.12,.42-1.58,.78-.2,.16-.39,.33-.56,.52-.07,.08-.59,.72-.72,.86-.6-.32-1.12-.6-1.62-.67-.57-.08-1.15-.08-1.71,0-1.09,.15-2.25,.66-3.05,1.38-1.5-1.84-4.67-1.55-6.35-.06-.78-1.79-3.83-2.6-5.48-1.65-1.04-1.53-3.02-2.65-4.88-2.08-.03,.01-.03,.06,0,.06-.08,.02-.11,.14-.01,.16,1.24,.22,2.28,.67,3.29,1.43,.53,.4,.32,.46,.76,.9,.06,.06,.14,.16,.22,.19,.27,.11,.63,0,.9-.02,1.22-.1,2.95,.16,4.03,.8,.45,.27,.46,.49,.71,.84,.03,.04,0,.09,.06,.13,.03,.02,.05,.04,.07,.05,0,.09,.1,.17,.19,.11,1.69-1.11,4.18-1.56,6.02-.5,0,.09,.05,.17,.16,.18,.34,0,.5-.14,.82-.28,.72-.32,1.5-.49,2.29-.54,1.17-.08,2.29,.18,3.45,.24,.03,0,.05-.02,.06-.04,.02,0,.03-.02,.05-.03,.62-.63,1.29-1.03,2.04-1.48,.28-.09,.55-.15,.8-.2,1.14-.23,2.24-.11,3.39-.16,.08,.04,.19,.03,.22-.08,.4-1.54,3.27-1.94,4.56-2.01,.06,0,.12-.04,.13-.1,.04-.23,.11-.44,.2-.64,.07-.03,.11-.12,.08-.18,.81-1.59,2.92-1.9,4.62-2.03,.05,0,.1-.03,.12-.09,.02-.09,.06-.17,.08-.25,.03,0,.05,0,.08,0,.16,.01,.2-.26,.04-.29,0,0-.01,0-.02,0,.38-.97,.99-1.76,1.8-2.44,.07-.04,.14-.07,.21-.11,.14-.07,.04-.29-.11-.25Z"/><path class="cls-65" d="M98.05,155.19s-2.6,.89-3.64,2.09c-1.04,1.21-1.17,2.5-1.17,2.5,0,0-1.56-.54-3.34,.52-1.48,.88-1.72,2.31-1.72,2.31,0,0-1.7,.03-3.03,.81s-1.65,1.66-1.65,1.66c0,0-1.62-.68-3.57,0-1.34,.47-2.27,1.22-2.73,1.65-.21,.2-.32,.32-.32,.32,0,0-1.23-1.04-3.18-.78-1.95,.26-3.18,1.39-3.18,1.39,0,0-.63-.98-3.38-1.07-2.08-.07-3.32,1.18-3.32,1.18,0,0-.85-1.68-2.93-2.06-2.08-.39-2.82,.31-2.82,.31,0,0-.86-1.23-2.28-1.81s-3.19-.98-3.19-.98c0,0-.06-.26,.03-.61,.83,0,1.74-.37,3.63,.73,1.89,1.1,2.32,1.73,2.32,1.73,0,0,1.56-.55,2.99,0s2.42,1.97,2.42,1.97c0,0,1.85-1.25,3.48-1.16,2.14,.12,3.02,1.06,3.02,1.06,0,0,.94-1.32,3.28-1.45,2.34-.13,2.99,.71,2.99,.71,0,0,1.43-1.49,3.18-2.01,1.75-.52,3.12,.19,3.12,.19,0,0-.01-.91,2.06-1.94,1.76-.88,2.79-.43,2.79-.43,0,0,.34-1.33,1.64-2.24,1.3-.91,3.22-.59,3.22-.59,0,0,.04-1.39,1.56-2.67,1.54-1.29,3.64-1.55,3.64-1.55l.09,.22Z"/><path class="cls-29" d="M92.39,160.2c-.83-.49-2.2,.23-2.75,.86-.58,.66-.37,1.88,.53,2.12,1,.27,2.34-.39,2.73-1.35,.3-.75,.12-1.36-.51-1.63Z"/><path class="cls-32" d="M92.35,160.81c-.07-.43-.58-.58-.95-.53-.48,.06-1.05,.37-1.26,.83-.17,.39-.02,.83,.4,.95,.14,.04,.28,.04,.43,0,.65,0,1.47-.63,1.37-1.25Z"/><path class="cls-55" d="M91.81,160.56c-.2-.18-.79-.16-1.04,.24-.18,.29,.25,.14,.53,.09,.31-.06,.86-.01,.51-.33Z"/><path class="cls-29" d="M87.82,163.13c-.83-.47-2.2,.22-2.75,.82-.58,.64-.37,1.81,.53,2.04,1,.26,2.34-.37,2.73-1.29,.3-.72,.12-1.31-.51-1.57Z"/><path class="cls-32" d="M87.77,163.75c-.07-.43-.58-.58-.95-.53-.48,.06-1.05,.37-1.26,.83-.17,.39-.02,.83,.4,.95,.14,.04,.28,.04,.43,0,.65,0,1.47-.63,1.37-1.25Z"/><path class="cls-55" d="M87.24,163.49c-.2-.18-.79-.16-1.04,.24-.18,.29,.25,.14,.53,.09,.31-.06,.86-.01,.51-.33Z"/><path class="cls-29" d="M82.59,165.24c-.83-.47-2.49-.06-3.16,.77-.62,.77-.32,1.86,.94,2.09,1.02,.19,2.34-.37,2.73-1.29,.3-.72,.12-1.31-.51-1.57Z"/><path class="cls-32" d="M82.55,165.78c-.07-.43-.58-.58-.95-.53-.48,.06-1.2,.37-1.5,.77-.31,.41-.24,.93,.65,1.01,1.15,.1,1.9-.62,1.81-1.24Z"/><path class="cls-55" d="M82.01,165.6c-.2-.18-.79-.16-1.04,.24-.18,.29,.25,.14,.53,.09,.31-.06,.86-.01,.51-.33Z"/><path class="cls-29" d="M75.61,166.69c-.83-.47-2.65-.17-3.32,.66-.62,.77-.24,1.57,1.02,1.8,1.02,.19,2.37-.36,2.74-1.01,.39-.68,.18-1.19-.45-1.45Z"/><path class="cls-32" d="M75.67,167.2c-.07-.43-.52-.52-1.12-.51-.48,0-1.13,.14-1.43,.54-.31,.41-.24,.93,.65,1.01,1.15,.1,2-.41,1.9-1.03Z"/><path class="cls-55" d="M75.23,167.15c-.16-.22-.74-.32-1.06,.02-.23,.25,.21,.19,.5,.2,.32,0,.84,.17,.56-.22Z"/><path class="cls-29" d="M69.44,167.4c-.72-.62-2.57-.67-3.38,.02-.75,.64-.54,1.49,.66,1.96,.96,.38,2.39,.1,2.89-.47,.51-.59,.4-1.14-.16-1.51Z"/><path class="cls-32" d="M69.33,167.92c0-.43-.42-.6-1.01-.7-.47-.08-1.14-.06-1.5,.28-.37,.35-.4,.87,.46,1.1,1.12,.3,2.04-.06,2.05-.68Z"/><path class="cls-55" d="M68.87,167.64c-.16-.22-.74-.32-1.06,.02-.23,.25,.21,.19,.5,.2,.32,0,.84,.17,.56-.22Z"/><path class="cls-29" d="M62.73,166.88c-.56-.77-2.35-1.24-3.3-.75-.88,.45-.86,1.33,.2,2.06,.85,.59,2.31,.64,2.92,.2,.64-.46,.65-1.02,.18-1.51Z"/><path class="cls-32" d="M62.51,167.37c.11-.42-.28-.68-.83-.91-.44-.18-1.1-.32-1.53-.07-.44,.26-.59,.76,.2,1.18,1.02,.54,2,.41,2.16-.2Z"/><path class="cls-55" d="M62.13,166.98c-.11-.25-.65-.48-1.04-.22-.28,.19,.16,.23,.44,.31,.31,.08,.78,.35,.6-.08Z"/><path class="cls-29" d="M57,165.33c-.73-.84-2.89-1.48-3.97-1.06-1,.39-.91,1.3,.41,2.15,1.06,.68,2.79,.86,3.48,.45,.71-.42,.69-1,.09-1.55Z"/><path class="cls-32" d="M57,165.93c.11-.42-.46-.86-1.02-1.09-.44-.18-1.22-.48-1.82-.21-.47,.22-.29,.9,.49,1.32,1.02,.54,2.19,.58,2.34-.02Z"/><path class="cls-55" d="M56.43,165.37c-.11-.25-.65-.48-1.04-.22-.28,.19,.16,.23,.44,.31,.31,.08,.78,.35,.6-.08Z"/><path class="cls-29" d="M59.06,163.47c-.06-.35-.52-.72-.8-.94-.81-.65-1.93-1.1-2.48-.65-.47,.38,.88,.77,1.24,.98,.72,.4,1.07,.73,1.65,.99,.29,.13,.44-.08,.39-.37Z"/><path class="cls-32" d="M58.01,162.54c-.19-.15-.78-.6-1.05-.38-.19,.15,.73,.6,1.01,.84,.22,.19,.85,.68,.84,.5-.01-.35-.56-.78-.8-.96Z"/><path class="cls-29" d="M64.57,163.66c-.89-.83-2.36-1.05-3.47-.67-.25,.09-.59,.25-.49,.58,.11,.36,.73,.44,1.01,.49,1.12,.2,2.4,.98,3.05,.47,.36-.28,.22-.56-.11-.87Z"/><path class="cls-32" d="M64.46,163.98c-.07-.23-.6-.7-1.78-.88-.31-.05-1.09-.16-1.28,.18-.01,.02-.02,.06,0,.08,.23,.33,.98,.17,1.33,.28,.46,.14,.96,.68,1.46,.65,.2-.01,.32-.11,.26-.32Z"/><path class="cls-29" d="M70.71,163.2c-1.03-.65-2.62-.73-3.64-.15-.23,.13-.42,.5-.26,.81,.17,.33,.8,.29,1.09,.29,1.14-.01,2.54,.51,3.09-.12,.3-.35,.12-.59-.27-.84Z"/><path class="cls-32" d="M70.68,163.54c-.11-.22-.75-.67-1.94-.62-.31,.01-1.1,.05-1.22,.42,0,.03,0,.06,.02,.08,.29,.28,.88,.09,1.24,.04,.56-.07,.94-.04,1.6,.19,.28,.1,.4,.07,.3-.12Z"/><path class="cls-29" d="M76.62,162.75c-1.1-.53-2.69-.44-3.64,.26-.21,.16-.36,.55-.17,.84,.21,.31,.83,.2,1.11,.17,1.13-.14,2.58,.22,3.06-.46,.26-.38,.05-.6-.37-.8Z"/><path class="cls-32" d="M76.63,163.1c-.13-.2-.82-.58-2-.4-.31,.05-1.09,.17-1.17,.56,0,.03,0,.06,.02,.08,.32,.25,.88,0,1.24-.1,.54-.14,.93-.15,1.61,0,.28,.07,.4,.03,.29-.15Z"/><path class="cls-29" d="M81.99,161.32c-1.18-.31-2.72,.08-3.52,.94-.18,.19-.25,.6,0,.85,.26,.26,.85,.04,1.12-.04,1.08-.35,2.58-.27,2.91-1.03,.19-.42-.07-.6-.51-.72Z"/><path class="cls-32" d="M82.06,161.66c-.17-.18-.92-.42-2.04-.02-.29,.1-1.03,.37-1.04,.77,0,.03,.01,.06,.04,.07,.36,.19,.86-.17,1.2-.33,.51-.24,.89-.32,1.59-.29,.29,.01,.4-.05,.26-.2Z"/><path class="cls-29" d="M86.34,158.69c-1.15-.03-2.39,.65-2.82,1.62-.1,.22-.03,.61,.27,.79,.32,.19,.77-.14,.98-.28,.85-.55,2.2-.8,2.25-1.57,.03-.43-.25-.54-.68-.55Z"/><path class="cls-32" d="M86.52,158.98c-.21-.13-.95-.19-1.81,.42-.23,.16-.8,.56-.67,.93,0,.03,.03,.05,.06,.06,.38,.09,.71-.34,.96-.56,.37-.33,.68-.48,1.31-.61,.26-.05,.34-.13,.16-.24Z"/><path class="cls-29" d="M91.49,156.29c-1.15-.03-2.39,.65-2.82,1.62-.1,.22-.03,.61,.27,.79,.32,.19,.77-.14,.98-.28,.85-.55,2.2-.8,2.25-1.57,.03-.43-.25-.54-.68-.55Z"/><path class="cls-32" d="M91.66,156.58c-.21-.13-.95-.19-1.81,.42-.23,.16-.8,.56-.67,.93,0,.03,.03,.05,.06,.06,.38,.09,.71-.34,.96-.56,.37-.33,.68-.48,1.31-.61,.26-.05,.34-.13,.16-.24Z"/><path class="cls-29" d="M96.43,154.03c-.89-.11-1.92,.34-2.33,1.06-.09,.16-.07,.47,.15,.63,.24,.17,.61-.05,.79-.15,.7-.37,1.78-.46,1.88-1.06,.06-.33-.15-.44-.49-.48Z"/><path class="cls-32" d="M96.54,154.27c-.15-.11-.72-.22-1.45,.2-.19,.11-.67,.38-.6,.67,0,.02,.02,.04,.04,.05,.29,.1,.58-.22,.79-.37,.32-.23,.57-.33,1.07-.38,.21-.02,.28-.08,.14-.18Z"/><path class="cls-1" d="M101.27,156.65s-.02-.01-.02,0c.71,3.99-3.66,6.1-7.03,5.59-.21,2.41-2.69,3.77-5.05,3.13-.12,.45-1.09,1.66-2.01,2.12-.97,.47-1.93,.51-2.97,.44-.09,.21-.75,1.24-1.31,1.65-.56,.4-1.23,.62-1.9,.78-1.45,.35-2.8,.14-4.05-.69-2.01,2.29-5.11,2.05-6.84,.16-.95,1.03-2.39,1.3-3.74,1.04-1.13-.22-2.03-.94-2.88-1.65-.85,.57-2.37,.91-3.6,.63-1.19-.27-2.18-1.09-2.38-1.55-1.64,.35-3.09,.18-4.63-.47-1.66-.69-3.23-2-2.28-4,0,0,0,0,0,0-.93,1.51-.03,3.05,1.36,3.9,1.69,1.03,3.63,1.25,5.5,.75,.4,.86,1.51,1.43,2.45,1.61,1.22,.23,2.55,.01,3.58-.7,1.33,1.99,5.03,2.42,6.64,.63,.9,1.04,2.2,1.57,3.58,1.47,1.17-.08,2.62-.58,3.25-1.63,2.37,1.58,6.12,.98,7.33-1.74,1.23,.15,2.14,.03,3.14-.5,.83-.44,1.55-1.13,1.83-2.04,2.09,.54,5.04-.65,5.09-3.18,1.36,.51,3.66,.13,5.16-1.02,1.34-1.03,2.59-3.01,1.78-4.73Z"/><path class="cls-24" d="M52.99,171.42c-.29-.28-.71-.52-1.13-.52-.83,0-1.15,.98-.36,1.96,.25,.31,.75,.44,1.16,.36,.39-.07,.54-.39,.6-.75,.06-.39,.03-.76-.27-1.05Z"/><path class="cls-24" d="M52.7,174.34c-.46-.31-.85-.17-1.19,.06-.53,.37-.71,1.37-.5,1.93,.33,.86,1.45,1.24,2.17,.6,.78-.7,.3-2.08-.47-2.59Z"/><path class="cls-24" d="M52.45,178.39c-.85-.28-1.3,.43-1.43,1.17-.11,.61-.06,1.21,.43,1.82,.6,.73,1.76,.69,2-.34,.2-.87-.02-2.32-1-2.64Z"/><path class="cls-24" d="M52.69,183.43c-.31-.35-.78-.69-1.27-.6-.46,.08-.62,.32-.75,.57-.26,.54-.17,1.16,.03,1.7,.3,.82,1.05,1.29,1.95,.64,.91-.67,.68-1.58,.04-2.31Z"/><path class="cls-24" d="M54.36,190.49c-.52-.82-.46-1.91-1.04-2.68-.35-.46-.99-.72-1.51-.36-.32,.23-.4,.58-.48,.93-.26,1.17-.04,2.56,.68,3.47,.57,.72,2.69,2.05,3.09,.48,.19-.75-.36-1.27-.73-1.85Z"/><path class="cls-38" d="M52.19,171.2c-.63-.21-.78,.61-.34,.98,.27,.22,.65,.44,.83,.03,.18-.39-.12-.88-.49-1Z"/><path class="cls-38" d="M52.29,174.45c-.74-.24-.91,.71-.4,1.14,.31,.26,.76,.52,.97,.03,.2-.46-.14-1.03-.57-1.17Z"/><path class="cls-38" d="M52.37,178.7c-.82-.27-1.01,.79-.44,1.27,.35,.29,.84,.57,1.08,.04,.23-.51-.15-1.14-.64-1.3Z"/><path class="cls-38" d="M51.96,183.14c-.95-.31-1.17,.92-.51,1.47,.4,.34,.97,.66,1.25,.04,.26-.59-.18-1.32-.74-1.51Z"/><path class="cls-38" d="M53.32,188.6c-.15-.34-.43-.87-.82-.99-.52-.16-1.29,.52-.66,1.91,.19,.42,1.25,1,1.56,.25,.15-.37,.07-.82-.08-1.18Z"/><path class="cls-32" d="M52.33,171.51c-.07-.09-.2-.19-.32-.19-.24,0-.29,.44,.24,.63,.05,.02,.11,0,.13-.05,.06-.14,.05-.27-.05-.39Z"/><path class="cls-32" d="M52.45,174.77c-.07-.09-.2-.19-.32-.19-.24,0-.29,.44,.24,.63,.05,.02,.11,0,.13-.05,.06-.14,.05-.27-.05-.39Z"/><path class="cls-32" d="M52.65,179.07c-.09-.11-.24-.23-.39-.23-.29,0-.35,.53,.29,.77,.06,.02,.14,0,.16-.07,.08-.17,.06-.33-.06-.47Z"/><path class="cls-32" d="M52.15,183.5c-.09-.11-.24-.23-.39-.23-.29,0-.35,.53,.29,.77,.06,.02,.14,0,.16-.07,.08-.17,.06-.33-.06-.47Z"/><path class="cls-32" d="M52.87,188.25c-.06-.15-.21-.34-.38-.39-.34-.1-.58,.5,.09,.98,.06,.04,.16,.03,.21-.02,.14-.17,.17-.36,.08-.57Z"/><path class="cls-1" d="M62.12,195.24c-2.34,2.84-7.37,2.61-9.88,.04-1.29-1.32-1.91-3.1-1.97-4.9-.03-.8,.07-1.82,.31-2.59,.38-1.24,1.97-1.26,2.92-1.41,.05,0,.03-.08-.01-.09-.83-.07-2.05,.26-2.75,.62-1.25-.87-1.45-2.58-.38-3.82,.87-1.01,2.19-.96,2.93-.95,.15,0,.13-.08,0-.09-.73-.08-1.6,0-2.25,.21-.9-.77-1.18-1.78-.8-2.94,.45-1.34,1.97-1.73,3.25-1.67,.04,0,.05-.06,0-.07-.71-.23-1.62-.06-2.31,.3-.67-.92-1.28-2.09-.67-3.22,.74-1.37,2.66-1.19,3.26-.93,.03,.01,.04-.04,0-.06-.92-.53-2.66-.03-2.67-.03-.77-.89-1.24-2.51-.19-3.51,.03-.02,0-.07-.04-.05-1.16,.74-1.22,3.02,.07,3.69-.36,.18-.6,.55-.82,1.08-.48,1.16,.04,2.25,.93,3.08-.41,.26-.75,.61-.94,1.05-.56,1.25-.34,2.49,.66,3.36-.59,.23-.99,.75-1.29,1.52-.45,1.18,.03,2.57,1.07,3.22-1.46,3.08-.22,6.34,1.08,7.96,1.25,1.55,3.33,2.49,5.31,2.52,1.81,.02,4.21-.65,5.23-2.27,.05-.08,0-.13-.06-.06Z"/><path class="cls-50" d="M63.48,188.33c-.47-1.62-1.2-3.29-3.05-3.61-.19-.03-.38-.05-.58-.06,0-.01,.02-.03,.02-.04,.28-1.14-.26-2.04-1.2-2.48,.94-.78,1.1-2.61,.5-3.64-.26-.44-.7-.7-1.21-.83,.94-.81,.78-2.6,.18-3.54-.76-1.2-2.3-.67-2.89-.34-.04,.02-.02,.06,.02,.04,1.08-.34,2.33-.72,2.87,.72,.36,.95,.47,2.22-.36,3.07-.74-.15-1.59-.05-2.22,.15-.08,.02,0,.07,.06,.06,1.13-.11,2.61-.43,3.34,.76,.61,.99,.32,2.67-.48,3.46-1.25-.23-2.27-.23-3.07,.13-.02,0-.03,.07,0,.07,.86-.22,2.27-.3,3.22,.17,.76,.38,1.19,1.13,1.03,2.24-1.31-.02-2.73,.41-3.7,1.21-.04,.03,.01,.08,.05,.06,1.24-.63,2.67-1.09,4.08-.96,1.95,.19,2.61,1.86,3.34,3.39,.07,.14,.12,.2,.05-.03Z"/><path class="cls-38" d="M79.21,203.45c-.09-.54-.46-.76-.95-.88-.39-.09-.94-.38-1.3-.56-.58-.29-.8-.12-.71,.32,.14,.73,.46,1.42,.74,2.05,.58,1.32,1.09,2.86,1.27,4.29,.05,.38,.33,.43,.3,.07-.09-1.04-.3-2.21,0-3.22,.21-.69,.78-1.3,.64-2.07Z"/><path class="cls-50" d="M101.68,185.68c-.01-.97-.61-1.67-1.36-2.23,.71-.69,1.53-1.61,1.46-2.67-.06-.85-.61-1.56-1.29-2.04,.94-.73,1.07-2.21-.07-3.18,.85-.85,1.12-2.57,.28-3.43,.99-1.09,.8-2.86-.34-3.79,1.64-.66,1.73-2.93,.29-3.84-.14-.09-.24-.04-.1,.06,.71,.49,1.06,1.38,.84,2.24-.16,.65-.78,1.32-1.23,1.52,1.35,1.09,1,3.06,.29,3.89,.54,.53,.59,1.34,.42,2.06-.1,.43-.44,.94-.66,1.29,.22,.1,1.34,1.72,.02,3.21,.64,.53,1.38,1.27,1.32,2.31-.05,.91-.99,1.79-1.51,2.46,.48,.32,1.4,1.12,1.41,2.15,.02,1.12-.91,1.93-1.65,2.65,.37,.35,1.2,1.93,.86,3.08-.27,.94-.97,1.61-1.85,2.07,.16,.24,.25,.78,.34,1.19,.17,.72-.04,1.22-.54,1.74-.71,.74-1.52,.75-2.41,.42-.03,.37-.41,1.74-1.37,2.07-.82,.28-1.46-.11-2.14-.51-.32,.69-1.18,1.19-1.96,1.17-.75-.02-1.53-.46-1.65-.88-.27,1.11-2.07,1.24-3.03,1.22-.96-.02-1.98-.47-2.28-1.16-.83,.45-1.83,.48-2.75,.34-1.12-.17-1.8-1.51-1.8-2.02-1,.1-1.97-.17-2.58-1.05-.24-.35-.33-.82-.33-1.25,0-.6,.18-1.05,.54-1.48,.02-.02-.02-.05-.04-.03-.83,.77-1.02,1.73-.42,2.78,.53,.92,1.66,1.44,2.7,1.19,.05,.84,.53,1.67,1.35,1.96,.95,.35,2.44,.33,3.3-.26,.47,1.06,1.82,1.32,2.87,1.21,.77-.08,2.19-.28,2.48-1.14,.43,1.25,3.52,.99,3.61-.43,.69,.57,1.55,.88,2.41,.47,.75-.35,1.31-1.18,1.17-2,.8,.57,1.86,.22,2.51-.45,.37-.39,.69-.98,.7-1.54,0-.6-.17-1.11-.5-1.52,2.26-.48,2.65-3.78,1.1-5.19,.87-.58,1.59-1.59,1.58-2.66Z"/><path class="cls-24" d="M97.62,165.24s-.72,.97-.53,1.93c.15,.8,.53,1.52,.53,1.52,0,0-.69,.39-.85,1.61-.11,.85,.61,1.65,.61,1.65,0,0-.7,.33-.9,1.49-.17,.98,.46,1.74,.46,1.74,0,0-.75,.69-.63,1.94,.09,.92,.88,1.54,.88,1.54,0,0-.81,.86-.95,2.28-.15,1.41,.73,2.73,.73,2.73,0,0-.58,1.07-.66,2.14-.08,1.07,.46,2.05,.46,2.05,0,0-1.12,1.17-1.27,2.04-.15,.88,0,1.7,0,1.7,0,0-.92,.19-1.22,.54-.29,.34-.39,.94-.39,.94,0,0-.68-.32-1.12,0-.44,.32-.84,1.15-.84,1.15,0,0-.58-.66-1.37-.37-.68,.25-1.13,1.29-1.13,1.29,0,0-.75-1.02-1.97-.93-1.22,.1-2.39,1.02-2.39,1.02,0,0-.49-1.02-1.36-1.22-.88-.19-1.59,.41-1.59,.41,0,0,.15-1.56-.88-2.61-.07-.32,.34-.56,.83-.03,.43,.46,.48,1.85,.48,1.85,0,0,.68-.47,1.57-.12,.93,.35,1.07,1.18,1.07,1.18,0,0,1.09-1,2.26-1.06,1.39-.07,1.85,.8,1.85,.8,0,0,.53-1.01,1.24-1.15,.79-.16,1.24,.26,1.24,.26,0,0,.26-.67,.69-.91s1.07-.07,1.07-.07c0,0,.16-.72,.55-.96,.39-.24,.9-.27,.9-.27,0,0-.16-.81,.21-1.96,.33-1.03,1.16-1.57,1.16-1.57,0,0-.53-.71-.49-1.91,.05-1.25,.72-2.24,.72-2.24,0,0-1.01-1.41-.82-2.72,.19-1.31,.89-2.18,.89-2.18,0,0-.93-.77-.89-1.75,.05-1.13,.54-1.78,.54-1.78,0,0-.54-1.08-.35-1.9,.19-.83,.96-1.41,.96-1.41,0,0-.82-.76-.67-1.62,.23-1.34,.83-1.59,.83-1.59,0,0-.66-.76-.46-1.69,.36-1.72,.99-1.75,.99-1.75Z"/><path class="cls-24" d="M81.34,192.99c-.2-.62-.86-.86-1.5-.83-.76-.05-1.64,.19-1.96,.85-.46,.95,.82,1.58,1.57,1.6,.78,.01,2.22-.6,1.88-1.62Z"/><path class="cls-38" d="M80.27,192.5c-.38-.29-1.11-.19-1.48,.03-.49,.29-.46,.86,.06,1.09,.46,.2,1.33,.15,1.64-.3,.26-.36,.07-.67-.23-.82Z"/><path class="cls-32" d="M78.96,192.79c-.12,.25,.1,.39,.33,.37,.2-.02,.6-.16,.53-.41-.09-.35-.77-.16-.86,.04Z"/><path class="cls-24" d="M84.44,195.01c-.22-.51-.65-.66-1.11-.63-.67,0-1.44,.44-1.69,.99-.14,.32-.17,.71,.07,.99,.31,.38,.87,.35,1.31,.31,.85-.06,1.85-.67,1.42-1.67Z"/><path class="cls-38" d="M83.58,194.64c-.45-.16-1.12,.17-1.4,.49-.38,.43-.17,.96,.4,1.01,.5,.05,1.31-.27,1.47-.79,.13-.43-.14-.66-.47-.71Z"/><path class="cls-32" d="M82.73,194.95c-.12,.25,.1,.39,.33,.37,.2-.02,.6-.16,.53-.41-.09-.35-.77-.16-.86,.04Z"/><path class="cls-24" d="M88.75,195.01c-.29-.52-.77-.64-1.26-.56-.72,.07-1.5,.63-1.71,1.25-.12,.36-.1,.78,.18,1.06,.37,.37,.98,.28,1.45,.2,.91-.16,1.93-.92,1.36-1.96Z"/><path class="cls-38" d="M87.78,194.71c-.5-.12-1.18,.3-1.45,.68-.36,.5-.08,1.06,.54,1.05,.55,0,1.38-.43,1.5-1.01,.1-.47-.22-.69-.59-.72Z"/><path class="cls-32" d="M86.9,195.13c-.1,.28,.15,.41,.4,.36,.21-.04,.63-.23,.53-.5-.13-.36-.85-.09-.93,.13Z"/><path class="cls-24" d="M91.56,194.37c-.35-.29-.73-.23-1.05-.03-.49,.26-.88,.87-.86,1.37,.02,.29,.15,.58,.43,.7,.37,.16,.77-.08,1.08-.27,.6-.37,1.1-1.2,.4-1.77Z"/><path class="cls-38" d="M90.79,194.43c-.39,.06-.75,.55-.83,.89-.11,.46,.25,.77,.68,.59,.38-.16,.85-.7,.77-1.14-.07-.36-.35-.43-.62-.34Z"/><path class="cls-32" d="M90.57,194.8c-.06,.17,.09,.25,.25,.22,.13-.03,.39-.14,.33-.31-.08-.22-.52-.06-.57,.08Z"/><path class="cls-24" d="M93.6,193.34c-.36-.16-.66-.02-.89,.22-.35,.33-.53,.94-.39,1.35,.08,.24,.26,.45,.52,.48,.35,.04,.62-.25,.84-.48,.41-.45,.63-1.26-.08-1.57Z"/><path class="cls-38" d="M92.97,193.57c-.31,.14-.5,.64-.48,.94,.02,.41,.39,.58,.71,.33,.28-.22,.55-.78,.37-1.14-.14-.29-.39-.27-.6-.14Z"/><path class="cls-32" d="M92.88,193.93c-.01,.16,.14,.19,.26,.13,.1-.05,.29-.21,.2-.33-.12-.17-.45,.08-.46,.2Z"/><path class="cls-24" d="M95.68,191.99c-.36-.16-.66-.02-.89,.22-.35,.33-.53,.94-.39,1.35,.08,.24,.26,.45,.52,.48,.35,.04,.62-.25,.84-.48,.41-.45,.63-1.26-.08-1.57Z"/><path class="cls-38" d="M95.05,192.23c-.31,.14-.5,.64-.48,.94,.02,.41,.39,.58,.71,.33,.28-.22,.55-.78,.37-1.14-.14-.29-.39-.27-.6-.14Z"/><path class="cls-32" d="M94.95,192.58c-.01,.16,.14,.19,.26,.13,.1-.05,.29-.21,.2-.33-.12-.17-.45,.08-.46,.2Z"/><path class="cls-24" d="M97.1,188.69c-.53-.05-.86,.24-1.05,.65-.31,.57-.3,1.42,.05,1.89,.2,.27,.52,.47,.87,.41,.46-.09,.7-.57,.88-.96,.35-.75,.3-1.88-.75-1.99Z"/><path class="cls-38" d="M96.38,189.25c-.35,.31-.38,1.02-.24,1.41,.19,.52,.74,.59,1.04,.14,.27-.4,.39-1.23,.02-1.61-.3-.31-.62-.19-.82,.07Z"/><path class="cls-32" d="M96.41,189.75c.05,.21,.26,.19,.38,.06,.11-.11,.28-.39,.12-.51-.22-.17-.55,.28-.51,.45Z"/><path class="cls-24" d="M98.01,183.81c-.6-.06-.98,.27-1.19,.73-.36,.64-.34,1.61,.05,2.14,.23,.31,.59,.53,.98,.46,.52-.1,.79-.65,.99-1.08,.39-.85,.34-2.13-.84-2.24Z"/><path class="cls-38" d="M97.2,184.44c-.39,.35-.43,1.15-.27,1.59,.21,.59,.83,.67,1.18,.16,.31-.45,.44-1.39,.02-1.82-.34-.35-.7-.21-.93,.08Z"/><path class="cls-32" d="M97.23,185c.06,.24,.29,.21,.43,.07,.13-.12,.32-.44,.14-.57-.25-.19-.62,.32-.57,.51Z"/><path class="cls-24" d="M98.12,178.93c-.65-.06-1.05,.29-1.28,.78-.38,.69-.37,1.73,.06,2.3,.24,.33,.64,.58,1.06,.5,.56-.1,.85-.7,1.07-1.17,.42-.91,.36-2.29-.91-2.42Z"/><path class="cls-38" d="M97.25,179.6c-.42,.37-.46,1.24-.29,1.71,.23,.63,.9,.72,1.27,.17,.33-.49,.47-1.5,.02-1.96-.36-.38-.75-.23-1,.08Z"/><path class="cls-32" d="M97.28,180.21c.06,.26,.31,.23,.47,.07,.14-.13,.35-.47,.15-.62-.27-.2-.66,.34-.61,.54Z"/><path class="cls-24" d="M97.84,175.5c-.47-.05-.76,.21-.93,.57-.28,.5-.27,1.26,.04,1.67,.18,.24,.46,.42,.77,.36,.41-.08,.62-.51,.78-.85,.31-.66,.26-1.67-.66-1.76Z"/><path class="cls-38" d="M97.21,175.99c-.31,.27-.34,.9-.21,1.25,.17,.46,.65,.52,.92,.12,.24-.36,.34-1.09,.02-1.43-.26-.28-.55-.17-.73,.06Z"/><path class="cls-32" d="M97.23,176.43c.04,.19,.23,.17,.34,.05,.1-.1,.25-.34,.11-.45-.2-.15-.48,.25-.45,.4Z"/><path class="cls-24" d="M98.12,172.19c-.47-.05-.76,.21-.93,.57-.28,.5-.27,1.26,.04,1.67,.18,.24,.46,.42,.77,.36,.41-.08,.62-.51,.78-.85,.31-.66,.26-1.67-.66-1.76Z"/><path class="cls-38" d="M97.49,172.69c-.31,.27-.34,.9-.21,1.25,.17,.46,.65,.52,.92,.12,.24-.36,.34-1.09,.02-1.43-.26-.28-.55-.17-.73,.06Z"/><path class="cls-32" d="M97.51,173.13c.04,.19,.23,.17,.34,.05,.1-.1,.25-.34,.11-.45-.2-.15-.48,.25-.45,.4Z"/><path class="cls-24" d="M98.33,168.89c-.47-.05-.76,.21-.93,.57-.28,.5-.27,1.26,.04,1.67,.18,.24,.46,.42,.77,.36,.41-.08,.62-.51,.78-.85,.31-.66,.26-1.67-.66-1.76Z"/><path class="cls-38" d="M97.69,169.38c-.31,.27-.34,.9-.21,1.25,.17,.46,.65,.52,.92,.12,.24-.36,.34-1.09,.02-1.43-.26-.28-.55-.17-.73,.06Z"/><path class="cls-32" d="M97.72,169.82c.04,.19,.23,.17,.34,.05,.1-.1,.25-.34,.11-.45-.2-.15-.48,.25-.45,.4Z"/><path class="cls-24" d="M98.75,165.03c-.47-.05-.76,.21-.93,.57-.28,.5-.27,1.26,.04,1.67,.18,.24,.46,.42,.77,.36,.41-.08,.62-.51,.78-.85,.31-.66,.26-1.67-.66-1.76Z"/><path class="cls-38" d="M98.12,165.52c-.31,.27-.34,.9-.21,1.25,.17,.46,.65,.52,.92,.12,.24-.36,.34-1.09,.02-1.43-.26-.28-.55-.17-.73,.06Z"/><path class="cls-32" d="M98.14,165.96c.04,.19,.23,.17,.34,.05,.1-.1,.25-.34,.11-.45-.2-.15-.48,.25-.45,.4Z"/><path class="cls-24" d="M56.57,171.46c-.15-.21-.62-.34-.84-.18-.22,.11-.37,.35-.34,.65,.04,.44,.28,1.37,.91,.93,.4-.28,.56-.99,.27-1.39Z"/><path class="cls-24" d="M57.24,174.74c-.14-.25-.38-.53-.7-.52-.15,0-.27,.06-.36,.15-.19,.13-.23,.36-.19,.58,.05,.27,.14,.53,.18,.81,.02,.18,.04,.35,.11,.52,.09,.21,.29,.48,.55,.39,.31-.11,.55-.57,.61-.87,.07-.36-.03-.75-.2-1.07Z"/><path class="cls-24" d="M57.25,178.46c-.19-.2-.52-.33-.76-.12,0,0,0,.01-.02,.02,0,0-.02,0-.02,0-.3,.16-.19,.57-.16,.83,.04,.34,.19,2.31,.99,1.62,.72-.62,.58-1.72-.03-2.36Z"/><path class="cls-24" d="M59.39,186.63c-.37-.49-1.37-.92-1.73-.31-.21,.23-.32,.58-.2,.91,.17,.46,.64,.86,.95,1.23,.21,.25,.56,.88,.99,.73,.38-.13,.46-.71,.47-1.05,.02-.53-.15-1.07-.48-1.5Z"/><path class="cls-24" d="M57.48,183.17c-.19-.13-.47-.25-.69-.1-.04,.02-.07,.06-.1,.1-.14,.11-.19,.31-.16,.47,.05,.27,.29,.48,.49,.64,.19,.15,.42,.21,.63,.06,.47-.33,.19-.92-.18-1.18Z"/><path class="cls-24" d="M84.05,191.19c-.3-.37-1.32-.35-1.34,.24,0,0,0,0,0,0-.03,.1-.03,.21,.03,.31,.14,.24,.49,.33,.75,.35,.25,.02,.52-.03,.64-.28,.09-.2,.06-.45-.08-.62Z"/><path class="cls-24" d="M86.25,191.89c-.1-.04-.19-.04-.29-.02-.14-.01-.28,.02-.41,.11-.16,.1-.38,.32-.34,.53,.04,.23,.32,.23,.5,.2,.22-.03,.63-.08,.75-.31,.1-.19,0-.43-.2-.51Z"/><path class="cls-24" d="M89,192.59c-.17-.11-.39-.17-.59-.15-.27-.03-.61,.07-.65,.34-.02,.13,.06,.22,.18,.25,.25,.06,.54,.05,.79,.06,.14,0,.3,0,.39-.13,.09-.14,0-.29-.12-.37Z"/><path class="cls-24" d="M90.34,192.01c-.11-.01-.21,.01-.31,.08,0,0-.01,.01-.02,.02-.16,.08-.24,.28-.2,.48,.01,.07,.1,.12,.17,.09,.24-.08,.41-.25,.5-.48,.04-.1-.06-.17-.14-.18Z"/><path class="cls-24" d="M91.91,191.54c-.12-.23-.48-.09-.6,.11-.11,.13-.16,.34-.15,.49,0,.11,.12,.17,.21,.12,.2-.1,.69-.45,.54-.73Z"/><path class="cls-24" d="M92.95,190.61s-.09-.04-.13-.04c-.02-.02-.04-.02-.07-.01-.02,0-.03,.02-.05,.03-.03,.01-.06,.03-.08,.05,0,0,0,0,0,0-.2,.16-.26,.39-.22,.67,.02,.1,.14,.13,.22,.09,.25-.14,.39-.38,.4-.67,0-.05-.03-.11-.08-.13Z"/><path class="cls-24" d="M94.54,188.6c-.16-.11-.48-.09-.86,.61-.1,.18-.15,.45-.07,.65,.06,.15,.23,.26,.38,.16,.18-.11,.93-1.17,.55-1.42Z"/><path class="cls-24" d="M94.55,184.77c-.99-.02-.87,2.24-.26,2.38,.11,.02,.19-.06,.17-.17-.1-.53,.26-.89,.34-1.4,.04-.27,.09-.81-.24-.81Z"/><path class="cls-24" d="M94.55,180.72c-1.08,.08-1.06,2.87-.27,3.09,.11,.03,.2-.07,.18-.18-.16-.77,.39-1.22,.48-1.93,.04-.34,.02-1.01-.39-.98Z"/><path class="cls-24" d="M94.58,176.84c-.54-.23-.9,.69-.95,1.05-.06,.44,.15,1.7,.77,1.53,.2-.05,.12-.31,.09-.48-.04-.23-.15-.46-.12-.71,.02-.17,.15-.36,.23-.52,.06-.13,.13-.26,.16-.4,.03-.18,0-.4-.19-.49Z"/><path class="cls-24" d="M94.79,173.27c-.34-.36-.76,.23-.9,.5-.28,.53-.48,1.62,.16,1.96,.21,.12,.3-.14,.27-.42-.03-.33-.03-.63,.12-.94,.1-.19,.26-.34,.36-.52,.1-.18,.15-.41-.01-.59Z"/><path class="cls-24" d="M95.26,169.76c-.17-.64-1.06-.1-1.24,.27-.21,.43-.46,1.29,.21,2.01,.12,.13,.45,.28,.46,.07,.02-.31-.15-.6,.1-1.24,.13-.32,.58-.72,.47-1.1Z"/><path class="cls-24" d="M95.58,165.42c-.41-.86-1.45,.36-1.62,.76-.12,.3-.31,1.22-.05,1.9,.21,.52,.54,.58,.65,.29,.11-.28,.67-1.59,.81-1.89,.13-.27,.35-.76,.2-1.06Z"/></g></svg>