<?xml version="1.0" encoding="utf-8"?>
<svg xmlns="http://www.w3.org/2000/svg" viewBox="87.4544 75.2355 21.7876 46.9206" width="21.7876px" height="46.9206px"><defs><style>
      .cls-1 {
        fill: #d6734c;
      }

      .cls-2, .cls-3, .cls-4, .cls-5, .cls-6, .cls-7, .cls-8, .cls-9, .cls-10, .cls-11, .cls-12, .cls-13, .cls-14, .cls-15, .cls-16, .cls-17 {
        opacity: .5;
      }

      .cls-2, .cls-18 {
        fill: #ea8b60;
      }

      .cls-19, .cls-7, .cls-20 {
        fill: #ff7b94;
      }

      .cls-21 {
        fill: #e8426a;
      }

      .cls-22 {
        fill: #dd3e4e;
      }

      .cls-23 {
        fill: #e23354;
      }

      .cls-3, .cls-24 {
        fill: #f4996c;
      }

      .cls-4, .cls-25, .cls-26 {
        fill: #ff9cb4;
      }

      .cls-27 {
        fill: #59a038;
      }

      .cls-5, .cls-28 {
        fill: #ba5b5b;
      }

      .cls-29 {
        fill: #ffb38d;
      }

      .cls-30 {
        fill: #4174e5;
      }

      .cls-6, .cls-31, .cls-32 {
        fill: #ffc1a6;
      }

      .cls-33 {
        fill: #bf2a26;
      }

      .cls-34 {
        fill: #b55454;
        opacity: .6;
      }

      .cls-31, .cls-35, .cls-25, .cls-20, .cls-28 {
        opacity: .7;
      }

      .cls-36 {
        fill: #892c29;
      }

      .cls-8 {
        fill: #ed5551;
      }

      .cls-35, .cls-37 {
        fill: #ff5f76;
      }

      .cls-38 {
        fill: #fea97a;
      }

      .cls-39 {
        fill: #ffcdbb;
      }

      .cls-40 {
        fill: #2a66d1;
      }

      .cls-41 {
        fill: #e5937a;
      }

      .cls-9 {
        fill: #ffa9be;
      }

      .cls-42 {
        fill: #ce392e;
      }

      .cls-43 {
        fill: #d63048;
      }

      .cls-10 {
        fill: #e54c41;
      }

      .cls-44 {
        fill: #e08686;
      }

      .cls-45 {
        fill: #528bef;
      }

      .cls-46 {
        fill: #bc2f40;
      }

      .cls-47 {
        fill: #96362f;
      }

      .cls-11 {
        fill: #ff9f9f;
      }

      .cls-12 {
        fill: #ef566d;
      }

      .cls-48 {
        fill: #e83f57;
      }

      .cls-49 {
        fill: #dd7b54;
      }

      .cls-50 {
        fill: #c9633f;
      }

      .cls-51 {
        fill: #a84848;
      }

      .cls-13 {
        fill: #f46060;
      }

      .cls-52 {
        fill: #7c1e1e;
      }

      .cls-53 {
        fill: #609cf4;
      }

      .cls-54 {
        fill: #d37863;
      }

      .cls-14, .cls-55 {
        fill: #ffd0c0;
      }

      .cls-56 {
        fill: #f4bba6;
      }

      .cls-57 {
        fill: #a03f3d;
      }

      .cls-58 {
        fill: #d64532;
      }

      .cls-15 {
        fill: #ffbbce;
      }

      .cls-16 {
        fill: #f9738d;
      }

      .cls-59 {
        fill: #f44d5d;
      }

      .cls-17 {
        fill: #ffccdc;
      }

      .cls-60 {
        fill: #f2aa91;
      }

      .cls-61 {
        fill: #ce1743;
      }

      .cls-62 {
        fill: #cc173a;
      }

      .cls-63 {
        fill: #70b753;
      }

      .cls-64 {
        fill: #ffe7e1;
      }

      .cls-65 {
        fill: #e88b62;
      }

      .cls-66 {
        fill: #d6253f;
      }
    </style></defs><g transform="matrix(1, 0, 0, 1, 0.8982086181640341, 2.2455270290374756)" id="object-2"><path class="cls-62" d="M96.14,88.92s1.33-1.39,3.15-2.46c2.19-1.29,6.17-2.51,6.17-2.51,0,0,.67,1.51,.71,2.75,.05,1.24-3.15,2.62-3.15,2.62,0,0-5.41,2.43-6.88-.4Z"/><g><path class="cls-62" d="M101.17,74.36c-.17-.29-.38-.51-.61-.67-1.01,1.18-1.18,3.04-.26,4.32,.04,.05,.09,.07,.14,.06-.1-.29-.38-1.44,.73-3.71Z"/><path class="cls-66" d="M99.27,76.04c-.03,.39-.02,1.25,.01,1.53,0,0-.36-.82-.39-1.12-.16-.67-.15-1.34,.05-2.06,.08-.28,.18-.59,.31-.89-.15,.06-.3,.15-.42,.27-.99,2.01-.6,4.52-.6,4.52l2.25-.14s-.01-.03-.03-.08c-.05,0-.1-.01-.14-.06-.92-1.27-.75-3.13,.26-4.32-.14-.1-.29-.17-.44-.22-.19,.29-.36,.61-.49,.94-.2,.52-.32,1.06-.36,1.61Z"/><g><path class="cls-23" d="M99.09,75.46c-.06-.63,.08-1.38,.37-2.02-.07,.01-.14,.03-.21,.06-.13,.3-.23,.61-.31,.89-.19,.72-.2,1.39-.05,2.06,.04,.3,.39,1.11,.39,1.12-.04-.28-.05-1.14-.01-1.53,.05-.55,.17-1.1,.36-1.61,.13-.34,.3-.65,.49-.94-.12-.04-.23-.05-.35-.06-.11,.2-.22,.41-.3,.63-.17,.46-.39,1.42-.39,1.41Z"/><path class="cls-21" d="M99.46,73.44c-.29,.64-.43,1.4-.37,2.02,0,0,.22-.95,.39-1.41,.08-.22,.19-.43,.3-.63-.11,0-.22,0-.32,.02Z"/></g></g><g><path class="cls-66" d="M100.67,81.02c-.87-.56-1.95-.76-2.88-.24-.86,.47-1.4,1.37-1.63,2.3-.24,.94-.31,2.81-.23,3.29-.25-.36-.46-1.18-.46-2.32,0-3.8,1.49-5.83,4.27-5.49,1.52,.18,2.6,.99,3.48,2.24,.17,.24,.64,1.1,.95,1.76l.28-.14s-.81-2.51-2.72-3.75c-2.68-1.75-4.69-1.2-6.15,.3s-1.47,9.06-1.47,9.06l1.47,2.28,1.13-.97c.02-.95,.06-1.9,.08-2.83,.02-.86,.02-1.72,.05-2.58,.02-.58,.07-1.18,.37-1.69,.53-.88,1.65-1.15,2.6-.91,1.1,.28,1.94,1.18,2.46,2.15l.3-.15c-.29-.54-.65-1.12-.81-1.3-.33-.38-.69-.74-1.11-1.01Z"/><path class="cls-66" d="M103.22,80.79c-.88-1.24-1.96-2.05-3.48-2.24-2.78-.34-4.27,1.68-4.27,5.49,0,1.14,.21,1.96,.46,2.32-.07-.48,0-2.35,.23-3.29,.23-.93,.77-1.82,1.63-2.3,.93-.52,2.01-.32,2.88,.24,.42,.27,.79,.63,1.11,1.01,.15,.18,.52,.76,.81,1.3l1.58-.79c-.32-.65-.78-1.51-.95-1.76Z"/><path class="cls-23" d="M100.5,80.06c-1.31-.76-2.84-.54-4.27,1.2,.35-1.73,2.5-2.42,4.02-2.03,1.54,.4,3.09,1.91,3.45,3.55l.47-.23c-.32-.65-.78-1.51-.95-1.76-.88-1.24-1.96-2.05-3.48-2.24-2.78-.34-4.27,1.68-4.27,5.49,0,1.14,.21,1.96,.46,2.32-.07-.48,0-2.35,.23-3.29,.23-.93,.77-1.82,1.63-2.3,.93-.52,2.01-.32,2.88,.24,.42,.27,.79,.63,1.11,1.01,.15,.18,.52,.76,.81,1.3l.43-.21c-.48-1.21-1.36-2.39-2.52-3.06Z"/><path class="cls-21" d="M100.25,79.23c-1.52-.39-3.67,.3-4.02,2.03,1.43-1.74,2.97-1.96,4.27-1.2,1.16,.67,2.04,1.85,2.52,3.06l.9-.45c-.94-1.9-2.12-3.05-3.67-3.44Z"/><path class="cls-62" d="M97.74,83.8c0-1.62,1.81-2.33,2.76-1.4,.95,.92,1.14,1.4,1.14,1.4l.64-.32c-.52-.97-1.36-1.88-2.46-2.15-.95-.24-2.07,.02-2.6,.91-.3,.51-.35,1.11-.37,1.69-.03,.86-.04,1.72-.05,2.58-.02,.93-.06,1.88-.08,2.83l1.1-.94s-.07-2.96-.07-4.58Z"/></g><g><g><path class="cls-59" d="M107.04,99.55c-.9-1.9-2.32-3.02-3.81-4.41-2.6-2.44-.61-4.93,1.94-6.26,.1-.05,1.95-.97,2.65-1.39-.03-.61-.06-1.22-.24-1.77-2.2,.62-6.88,2.12-8.82,3.11-1.99,1.01-3.78,2.37-5.24,4.06-3.21,3.75-4.38,9-3.19,13.78,.61,2.46,1.86,4.64,3.47,6.58,1.69,2.03,3.8,4.48,6.7,4.39,2.69-.09,4.55-3.21,5.68-5.31,.94-1.75,1.36-3.58,1.9-5.41,.3-2.5,.03-5.04-1.06-7.36Z"/><path class="cls-48" d="M100.52,117.63c-2.89,.09-5.01-2.36-6.7-4.39-1.61-1.94-2.86-4.12-3.47-6.58-1.19-4.78-.02-10.03,3.19-13.78,1.45-1.7,3.25-3.05,5.24-4.06,1.94-.99,6.61-2.49,8.82-3.11-.1-.31-.25-.6-.48-.87-1.5,.3-6.52,1.93-8.14,2.75-1.88,.96-3.78,2.06-5.42,3.41-1.47,1.22-2.65,2.76-3.69,4.37-1.76,2.72-2.35,5.67-2.35,7.67,0,3.4,1.68,6.51,2.62,7.99,.73,1.22,1.57,2.39,2.54,3.49,1.91,2.18,5.82,6.29,9.1,4.93,1.38-.57,2.17-1.98,2.87-3.21,1.06-1.86,2.01-3.8,2.67-5.84,.37-1.14,.64-2.31,.78-3.5-.54,1.84-.96,3.66-1.9,5.41-1.13,2.1-3,5.22-5.68,5.31Z"/></g><path class="cls-35" d="M107.07,102.57c-.37-2.47-1.91-4.6-3.68-6.29-.96-.91-2.04-1.72-3.22-2.13-.71-.31-5.48-.57-7.05,4.7-1.47,4.94-.23,10.41,3.14,14.33,1.43,1.66,3.5,2.6,5.62,1.48,1.99-1.05,3.09-2.36,3.89-4.39,.93-2.34,1.67-5.18,1.3-7.7Z"/><path class="cls-7" d="M102.95,96.72c-1.17-1.02-3.8-2.61-5.77-.89-1.29,1.13-1.14,3.86-.98,5.45,.18,1.85,.63,3.67,1.36,5.38,.63,1.49,1.47,3.24,2.92,4.11,3.11,1.86,5.4-1.76,5.81-4.42,.54-3.53-.62-7.25-3.33-9.63Z"/><path class="cls-20" d="M103.79,98.79c-.54-1.06-2.68-3.27-5.21-2.73-1,.21-.93,1.53-.68,2.4,.44,1.55,1.28,3.13,2.23,4.42,.61,.84,1.4,1.94,2.59,1.72,2.41-.46,1.86-4.28,1.08-5.81Z"/><path class="cls-48" d="M103.31,89.15c-1.19,.34-2.99,1.1-3.29,2.46-.31,1.4,1.07,2.57,2.18,3.11,.08,.04,.14,0,.17-.05,.13,.06,.31-.09,.22-.24-.51-.9-.7-1.93-.48-2.95,.19-.86,.69-1.46,1.14-2.18,.01-.02-.01-.05-.04-.04,0,0,0,0-.01,0,.04-.03,.08-.05,.11-.08,.02-.01,0-.04-.01-.03Z"/></g><g><path class="cls-40" d="M95.11,81.88c.42-1.75,2.56-2.71,3.25-2.98,.02-.16,.02-.31,.01-.47-1.89,.51-3.6,2-4.16,3.9-.36,1.23-.33,2.61-.31,3.87,.02,1.3,.14,2.59,.35,3.87,.03,.18,.07,.38,.12,.57l.71-.31s-.81-5.06,.02-8.45Z"/><path class="cls-30" d="M94.18,81.12c-.32,.56-.56,1.16-.73,1.78-.35,1.81-.04,3.66,.01,5.57,0,.05-.07,.05-.08,.01-.01-.04-.03-.08-.04-.12,0,0,0,0-.01-.01-.04-.09-.08-.18-.12-.27,0,.15,0,.3,.01,.45,0,.25-.38,.25-.39,0-.04-.82-.09-1.64-.1-2.47-.04-.54-.04-6.29,.06-8.26,.08-1.58,.15-3.18,.48-4.72-.23,.08-.44,.21-.59,.41,0,0-.53,5.93-.52,11.02,0,2.09,.42,6.93,.42,6.93l1.79-.79c-.06-.19-.09-.39-.12-.57-.21-1.28-.33-2.57-.35-3.87-.02-1.27-.05-2.65,.31-3.87,.56-1.9,2.27-3.39,4.16-3.9,0-.23-.05-.45-.11-.67-1.71,.62-3.12,1.65-4.08,3.35Z"/><path class="cls-30" d="M93.46,76.76c-.06,1.04-.09,2.07-.11,3.11,0,.34,0,.69,0,1.04,.04-.1,.95-1.78,2.37-2.71,.62-.41,1.4-.85,2.19-1.11,.01,0,.03-.01,.04-.02-.1-.14-.22-.26-.35-.37,0,0-1.79,.42-2.77,1.38,0,0-.55-1.09-.52-2.38,.02-.84,.17-1.93,.28-2.6-.2-.07-.41-.1-.63-.11-.05,.2-.1,.41-.14,.61-.19,1.04-.28,2.1-.34,3.16Z"/><path class="cls-45" d="M94.12,80.28c.79-1.41,2.31-2.44,3.86-3.12-.02-.03-.03-.06-.05-.09-.01,0-.03,.01-.04,.02-.78,.26-1.57,.7-2.19,1.11-1.42,.93-2.33,2.61-2.37,2.71,0-.35,0-.69,0-1.04,.02-1.04,.06-2.07,.11-3.11,.06-1.06,.15-2.12,.34-3.16,.04-.21,.09-.41,.14-.61-.23,0-.45,.02-.66,.09-.33,1.55-.4,3.15-.48,4.72-.11,1.97-.11,7.72-.06,8.26,.01,.83,.06,1.65,.1,2.47,.01,.25,.39,.25,.39,0,0-.15,0-.3-.01-.45,.04,.09,.08,.18,.12,.27,0,0,0,0,.01,.01,.01,.04,.02,.08,.04,.12,.02,.04,.08,.04,.08-.01-.06-1.91-.37-3.76-.01-5.57,.17-.62,.41-1.21,.73-1.78,.96-1.7,2.37-2.74,4.08-3.35-.01-.05-.04-.1-.06-.15-.49,.16-.96,.36-1.43,.61-.94,.52-2.08,1.52-2.65,2.05Z"/><path class="cls-53" d="M94.12,80.28c.58-.53,1.71-1.53,2.65-2.05,.47-.26,.94-.45,1.43-.61-.06-.16-.13-.32-.22-.46-1.56,.68-3.08,1.71-3.86,3.12Z"/><path class="cls-40" d="M94.81,78.08c-.09-1.75,.45-4.53,.45-4.53-.15-.19-.4-.35-.69-.45-.11,.67-.26,1.76-.28,2.6-.02,1.3,.52,2.38,.52,2.38Z"/></g><path class="cls-25" d="M101.91,97.64c-.35-.64-3.03-2.12-3.18-.38-.05,.51,.43,1.11,.71,1.52,.24,.36,.52,.52,.96,.48,.75-.06,1.98-.74,1.51-1.62Z"/><path class="cls-25" d="M103.8,100.92c-.1-.5-.53-1.29-1.05-1.49-.34-.13-.71,.04-.92,.33-.57,.81,.11,2.24,.19,2.72,.06,.34,.28,.96,.65,1.09,.41,.15,.75-.44,.89-.74,.25-.56,.37-1.31,.25-1.91Z"/><g><path class="cls-62" d="M104.47,76.39c-.04-.37-.16-.69-.33-.94-1.26,.65-2.41,2.41-1.78,3.67,.15-.53,.63-1.5,2.11-2.74Z"/><path class="cls-66" d="M101.05,77.81c-.12-.73,.98-2.05,2.05-2.99-.17-.01-.35,0-.53,.07-1.37,1.13-2.3,2.82-2.63,3.47,.87,.04,1.71,.45,2.36,1.05,0-.07,.03-.16,.06-.28-.63-1.27,.52-3.02,1.78-3.67-.1-.14-.21-.26-.34-.36-1.03,.77-1.95,1.69-2.75,2.72Z"/><g><path class="cls-23" d="M101.8,76.55c.24-.57,.7-1.06,1.16-1.46,.09-.08,.18-.16,.29-.25-.05,0-.1-.02-.15-.02-1.06,.94-2.17,2.26-2.05,2.99,.8-1.02,1.72-1.95,2.75-2.72-.06-.05-.12-.09-.19-.12-.14,.09-.27,.18-.41,.29-.52,.38-.91,.74-1.4,1.29Z"/><path class="cls-21" d="M102.96,75.09c-.46,.4-.93,.89-1.16,1.46,.48-.55,.88-.91,1.4-1.29,.14-.11,.28-.2,.41-.29-.12-.06-.24-.11-.37-.13-.1,.09-.2,.17-.29,.25Z"/></g></g><path class="cls-30" d="M105.53,107.9c-.05-.62-.23-1.34-.25-1.88,.41,.41,.82,.77,1.19,1.14,.74,.74,1.39,1.69,1.44,2.67,.31-.25,.15-.59,.15-.6-.1-.38-.3-.82-.51-1.14-.42-.63-.97-1.14-1.52-1.64-.61-.56-1.17-1.27-1.3-2.06-.12-.69,.11-1.05,.14-1.78,.05-1.4-.34-2.78-.88-4.06-.61-1.44-1.34-2.89-2.11-4.25,0-.02-.03,0-.03,.01,.47,1.49,1.36,2.86,1.95,4.3,.62,1.51,1.08,3.19,.66,4.8-.26,.99-1.63,1.92-1.68,1.95-.54,.34-1.2,.27-1.74,.65-.47,.33-.81,.8-1.06,1.31-.28,.58-.44,1.21-.62,1.82-.25,.86-.62,1.58-1.09,2.33-.01,.02,.01,.05,.04,.04,.99-.75,1.16-2.25,1.53-3.35,.27-.81,.69-1.68,1.47-2.11,.34-.19,.8-.18,1.17-.32-.61,.51-1.14,1.08-1.56,1.77-.48,.78-.82,1.64-1.1,2.52-.28,.9,.15,4.2-.06,5.45-.05,.28,.08,.34,.16,.02,.24-1-.12-4.64,.2-5.62,.33-1.01,.77-2,1.42-2.85,.59-.77,1.36-1.29,2.08-1.92,.21-.18,.4-.38,.57-.59-.24,.58-.69,1.92-.82,2.92-.18,1.4,.04,3.71,.91,5,.17,.25,.15,.03,.09-.09-.82-1.51-.97-3.99-.62-5.59,.14-.65,.48-1.44,.7-2.06,.18,.35,.29,.7,.57,1,.15,.96,.24,1.96,.43,2.91,.15,.77,.49,1.7,1.16,2.15,.04,.03,.11-.03,.08-.08-.68-.89-1.08-1.61-1.16-2.76Z"/><path class="cls-30" d="M105.94,99.81c-.67-1.24-.97-2.87-2.15-3.77-.03-.02-.05,.02-.04,.04,.31,.64,.81,1.19,1.14,1.83,.34,.65,.53,1.36,.87,2.01,.56,1.07,1.78,1.6,2.14,2.8,.04,.12,.21,.07,.19-.05-.21-1.24-1.58-1.81-2.14-2.85Z"/><path class="cls-62" d="M96.39,109.97c-.84-.98-2.16-1.46-3.31-2-.25-.76-.57-1.42-.99-2.04-.64-.96-1.29-1.87-1.61-3-.17-.61-.25-1.21-.27-1.8,.31,.4,.79,.55,1.24,.81,.87,.51,1.11,1.53,1.43,2.41,.44,1.18,.98,2.67,2.15,3.31,.06,.03,.13-.05,.08-.1-.55-.55-1.03-1.09-1.39-1.8-.37-.73-.63-1.52-.93-2.29-.21-.55-.44-1.12-.91-1.5,1.28,.06,1.58,1.23,2.23,2.19,.47,.69,1.36,.89,1.81,1.59,.07,.11,.17,.09,.11-.02-.18-.41-.51-.62-.86-.87-.71-.5-1.04-1.1-1.46-1.83-.37-.64-1.35-1.64-2.16-1.27-.51-.35-.93-.36-1.35-.84-.02-1.88,.52-4.47,1.1-6.38,.01-.04-.31,.32-.32,.36-.49,1.29-.81,2.89-.96,4.31-.26,.5-1.58,2.14-1.91,2.36-.34,.22-.47,.2-.61,.36-.14,.16-.21,.28-.05,.45,.13-.25,.4-.35,.69-.56,.22-.15,.42-.31,.61-.49-.21,.48-.35,.98-.41,1.5-.16,1.26,.17,2.73,.84,3.81,.04,.07,.15,.02,.13-.06-.17-.69-.52-1.33-.66-2.03-.16-.77-.16-1.56,.03-2.33,.16-.65,.45-1.26,.84-1.81,.15-.21,.31-.39,.44-.6-.06,.87-.03,1.74,.12,2.58,.11,.57,.3,1.1,.53,1.6,.27,1.37,0,2.68,.12,4.07,.1,1.18,.73,2.34,1.6,3.13,.06,.05,.17-.02,.12-.09-.36-.54-.8-1-1.09-1.58-.38-.76-.46-1.56-.44-2.39,.02-.8,.15-1.68,.02-2.5,.47,.85,1.15,1.59,1.49,2.5,.3,.8,.57,1.72,1.01,2.42,.48,.77,1.35,1.29,1.92,1.97,.82,.97,.34,2.02,.26,3.17-.06,.91,.21,1.73,.9,2.36,.11,.1,.13,0,.05-.12-.34-.58-.66-1-.69-1.71-.02-.45,.13-1.1,.18-1.55,.1-.86,.11-1.5-.43-2.21-.57-.76-1.37-1.27-1.9-2.07-.25-.38-.39-.68-.56-1.1,.41,.18,1.85,.77,2.62,1.49,.94,.86,1.33,1.86,1.46,3.17,0,.06,.11,.06,.12,0,.17-1.06-.33-2.19-1.01-2.98Z"/><g><path class="cls-22" d="M104.09,93.61c.58,.56,1.26,1.01,1.82,1.59,.53,.55,.99,1.1,1.6,1.45,1.11-2.16,.73-5.79-.9-7.35-.48-.46-1-.68-1.52-.73-1.93,1.06-2.9,3.19-.99,5.02Z"/><g><path class="cls-43" d="M104.13,94.81c.68,.45,1.2,.81,1.72,1.48,.38,.49,.66,.92,1,1.3,.06-.05,.11-.11,.17-.17,.19-.22,.35-.47,.5-.75-.62-.36-1.08-.91-1.6-1.45-.56-.58-1.24-1.03-1.82-1.59-1.91-1.84-.94-3.96,.99-5.02-.41-.04-.81,.03-1.2,.18-2.06,1.75-2.26,4.37,.25,6.04Z"/><path class="cls-66" d="M101.36,93.65c.57,1.6,2.3,2.26,3.45,3.37,.68,.66,1.29,1.24,2.04,.56-.34-.37-.62-.81-1-1.3-.51-.67-1.04-1.02-1.72-1.48-2.51-1.67-2.31-4.29-.25-6.04-.54,.2-1.04,.55-1.45,.98-.96,1-1.58,2.48-1.07,3.91Z"/></g><path class="cls-12" d="M107.27,90.83c-.26-.64-1.38-2.02-2.22-1.58-.24,.08-.41,.25-.38,.56,.04,.34,.43,.66,.59,.92,.35,.57,.42,1.14,.46,1.79,.02,.41,.49,3.58,1.45,2.89,.5-.36,.48-1.5,.49-2.04,.02-.85-.07-1.76-.39-2.55Z"/><path class="cls-16" d="M106.95,91.11c-.22-.68-.84-2.31-1.77-2.23-.38,.03-.17,.38,.42,1.04,.51,.57,.74,1.32,.9,2.09,.15,.75-.04,1.94,.28,2.86,.06,.18,.33,.1,.44-.06,.61-.89,.02-2.79-.27-3.7Z"/><path class="cls-9" d="M107.08,92.74c-.1-.19-.23-.17-.16,.18,.08,.35-.12,.87-.02,1.33,.07,.32,.24,.25,.31,0,.13-.45,.1-1.08-.13-1.51Z"/><path class="cls-9" d="M106.06,89.49c-.09-.15-.34-.42-.53-.45-.13-.02-.22,.08-.21,.21,.01,.15,.67,.74,.85,1,.07,.1,.15,.11,.15-.06,0-.25-.13-.47-.26-.69Z"/></g><g><path class="cls-22" d="M88.63,94.15c.63-.68,1.17-1.33,1.92-1.9,.82-.63,1.74-1.22,2.3-2.11,.87-1.38-.33-2.31-1.58-2.56-2.23,.35-4.02,2.3-4.53,4.61-.12,.53-.19,1.11-.17,1.7,0,0,0,0,0,0-.03,.28-.01,.59,.05,.9,.04,.01,.08,.03,.12,.04,.75,.19,1.4-.15,1.9-.69Z"/><g><path class="cls-43" d="M89.33,95.07c.58-.89,1.01-1.69,1.81-2.42,.84-.77,2.06-1.36,2.61-2.39,.78-1.44-.42-2.32-1.63-2.74-.29,0-.58,.01-.86,.05,1.25,.25,2.45,1.17,1.58,2.56-.56,.89-1.48,1.48-2.3,2.11-.74,.57-1.29,1.22-1.92,1.9-.49,.54-1.15,.88-1.9,.69-.04-.01-.08-.03-.12-.04,.06,.32,.17,.65,.31,.96,.12,.07,.25,.12,.4,.16,.8,.2,1.57-.18,2.01-.84Z"/><path class="cls-66" d="M88.65,97.22c.53,.08,.87-.14,1.22-.52,.7-.76,1.18-1.79,1.85-2.6,.72-.86,1.55-1.6,2.35-2.38,.51-.49,1.37-1.17,1.5-1.91,.18-1.05-1.31-1.81-2.13-2.07-.45-.14-.89-.21-1.32-.22,1.21,.42,2.41,1.3,1.63,2.74-.55,1.02-1.78,1.62-2.61,2.39-.8,.73-1.22,1.53-1.81,2.42-.44,.67-1.21,1.05-2.01,.84-.15-.04-.28-.1-.4-.16,.35,.74,.94,1.34,1.73,1.46Z"/></g><path class="cls-12" d="M91.33,87.94c-.4-.08-1.03,.08-1.56,.4-.31,.19-.46,.45-.23,.78,.1,.14,.27,.23,.38,.36,.17,.19,.27,.41,.37,.65,.09,.21,.14,.44,.29,.62,.68,.79,1.71-.26,1.82-.99,.07-.45,.4-1.52-1.07-1.83Z"/><path class="cls-16" d="M91.52,88.27c-.57-.16-1.11,.02-1.19,.24-.05,.12-.02,.24,.03,.36,.13,.29,.27,.46,.32,.8,.04,.31,.1,.7,.42,.86,.3,.14,.57-.05,.74-.29,.44-.61,.54-1.73-.31-1.96Z"/><path class="cls-9" d="M91.52,89.1c-.48-.12-.81,.81-.21,1.08,.13,.06,.28-.12,.35-.22,.15-.2,.23-.77-.14-.86Z"/></g><path class="cls-61" d="M108.23,105.4s-.04-.02-.04,0c-.06,1.6-.33,3.12-.81,4.66-.49,1.54-1.2,3.05-1.93,4.49-.68,1.33-1.33,2.87-2.44,3.9-.61,.56-1.81,.79-3.16,.59-1.3-.2-2.65-.91-2.96-1.12-1.61-1.09-3.01-2.45-4.23-3.96-1.28-1.58-2.42-3.3-3.34-5.12-.9-1.79-1.59-3.73-1.71-5.89-.02-.3-.03-.64-.01-.92,0-.12-.04-.09-.06,0-.5,2.19,.3,4.61,1.29,6.69,.96,2.01,2.2,3.85,3.61,5.58,1.31,1.61,2.82,3.21,4.58,4.31,1.54,.96,3.82,1.89,5.57,.83,1.39-.83,2.03-2.28,2.71-3.58,1.64-3.11,3.53-6.84,2.93-10.47Z"/><path class="cls-62" d="M107.28,96.96c-.37,.66-.9,1.1-1.65,.37-.28-.28-.55-.56-.88-.79-.76-.55-1.64-.92-2.32-1.59-1.77-1.73-1.21-4.48,.75-5.77,.02-.01,0-.05-.02-.03-2.36,1.13-2.79,4.35-.9,6.12,.48,.44,1.05,.77,1.6,1.11,.63,.38,1.14,.8,1.66,1.32,.76,.76,1.55,.17,1.81-.72,.03-.09-.01-.09-.06-.01Z"/><path class="cls-62" d="M94.96,88.55s-.05,.03-.02,.06c.97,1.04,0,2.18-.91,2.83-.78,.56-1.43,1.08-2.07,1.82-.65,.76-1.13,1.6-1.63,2.46-.31,.54-.78,1.13-1.47,1.16-.66,.03-1.28-.53-1.76-.92-.08-.06-.13-.06-.08,.03,.57,1.07,1.63,1.67,2.71,1,.55-.34,.88-.91,1.17-1.48,.37-.74,.94-1.45,1.49-2.07,.54-.61,1.06-1.04,1.72-1.5,.47-.33,.88-.71,1.18-1.2,.43-.7,.5-1.63-.34-2.17Z"/></g></svg>