<?xml version="1.0" encoding="utf-8"?>
<svg xmlns="http://www.w3.org/2000/svg" viewBox="55.3276 134.502 45.8012 32.3472" width="45.8012px" height="32.3472px"><defs><style>
      .cls-1 {
        fill: #d6734c;
      }

      .cls-2, .cls-3, .cls-4, .cls-5, .cls-6, .cls-7, .cls-8, .cls-9, .cls-10, .cls-11, .cls-12, .cls-13, .cls-14, .cls-15, .cls-16, .cls-17 {
        opacity: .5;
      }

      .cls-2, .cls-18 {
        fill: #ea8b60;
      }

      .cls-19, .cls-7, .cls-20 {
        fill: #ff7b94;
      }

      .cls-21 {
        fill: #e8426a;
      }

      .cls-22 {
        fill: #dd3e4e;
      }

      .cls-23 {
        fill: #e23354;
      }

      .cls-3, .cls-24 {
        fill: #f4996c;
      }

      .cls-4, .cls-25, .cls-26 {
        fill: #ff9cb4;
      }

      .cls-27 {
        fill: #59a038;
      }

      .cls-5, .cls-28 {
        fill: #ba5b5b;
      }

      .cls-29 {
        fill: #ffb38d;
      }

      .cls-30 {
        fill: #4174e5;
      }

      .cls-6, .cls-31, .cls-32 {
        fill: #ffc1a6;
      }

      .cls-33 {
        fill: #bf2a26;
      }

      .cls-34 {
        fill: #b55454;
        opacity: .6;
      }

      .cls-31, .cls-35, .cls-25, .cls-20, .cls-28 {
        opacity: .7;
      }

      .cls-36 {
        fill: #892c29;
      }

      .cls-8 {
        fill: #ed5551;
      }

      .cls-35, .cls-37 {
        fill: #ff5f76;
      }

      .cls-38 {
        fill: #fea97a;
      }

      .cls-39 {
        fill: #ffcdbb;
      }

      .cls-40 {
        fill: #2a66d1;
      }

      .cls-41 {
        fill: #e5937a;
      }

      .cls-9 {
        fill: #ffa9be;
      }

      .cls-42 {
        fill: #ce392e;
      }

      .cls-43 {
        fill: #d63048;
      }

      .cls-10 {
        fill: #e54c41;
      }

      .cls-44 {
        fill: #e08686;
      }

      .cls-45 {
        fill: #528bef;
      }

      .cls-46 {
        fill: #bc2f40;
      }

      .cls-47 {
        fill: #96362f;
      }

      .cls-11 {
        fill: #ff9f9f;
      }

      .cls-12 {
        fill: #ef566d;
      }

      .cls-48 {
        fill: #e83f57;
      }

      .cls-49 {
        fill: #dd7b54;
      }

      .cls-50 {
        fill: #c9633f;
      }

      .cls-51 {
        fill: #a84848;
      }

      .cls-13 {
        fill: #f46060;
      }

      .cls-52 {
        fill: #7c1e1e;
      }

      .cls-53 {
        fill: #609cf4;
      }

      .cls-54 {
        fill: #d37863;
      }

      .cls-14, .cls-55 {
        fill: #ffd0c0;
      }

      .cls-56 {
        fill: #f4bba6;
      }

      .cls-57 {
        fill: #a03f3d;
      }

      .cls-58 {
        fill: #d64532;
      }

      .cls-15 {
        fill: #ffbbce;
      }

      .cls-16 {
        fill: #f9738d;
      }

      .cls-59 {
        fill: #f44d5d;
      }

      .cls-17 {
        fill: #ffccdc;
      }

      .cls-60 {
        fill: #f2aa91;
      }

      .cls-61 {
        fill: #ce1743;
      }

      .cls-62 {
        fill: #cc173a;
      }

      .cls-63 {
        fill: #70b753;
      }

      .cls-64 {
        fill: #ffe7e1;
      }

      .cls-65 {
        fill: #e88b62;
      }

      .cls-66 {
        fill: #d6253f;
      }
    </style></defs><g transform="matrix(1, 0, 0, 1, 0.8982086181640341, 2.2455270290374756)" id="object-3"><g><g><path class="cls-38" d="M72.19,148.51c-1.27-2.64-3.55-2.85-3.55-2.85l-.42,2.49c.07-.15,.15-.3,.24-.45,.01-.02,.02-.03,.04-.04-.01,0-.02-.01-.03-.02-.07-.04-.02-.14,.05-.12,1.18,.35,2.36,.97,3.09,1.99,.81,1.12,.88,2.48,.89,3.82,.02,3.19-.37,6.71-.33,9.97,.29,0,.51-.38,.51-.38,0,0-.01-2.82,.05-4.94,.07-2.13,.74-6.84-.53-9.48Z"/><path class="cls-24" d="M72.49,153.34c0-1.34-.08-2.7-.89-3.82-.73-1.02-1.91-1.64-3.09-1.99-.07-.02-.12,.08-.05,.12,.01,0,.02,.01,.03,.02-.01,.01-.03,.02-.04,.04-.09,.15-.17,.3-.24,.45l-.1,.61s3.45,.85,3.87,3.39c.42,2.54-.34,9.64-.29,10.81,.16,.26,.32,.35,.46,.35-.04-3.27,.35-6.78,.33-9.97Z"/></g><g><path class="cls-66" d="M75.88,147.03s.04-.08,.06-.13c.3-.74,.2-.99,.2-.99,0,0-.39-.09-2.42-.86-1.36-.52-2.22-1.68-2.69-2.37-.15,.15-.31,.29-.47,.44,.36,1.05,1.71,1.91,1.71,1.91,0,0-1.49-.18-2.53-.1-.16,.01-.31,.04-.43,.07,0,.11-.01,.23-.04,.35,2.31-.41,4.59,.69,6.62,1.69Z"/><path class="cls-62" d="M71.95,145.94c1.3,.49,3.38,1.73,3.38,1.73,0,0,.27-.02,.54-.63-2.03-1-4.31-2.1-6.62-1.69-.02,.1-.04,.19-.08,.28,.62-.04,1.84-.05,2.76,.3Z"/></g><g><path class="cls-40" d="M75.05,147.54c-1.93-.1-4.51,.35-5.99,1.51,.04,.08,.07,.17,.09,.26,.55-.29,1.26-.6,1.93-.7,1.38-.2,3.8-.11,3.8-.11,0,0,.26-.16,.16-.96Z"/><path class="cls-30" d="M68.73,149.46c.12-.06,.24-.1,.36-.16,1.44-1.27,3.96-1.87,5.97-1.76,0,0,0,0,0,0-.09-.79-.31-.96-.31-.96,0,0-.38,.11-2.53,.41-1.44,.2-2.76-.4-3.5-.78-.06,.2-.13,.41-.2,.61,.82,.75,2.41,.85,2.41,.85,0,0-1.39,.56-2.26,1.13-.14,.09-.25,.18-.35,.27,.1,.18,.17,.4,.21,.61,.05-.03,.1-.06,.15-.09-.01-.05,0-.1,.05-.12Z"/></g><g><g><path class="cls-57" d="M71.72,133.64c-.41-.4-.9-.73-1.48-.96,0,0-.02,0-.02,0-3.09-.59-6.12,.91-8.32,2.99-2.09,1.98-3.87,4.53-5.25,7.05-3.19,5.82-1.34,12.44,1.31,18.06,.1,.14,.2,.28,.31,.41,.35,.46,.74,.9,1.15,1.3,1.27,.55,2.85,.27,4.31-.27,2.27-.84,4.13-2.48,4.64-4.83,.26-1.2,.27-2.89,.09-4.09-.26-1.76-1.52-3.41-1.61-5.19-.04-.89,.87-1.39,1.27-2.18,.6-1.19,1.58-2.21,2.25-3.26,.97-1.51,1.82-3.4,2.27-5.17,.3-1.19-.34-2.74-.91-3.85Z"/><path class="cls-47" d="M56.65,142.71c1.38-2.52,3.16-5.07,5.25-7.05,2.2-2.08,5.23-3.58,8.32-2.99,0,0,.02,0,.02,0-.22-.09-.45-.17-.69-.23-5.55-1.41-10.48,5.66-12.64,9.05-3.96,6.21-2.86,13.87,1.05,19.29-2.65-5.63-4.49-12.25-1.31-18.06Z"/></g><g><path class="cls-47" d="M62.6,164.34c.76,.19,1.57,.22,2.43,.05,.84-.17,1.64-.5,2.35-.95-.17,.1-.35,.2-.54,.29-1.37,.64-2.8,.69-4.24,.62Z"/><path class="cls-47" d="M68.76,145.21c.19-1.61-1.31-2.2-1.51-2.55-.31,.47,.81,1.82,.5,2.89-.31,1.07-2.07,1.87-2.16,2.39,1.6-.19,3.07-1.84,3.18-2.73Z"/><path class="cls-47" d="M65.92,163.37c2.29-.69,3.69-2.36,4.22-4.67,.46-2.02,.17-4.12-.48-6.07-.34-1-.52-2.05-1.02-2.99-.23-.44-.57-1.08-1.03-1.32-.19-.1-1.49-.29-1.73-.32,1.27,1.21,1.97,3.66,2.23,5.36,.18,1.21,.17,2.44-.08,3.63-.51,2.36-2.08,4.28-4.35,5.12-1.47,.54-2.9,.63-4.26,.38,.35,.34,.72,.64,1.12,.91,1.76,.5,3.61,.5,5.39-.03Z"/><path class="cls-47" d="M72.25,139.73c.54-1.63,.53-3.62,.38-4.83-.23-.46-.52-.89-.91-1.26,.57,1.11,.65,2.55,.35,3.74-.45,1.77-.69,3.57-2.96,5.47,.05,0,.09,0,.14,0,.57,0,2.26-.93,2.99-3.13Z"/><path class="cls-47" d="M68.64,143.54c-.04,.06-.08,.12-.13,.18,.42,.4,.86,.88,.85,1.49,.08-.44,.08-.91-.11-1.43,.7,.08,1.38-.27,1.94-.79-.58,.48-1.03,.47-1.12,.49-.32,.1-1.02,.09-1.45,.06Z"/><path class="cls-47" d="M72.19,141.74c.05-.09,.1-.17,.14-.26-.05,.09-.09,.18-.14,.26Z"/><path class="cls-47" d="M67.04,147.74c1.91,.12,2.8,2.79,3.31,4.3,.58,1.71,.91,3.54,.74,5.34,.15-1.19,.1-2.41-.1-3.59-.18-1.06-.48-2.09-.85-3.09-.38-1.01-1.53-1.98-1.52-3.09,0-.59,.4-1.21,.64-1.94-.23,.38-.81,1.15-1.06,1.39-.32,.31-.72,.52-1.15,.68Z"/><path class="cls-36" d="M69.34,145.48c.02-.09,.03-.18,.03-.27-.03,.16-.07,.31-.12,.45,.05-.08,.08-.15,.09-.18Z"/><path class="cls-36" d="M67.38,163.44c1.67-.96,2.86-2.54,3.4-4.4,.16-.54,.25-1.1,.31-1.65-.07,.6-.2,1.19-.38,1.77-.57,1.74-1.77,3.3-3.32,4.29Z"/><path class="cls-36" d="M71.2,142.99c.3-.25,.64-.64,.98-1.25-.26,.44-.59,.89-.98,1.25Z"/><path class="cls-36" d="M72.63,134.9c.15,1.21,.1,3.18-.44,4.8-.73,2.2-2.36,3.15-2.93,3.16-.05,0-.09,0-.14,0-.86-.07-1.55-.77-2.4-.71-.39,.03,.91,.96,1.5,2.02,.2,.35,.32,.72,.27,1.08-.12,.88-.84,1.45-1.64,1.9-.53,.31-1.1,.56-1.54,.83-.15,.09-.06,.29,.12,.29,.39,0,.9-.02,1.36,.06,.24,.04,.46,.1,.65,.2,.46,.25,.74,.73,.98,1.17,.49,.94,.91,1.93,1.25,2.94,.65,1.95,.94,4.05,.48,6.07-.52,2.31-1.92,3.98-4.22,4.67-1.78,.53-3.63,.53-5.39,.03,.64,.43,1.33,.76,2.07,.95,1.44,.08,2.87,.02,4.24-.62,.19-.09,.36-.19,.54-.29,1.55-.98,2.75-2.55,3.32-4.29,.19-.58,.31-1.17,.38-1.77,.17-1.8-.16-3.63-.74-5.34-.51-1.5-1.4-4.18-3.31-4.3,.43-.17,.83-.37,1.15-.68,.25-.24,.84-1.02,1.06-1.39,.05-.15,.09-.3,.12-.45,0-.61-.43-1.09-.85-1.49-.08-.08-.16-.15-.24-.23,.03,.01,.17,.03,.36,.05,.43,.03,1.13,.04,1.45-.06,.08-.03,.54-.01,1.12-.49,.39-.36,.73-.8,.98-1.25,.05-.08,.09-.17,.14-.26,.06-.11,.11-.22,.15-.33,.81-1.97,1.06-4.41,.15-6.26Z"/></g><path class="cls-52" d="M73.11,136.41c.13,1.19-.13,2.59-.38,3.78-.31,1.53-1.71,3.66-3.59,3.12-.43-.12-2.09-.96-2.47-1.15-.19-.09-.46,.04-.14,.24,.22,.14,2.5,1.51,2.52,2.52,.02,1.03-.85,2.01-1.18,2.24-.89,.63-1.86,.79-2.33,.91-.25,.06-.27,.22,.02,.21,.62-.01,1.26-.24,1.82-.44,.59,.07,1.05,.54,1.48,1.29,.47,.81,.82,1.91,1.17,2.79,.85,2.09,1.34,4.52,.78,6.76-1.1,4.37-5.44,6.55-9.59,5.12-.24-.08-.26,0-.03,.1,4.81,2.18,9.37-.95,10.13-6.02,.42-2.79-.58-5.91-1.66-8.44-.21-.5-.44-.93-.64-1.3-.32-.59-.36-1.2,.13-1.7,.58-.61,.74-1.39,.41-2.35,.58,0,1.18-.16,1.64-.54,.87-.72,1.42-1.99,1.64-2.68,.51-1.56,.52-2.93,.27-4.45Z"/><path class="cls-51" d="M70.27,135.76c-.05-.46-.69-1.9-2.33-2.12-1.78-.24-3.23,.09-5.13,1.58-.96,.75-2.99,3.24-1.19,4.13,.46,.22,.98,.21,1.46,.35,.67,.18,1.19,.61,1.79,.92,.89,.47,1.84,.48,2.77,.08,2.02-.87,2.84-2.83,2.63-4.94Z"/><path class="cls-51" d="M65,142.87c-1.07-1.73-5.78-2.8-7.46-.96-.58,.64-1.04,1.6-1.1,2.48-.06,.91,.57,1.36,1.32,1.73,1.85,.93,4.12,1.04,6.04,.25,1.7-.69,2.23-1.84,1.2-3.51Z"/><path class="cls-51" d="M65.67,151.46c-1.06-2.38-3.43-2.38-6.02-1.65-2.01,.57-3.21,2.2-2.93,4.25,.18,1.32,.69,2.65,1.25,3.84,.47,.99,1.06,1.98,2,2.58,1.87,1.2,4.31,.18,5.45-1.55,.71-1.07,.94-2.34,.92-3.61-.03-1.25-.16-2.7-.68-3.86Z"/><path class="cls-5" d="M67,134.2c-.68-.11-1.35-.08-2,.12,0,0-.01,0-.02,0,0,0,0,0,0,0-.99,.3-1.73,.89-2.48,1.59-.46,.42-1.12,1.55-.75,1.94,.45,.48,.83,.57,1.42,.61,1.87,.13,3.6-1.26,4.63-2.71,.74-1.05,.09-1.41-.79-1.55Z"/><path class="cls-5" d="M61.04,141.77c-.21-.28-.97-.62-2.22,.11-1.38,.81-2.13,2.78-.74,3.58,1.16,.66,2.39-.48,2.77-1.53,.22-.61,.62-1.59,.19-2.16Z"/><path class="cls-5" d="M61.09,151.86c-.27-.68-.89-1.16-1.64-1.06-.95,.12-1.68,.92-1.94,1.76-.17,.54-.16,1.75,.02,2.46,.17,.68,1.51,4.47,2.64,3.14,.27-.32,.33-.83,.42-1.21,.15-.62,.28-1.24,.39-1.87,.18-1,.51-2.23,.12-3.22Z"/><path class="cls-44" d="M66.81,134.38c-1.49-.08-3.34,.68-4.18,1.92-.09,.13-.03,.21,.12,.1,1.25-.94,2.73-1.48,4.28-1.67,.17-.02,.36-.33-.22-.36Z"/><path class="cls-44" d="M59.78,141.78c-.25,0-.66,.21-.88,.38-.68,.51-1.1,1.15-1.21,2.01-.05,.37,.09,.19,.14,.06,.34-1,1.34-1.58,2.07-2.19,.1-.09,.01-.25-.1-.25Z"/><path class="cls-44" d="M59.03,151.42s-.01-.04-.03-.03c-1.15,.84-1.41,2.61-.86,3.77,.12,.26,.17,.05,.15-.08-.23-1.35-.07-2.47,.74-3.66Z"/><path class="cls-44" d="M58.86,156.25c-.18-.42-.34-.32-.34-.12,0,.24,.11,.76,.37,.77,.15,0,.05-.49-.03-.66Z"/></g></g><g><g><path class="cls-38" d="M82.47,148.51c1.27-2.64,3.55-2.85,3.55-2.85l.42,2.49c-.07-.15-.15-.3-.24-.45-.01-.02-.02-.03-.04-.04,.01,0,.02-.01,.03-.02,.07-.04,.02-.14-.05-.12-1.18,.35-2.36,.97-3.09,1.99-.81,1.12-.88,2.48-.89,3.82-.02,3.19,.37,6.71,.33,9.97-.29,0-.51-.38-.51-.38,0,0,.01-2.82-.05-4.94-.07-2.13-.74-6.84,.53-9.48Z"/><path class="cls-24" d="M82.17,153.34c0-1.34,.08-2.7,.89-3.82,.73-1.02,1.91-1.64,3.09-1.99,.07-.02,.12,.08,.05,.12-.01,0-.02,.01-.03,.02,.01,.01,.03,.02,.04,.04,.09,.15,.17,.3,.24,.45l.1,.61s-3.45,.85-3.87,3.39,.34,9.64,.29,10.81c-.16,.26-.32,.35-.46,.35,.04-3.27-.35-6.78-.33-9.97Z"/></g><g><path class="cls-66" d="M78.78,147.03s-.04-.08-.06-.13c-.3-.74-.2-.99-.2-.99,0,0,.39-.09,2.42-.86,1.36-.52,2.22-1.68,2.69-2.37,.15,.15,.31,.29,.47,.44-.36,1.05-1.71,1.91-1.71,1.91,0,0,1.49-.18,2.53-.1,.16,.01,.31,.04,.43,.07,0,.11,.01,.23,.04,.35-2.31-.41-4.59,.69-6.62,1.69Z"/><path class="cls-62" d="M82.71,145.94c-1.3,.49-3.38,1.73-3.38,1.73,0,0-.27-.02-.54-.63,2.03-1,4.31-2.1,6.62-1.69,.02,.1,.04,.19,.08,.28-.62-.04-1.84-.05-2.76,.3Z"/></g><g><path class="cls-40" d="M79.61,147.54c1.93-.1,4.51,.35,5.99,1.51-.04,.08-.07,.17-.09,.26-.55-.29-1.26-.6-1.93-.7-1.38-.2-3.8-.11-3.8-.11,0,0-.26-.16-.16-.96Z"/><path class="cls-30" d="M85.93,149.46c-.12-.06-.24-.1-.36-.16-1.44-1.27-3.96-1.87-5.97-1.76,0,0,0,0,0,0,.09-.79,.31-.96,.31-.96,0,0,.38,.11,2.53,.41,1.44,.2,2.76-.4,3.5-.78,.06,.2,.13,.41,.2,.61-.82,.75-2.41,.85-2.41,.85,0,0,1.39,.56,2.26,1.13,.14,.09,.25,.18,.35,.27-.1,.18-.17,.4-.21,.61-.05-.03-.1-.06-.15-.09,.01-.05,0-.1-.05-.12Z"/></g><g><g><path class="cls-57" d="M82.94,133.64c.41-.4,.9-.73,1.48-.96,0,0,.02,0,.02,0,3.09-.59,6.12,.91,8.32,2.99,2.09,1.98,3.87,4.53,5.25,7.05,3.19,5.82,1.34,12.44-1.31,18.06-.1,.14-.2,.28-.31,.41-.35,.46-.74,.9-1.15,1.3-1.27,.55-2.85,.27-4.31-.27-2.27-.84-4.13-2.48-4.64-4.83-.26-1.2-.27-2.89-.09-4.09,.26-1.76,1.52-3.41,1.61-5.19,.04-.89-.87-1.39-1.27-2.18-.6-1.19-1.58-2.21-2.25-3.26-.97-1.51-1.82-3.4-2.27-5.17-.3-1.19,.34-2.74,.91-3.85Z"/><path class="cls-47" d="M98.01,142.71c-1.38-2.52-3.16-5.07-5.25-7.05-2.2-2.08-5.23-3.58-8.32-2.99,0,0-.02,0-.02,0,.22-.09,.45-.17,.69-.23,5.55-1.41,10.48,5.66,12.64,9.05,3.96,6.21,2.86,13.87-1.05,19.29,2.65-5.63,4.49-12.25,1.31-18.06Z"/></g><g><path class="cls-47" d="M92.06,164.34c-.76,.19-1.57,.22-2.43,.05-.84-.17-1.64-.5-2.35-.95,.17,.1,.35,.2,.54,.29,1.37,.64,2.8,.69,4.24,.62Z"/><path class="cls-47" d="M85.9,145.21c-.19-1.61,1.31-2.2,1.51-2.55,.31,.47-.81,1.82-.5,2.89,.31,1.07,2.07,1.87,2.16,2.39-1.6-.19-3.07-1.84-3.18-2.73Z"/><path class="cls-47" d="M88.74,163.37c-2.29-.69-3.69-2.36-4.22-4.67-.46-2.02-.17-4.12,.48-6.07,.34-1,.52-2.05,1.02-2.99,.23-.44,.57-1.08,1.03-1.32,.19-.1,1.49-.29,1.73-.32-1.27,1.21-1.97,3.66-2.23,5.36-.18,1.21-.17,2.44,.08,3.63,.51,2.36,2.08,4.28,4.35,5.12,1.47,.54,2.9,.63,4.26,.38-.35,.34-.72,.64-1.12,.91-1.76,.5-3.61,.5-5.39-.03Z"/><path class="cls-47" d="M82.41,139.73c-.54-1.63-.53-3.62-.38-4.83,.23-.46,.52-.89,.91-1.26-.57,1.11-.65,2.55-.35,3.74,.45,1.77,.69,3.57,2.96,5.47-.05,0-.09,0-.14,0-.57,0-2.26-.93-2.99-3.13Z"/><path class="cls-47" d="M86.02,143.54c.04,.06,.08,.12,.13,.18-.42,.4-.86,.88-.85,1.49-.08-.44-.08-.91,.11-1.43-.7,.08-1.38-.27-1.94-.79,.58,.48,1.03,.47,1.12,.49,.32,.1,1.02,.09,1.45,.06Z"/><path class="cls-47" d="M82.47,141.74c-.05-.09-.1-.17-.14-.26,.05,.09,.09,.18,.14,.26Z"/><path class="cls-47" d="M87.62,147.74c-1.91,.12-2.8,2.79-3.31,4.3-.58,1.71-.91,3.54-.74,5.34-.15-1.19-.1-2.41,.1-3.59,.18-1.06,.48-2.09,.85-3.09,.38-1.01,1.53-1.98,1.52-3.09,0-.59-.4-1.21-.64-1.94,.23,.38,.81,1.15,1.06,1.39,.32,.31,.72,.52,1.15,.68Z"/><path class="cls-36" d="M85.32,145.48c-.02-.09-.03-.18-.03-.27,.03,.16,.07,.31,.12,.45-.05-.08-.08-.15-.09-.18Z"/><path class="cls-36" d="M87.28,163.44c-1.67-.96-2.86-2.54-3.4-4.4-.16-.54-.25-1.1-.31-1.65,.07,.6,.2,1.19,.38,1.77,.57,1.74,1.77,3.3,3.32,4.29Z"/><path class="cls-36" d="M83.46,142.99c-.3-.25-.64-.64-.98-1.25,.26,.44,.59,.89,.98,1.25Z"/><path class="cls-36" d="M82.03,134.9c-.15,1.21-.1,3.18,.44,4.8,.73,2.2,2.36,3.15,2.93,3.16,.05,0,.09,0,.14,0,.86-.07,1.55-.77,2.4-.71,.39,.03-.91,.96-1.5,2.02-.2,.35-.32,.72-.27,1.08,.12,.88,.84,1.45,1.64,1.9,.53,.31,1.1,.56,1.54,.83,.15,.09,.06,.29-.12,.29-.39,0-.9-.02-1.36,.06-.24,.04-.46,.1-.65,.2-.46,.25-.74,.73-.98,1.17-.49,.94-.91,1.93-1.25,2.94-.65,1.95-.94,4.05-.48,6.07,.52,2.31,1.92,3.98,4.22,4.67,1.78,.53,3.63,.53,5.39,.03-.64,.43-1.33,.76-2.07,.95-1.44,.08-2.87,.02-4.24-.62-.19-.09-.36-.19-.54-.29-1.55-.98-2.75-2.55-3.32-4.29-.19-.58-.31-1.17-.38-1.77-.17-1.8,.16-3.63,.74-5.34,.51-1.5,1.4-4.18,3.31-4.3-.43-.17-.83-.37-1.15-.68-.25-.24-.84-1.02-1.06-1.39-.05-.15-.09-.3-.12-.45,0-.61,.43-1.09,.85-1.49,.08-.08,.16-.15,.24-.23-.03,.01-.17,.03-.36,.05-.43,.03-1.13,.04-1.45-.06-.08-.03-.54-.01-1.12-.49-.39-.36-.73-.8-.98-1.25-.05-.08-.09-.17-.14-.26-.06-.11-.11-.22-.15-.33-.81-1.97-1.06-4.41-.15-6.26Z"/></g><path class="cls-52" d="M81.55,136.41c-.13,1.19,.13,2.59,.38,3.78,.31,1.53,1.71,3.66,3.59,3.12,.43-.12,2.09-.96,2.47-1.15,.19-.09,.46,.04,.14,.24-.22,.14-2.5,1.51-2.52,2.52-.02,1.03,.85,2.01,1.18,2.24,.89,.63,1.86,.79,2.33,.91,.25,.06,.27,.22-.02,.21-.62-.01-1.26-.24-1.82-.44-.59,.07-1.05,.54-1.48,1.29-.47,.81-.82,1.91-1.17,2.79-.85,2.09-1.34,4.52-.78,6.76,1.1,4.37,5.44,6.55,9.59,5.12,.24-.08,.26,0,.03,.1-4.81,2.18-9.37-.95-10.13-6.02-.42-2.79,.58-5.91,1.66-8.44,.21-.5,.44-.93,.64-1.3,.32-.59,.36-1.2-.13-1.7-.58-.61-.74-1.39-.41-2.35-.58,0-1.18-.16-1.64-.54-.87-.72-1.42-1.99-1.64-2.68-.51-1.56-.52-2.93-.27-4.45Z"/><path class="cls-51" d="M84.39,135.76c.05-.46,.69-1.9,2.33-2.12,1.78-.24,3.23,.09,5.13,1.58,.96,.75,2.99,3.24,1.19,4.13-.45,.22-.98,.21-1.46,.35-.67,.18-1.19,.61-1.79,.92-.89,.47-1.84,.48-2.77,.08-2.02-.87-2.84-2.83-2.63-4.94Z"/><path class="cls-51" d="M89.66,142.87c1.07-1.73,5.78-2.8,7.46-.96,.58,.64,1.04,1.6,1.1,2.48,.06,.91-.57,1.36-1.32,1.73-1.85,.93-4.12,1.04-6.04,.25-1.7-.69-2.23-1.84-1.2-3.51Z"/><path class="cls-51" d="M88.99,151.46c1.06-2.38,3.43-2.38,6.02-1.65,2.01,.57,3.21,2.2,2.93,4.25-.18,1.32-.69,2.65-1.25,3.84-.47,.99-1.06,1.98-2,2.58-1.87,1.2-4.31,.18-5.45-1.55-.71-1.07-.94-2.34-.92-3.61,.03-1.25,.16-2.7,.68-3.86Z"/><path class="cls-5" d="M87.66,134.2c.68-.11,1.35-.08,2,.12,0,0,.01,0,.02,0h0c.99,.3,1.73,.89,2.48,1.59,.46,.42,1.12,1.55,.75,1.94-.45,.48-.83,.57-1.42,.61-1.87,.13-3.6-1.26-4.63-2.71-.74-1.05-.09-1.41,.79-1.55Z"/><path class="cls-5" d="M93.62,141.77c.21-.28,.97-.62,2.22,.11,1.38,.81,2.13,2.78,.74,3.58-1.16,.66-2.39-.48-2.77-1.53-.22-.61-.62-1.59-.19-2.16Z"/><path class="cls-5" d="M93.57,151.86c.27-.68,.89-1.16,1.64-1.06,.95,.12,1.68,.92,1.94,1.76,.17,.54,.16,1.75-.02,2.46-.17,.68-1.51,4.47-2.64,3.14-.27-.32-.33-.83-.42-1.21-.15-.62-.28-1.24-.39-1.87-.18-1-.51-2.23-.12-3.22Z"/><path class="cls-44" d="M87.85,134.38c1.49-.08,3.34,.68,4.18,1.92,.09,.13,.03,.21-.12,.1-1.25-.94-2.73-1.48-4.28-1.67-.17-.02-.36-.33,.22-.36Z"/><path class="cls-44" d="M94.88,141.78c.25,0,.66,.21,.88,.38,.68,.51,1.1,1.15,1.21,2.01,.05,.37-.09,.19-.14,.06-.34-1-1.34-1.58-2.07-2.19-.1-.09-.01-.25,.1-.25Z"/><path class="cls-44" d="M95.63,151.42s.01-.04,.03-.03c1.15,.84,1.41,2.61,.86,3.77-.12,.26-.17,.05-.15-.08,.23-1.35,.07-2.47-.74-3.66Z"/><path class="cls-44" d="M95.8,156.25c.18-.42,.34-.32,.34-.12,0,.24-.11,.76-.37,.77-.15,0-.05-.49,.03-.66Z"/></g></g></g></svg>