<?xml version="1.0" encoding="utf-8"?>
<svg xmlns="http://www.w3.org/2000/svg" viewBox="93.7782 123.4047 16.7135 20.3983" width="16.7135px" height="20.3983px"><defs><style>
      .cls-1 {
        fill: #d6734c;
      }

      .cls-2, .cls-3, .cls-4, .cls-5, .cls-6, .cls-7, .cls-8, .cls-9, .cls-10, .cls-11, .cls-12, .cls-13, .cls-14, .cls-15, .cls-16, .cls-17 {
        opacity: .5;
      }

      .cls-2, .cls-18 {
        fill: #ea8b60;
      }

      .cls-19, .cls-7, .cls-20 {
        fill: #ff7b94;
      }

      .cls-21 {
        fill: #e8426a;
      }

      .cls-22 {
        fill: #dd3e4e;
      }

      .cls-23 {
        fill: #e23354;
      }

      .cls-3, .cls-24 {
        fill: #f4996c;
      }

      .cls-4, .cls-25, .cls-26 {
        fill: #ff9cb4;
      }

      .cls-27 {
        fill: #59a038;
      }

      .cls-5, .cls-28 {
        fill: #ba5b5b;
      }

      .cls-29 {
        fill: #ffb38d;
      }

      .cls-30 {
        fill: #4174e5;
      }

      .cls-6, .cls-31, .cls-32 {
        fill: #ffc1a6;
      }

      .cls-33 {
        fill: #bf2a26;
      }

      .cls-34 {
        fill: #b55454;
        opacity: .6;
      }

      .cls-31, .cls-35, .cls-25, .cls-20, .cls-28 {
        opacity: .7;
      }

      .cls-36 {
        fill: #892c29;
      }

      .cls-8 {
        fill: #ed5551;
      }

      .cls-35, .cls-37 {
        fill: #ff5f76;
      }

      .cls-38 {
        fill: #fea97a;
      }

      .cls-39 {
        fill: #ffcdbb;
      }

      .cls-40 {
        fill: #2a66d1;
      }

      .cls-41 {
        fill: #e5937a;
      }

      .cls-9 {
        fill: #ffa9be;
      }

      .cls-42 {
        fill: #ce392e;
      }

      .cls-43 {
        fill: #d63048;
      }

      .cls-10 {
        fill: #e54c41;
      }

      .cls-44 {
        fill: #e08686;
      }

      .cls-45 {
        fill: #528bef;
      }

      .cls-46 {
        fill: #bc2f40;
      }

      .cls-47 {
        fill: #96362f;
      }

      .cls-11 {
        fill: #ff9f9f;
      }

      .cls-12 {
        fill: #ef566d;
      }

      .cls-48 {
        fill: #e83f57;
      }

      .cls-49 {
        fill: #dd7b54;
      }

      .cls-50 {
        fill: #c9633f;
      }

      .cls-51 {
        fill: #a84848;
      }

      .cls-13 {
        fill: #f46060;
      }

      .cls-52 {
        fill: #7c1e1e;
      }

      .cls-53 {
        fill: #609cf4;
      }

      .cls-54 {
        fill: #d37863;
      }

      .cls-14, .cls-55 {
        fill: #ffd0c0;
      }

      .cls-56 {
        fill: #f4bba6;
      }

      .cls-57 {
        fill: #a03f3d;
      }

      .cls-58 {
        fill: #d64532;
      }

      .cls-15 {
        fill: #ffbbce;
      }

      .cls-16 {
        fill: #f9738d;
      }

      .cls-59 {
        fill: #f44d5d;
      }

      .cls-17 {
        fill: #ffccdc;
      }

      .cls-60 {
        fill: #f2aa91;
      }

      .cls-61 {
        fill: #ce1743;
      }

      .cls-62 {
        fill: #cc173a;
      }

      .cls-63 {
        fill: #70b753;
      }

      .cls-64 {
        fill: #ffe7e1;
      }

      .cls-65 {
        fill: #e88b62;
      }

      .cls-66 {
        fill: #d6253f;
      }
    </style></defs><g transform="matrix(1, 0, 0, 1, 0.8982086181640341, 2.2455270290374756)" id="object-5"><path class="cls-57" d="M109.15,133.33c-.37-.76-.63-1.53-.74-2.36-.04-.31-.05-.61-.05-.91,.1-.64,.16-1.28,.05-1.95-.15-.83-.51-1.61-1.03-2.27-.66-.83-1.73-1.21-2.33-2.08-.47-.67-.73-1.47-1.42-1.97-.98-.72-2.54-.81-3.72-.34-.54,.59-.89,1.28-.95,2.09-.03,.4,0,.8,.12,1.18,.13,.42,.28,1,.28,1.34,0,.83,.17,1.56,.32,1.94,.3,.77,.91,1.66,1.41,2.32,.98,1.28,1.97,2.48,2.46,4.05,.24,.75,.43,1.54,.51,2.32,.08,.75-.04,1.47-.09,2.21-.06,.86,.07,1.77,.93,2.2,.36,.18,.72,.24,1.08,.24,1.11-.44,2.06-1.47,2.7-2.42,.58-.86,1.16-2.13,.46-3.05,.78-.66,.4-1.74,0-2.54Z"/><g><path class="cls-47" d="M97.96,124.5c-.08,1.14,.15,2.32,.45,3.42,.3,1.1,.75,2.15,1.32,3.13,.56,.97,1.28,1.8,1.98,2.66,.52,.64,1.01,1.33,1.23,2.14,.27,.98,.05,1.99,.11,2.99,.07,1.03,.66,2.35,1.75,2.62,.17,.04,.39,.06,.66,.06,0,0,.02,0,.03,0,.18-.04,.35-.09,.52-.16-.36,0-.72-.06-1.08-.24-.85-.43-.99-1.34-.93-2.2,.05-.74,.17-1.46,.09-2.21-.08-.79-.27-1.57-.51-2.32-.49-1.56-1.49-2.76-2.46-4.05-.5-.65-1.11-1.55-1.41-2.32-.15-.39-.31-1.11-.32-1.94,0-.34-.16-.92-.28-1.34-.12-.38-.16-.79-.12-1.18,.07-.81,.42-1.51,.95-2.09-.12,.05-.24,.11-.36,.17-.86,.79-1.52,1.64-1.61,2.88Z"/><path class="cls-36" d="M99.92,133.37c.54,.85,1.11,1.69,1.47,2.63,.35,.93,.41,1.92,.67,2.87,.18,.64,.53,1.31,1.03,1.78,.6,.65,1.43,1.05,2.35,.86-.26,0-.49-.01-.66-.06-1.09-.27-1.68-1.59-1.75-2.62-.06-1,.15-2.01-.11-2.99-.22-.81-.71-1.5-1.23-2.14-.7-.86-1.42-1.69-1.98-2.66-.57-.98-1.01-2.04-1.32-3.13-.3-1.09-.53-2.28-.45-3.42,.08-1.24,.74-2.09,1.61-2.88-.19,.1-.36,.22-.51,.35-2.96,2.64-1.12,8.3,.87,11.41Z"/></g><path class="cls-52" d="M102.64,131.98c-.6-.92-1.37-1.72-2.03-2.6-.34-.46-.64-.95-.86-1.47-.25-.6-.32-1.2-.38-1.84,0-.02-.13-.1-.12,.34,.05,1.97,1.17,3.71,2.28,5.21,.67,.91,1.32,1.83,1.73,2.89,.38,1,.51,2.05,.66,3.1,.06,.42,.16,.25,.16,.2,.23-2.01-.35-4.14-1.44-5.83Z"/><g><path class="cls-47" d="M106.7,137.76c.04-.24,.02-.42,.26-.8-.24-.29-.65-.56-.73-1.4-.05-.56-.13-.9-1.05-1.7-.31-.26-.71-1.12-.77-1.52-.09-.6,.07-1.23-.07-1.83-.15-.62-.65-1-1.09-1.42-.36-.34-.63-.7-.76-1.19-.16-.65-.1-1.33-.47-1.92-.32-.49-.74-.85-.92-1.43-.09-.28,0-.91,.09-1.3,0-.16-.1-.11-.1-.1-.35,.41-.47,.92-.4,1.45,.1,.75,.56,1.12,.96,1.72,.22,.34,.26,.73,.32,1.12,.07,.41,.17,.8,.34,1.18,.28,.64,.74,1.12,1.12,1.69,.49,.74,.3,1.56,.47,2.38,.13,.61,.44,1.18,.87,1.63,.21,.21,.44,.37,.68,.53,.48,.33,.3,.8,.4,1.27,.09,.41,.31,.75,.62,1.02-.38,.87-.32,2.33-1.45,2.12-.09-.02-.19,.1-.1,.17,.12,.1,.24,.16,.36,.21,.18-.09,.38-.15,.5-.2,.66-.31,.81-1.04,.93-1.7Z"/><path class="cls-36" d="M106.81,138.81c.21-.59,.33-1.15,.73-1.65,.42-.53,1.11-1.21,1.76-1.03,0-.18-.02-.26,0-.41-.47,.27-1.34,.32-1.59-.48-.07-.24-.06-.36-.28-.51-.36-.24-.68-.38-.83-.83-.14-.45,.08-.82,.1-1.25,.03-.67-.47-.77-.92-1.09-.7-.51-.89-1.51-.49-2.26-.96-.03-2.04-1.15-1.72-2.87-1.15-.38-2.48-2.4-2.39-3.08,0-.03,0-.05,0-.07-.09,.39-.18,1.03-.09,1.3,.18,.58,.6,.94,.92,1.43,.37,.58,.31,1.27,.47,1.92,.12,.48,.4,.85,.76,1.19,.44,.42,.94,.79,1.09,1.42,.14,.6-.02,1.22,.07,1.83,.06,.4,.47,1.26,.77,1.52,.92,.79,.99,1.14,1.05,1.7,.08,.84,.49,1.11,.73,1.4-.24,.38-.21,.56-.26,.8-.12,.66-.27,1.39-.93,1.7-.12,.05-.31,.12-.5,.2,.64,.24,1.28-.16,1.53-.85Z"/></g><path class="cls-52" d="M109.3,135.72c-.1,.04-.2,.1-.31,.13-.35,.09-.7,.01-.99-.29-.21-.21-.21-.49-.36-.72-.1-.15-.26-.21-.41-.3-.22-.14-.37-.32-.48-.53,0,0,0,0,0,0-.4-.67,.36-1.6-.32-2.15-.32-.25-.7-.34-.97-.67-.44-.55-.43-1.3-.09-1.89-.35-.1-1.31-.64-1.5-.97-.32-.56-.28-1.46-.2-1.89-.66-.25-1.15-.72-1.56-1.29-.4-.57-.89-1.25-.93-1.96,0,0,0,0,0,0-.18,.72,.49,1.55,.89,2.09,.38,.52,.84,.98,1.44,1.22-.15,.64-.1,1.33,.24,1.9,.37,.61,1.44,.97,1.44,.97-.44,.72-.21,1.71,.49,2.21,.18,.13,.38,.2,.57,.32,.45,.29,.36,.77,.27,1.21-.06,.33-.1,.66,.11,.93,.06,.14,.15,.27,.26,.38,.12,.12,.25,.19,.39,.28,.24,.16,.28,.34,.38,.58,.16,.38,.57,.68,.99,.73-.49,.25-.97,.58-1.26,1.02-.48,.72-.75,1.84-.9,2.32,.45-.59,.5-1.1,.83-1.74,.45-.88,1.25-1.43,1.99-1.48,0-.14,0-.29,0-.4Z"/><path class="cls-34" d="M108.99,133.62c-.32-.71-.67-1.42-.87-2.17-.22-.82-.18-1.65-.23-2.48-.08-1.35-.55-2.52-1.48-3.51-.62-.65-1.18-.62-1.95-1.87-.34-.55-1.04-1.2-1.7-1.38-.42-.11-.89,.07-.98,.53-.03,.17-.09,.7,.27,1.4,.26,.5,.56,.99,1,1.34,.2,.16,.43,.27,.65,.4,.46,.26,.56,.6,.53,1.11-.03,.49,0,.89,.4,1.23,.39,.34,1.05,.54,1.09,1.13,.04,.56-.31,.98,.09,1.48,.36,.45,1,.61,1.18,1.2,.17,.53,0,1.14,.33,1.62,.14,.2,.35,.33,.52,.5,.24,.24,.28,.55,.47,.8,.21,.28,.58,.29,.8,0,.32-.4,.04-.93-.14-1.33Z"/><path class="cls-28" d="M104.21,123.63c-.34-.64-1.24-1.36-1.76-1.12-.14,.09-.2,.27-.09,.51,.17,.4,.56,.75,.84,1.07,.2,.23,.53,.73,.86,.79,.63,.13,.29-1.01,.16-1.25Z"/><path class="cls-28" d="M107.69,130.3c.03-.4,.06-.81,.05-1.21-.02-1.33-.37-2.59-1.37-3.51-.31-.28-.83-.76-1.23-.42-.5,.42,.14,1.43,.41,1.71,.52,.55,1.01,1.17,1.18,1.93,.12,.56,.08,1.16,.32,1.69,.07,.15,.31,.65,.56,.44,.12-.1,.07-.5,.08-.63Z"/><path class="cls-28" d="M108.7,133.31c-.12-.28-.31-.98-.65-1.08-.25-.07-.36,.2-.35,.4,.02,.4,.43,.72,.69,1.03,.05,.15,.09,.31,.15,.45,.07,.16,.17,.39,.37,.39,.02,0,.04-.01,.05-.03,.16-.35-.12-.84-.26-1.16Z"/><path class="cls-44" d="M103.63,123.11c-.23-.21-.48-.46-.79-.54-.04-.01-.19,0-.04,.15,.24,.24,.57,.38,.81,.63,.12,.13,.27,.24,.36,.38,.13,.21,.18,.12,.17,.09-.08-.3-.28-.51-.5-.71Z"/><path class="cls-44" d="M106.26,125.79c-.1-.22-.64-.8-.82-.54-.06,.08,.26,.26,.33,.32,.14,.1,.28,.2,.42,.3,.05,.03,.09-.03,.07-.07Z"/><path class="cls-44" d="M107.5,128.01c-.05-.27-.11-.57-.36-1.1-.1-.22-.49-1.04-.68-.84-.18,.19,.08,.34,.45,.83,.4,.52,.34,1.09,.53,1.63,.11,.31,.09-.38,.05-.53Z"/><path class="cls-44" d="M108.03,132.38c-.06-.02-.17,0-.04,.25,.09,.17,.24,.37,.36,.52,.12,.16,.18,.06,.12-.12-.07-.23-.18-.58-.44-.66Z"/><path class="cls-30" d="M104.13,136.51c-.46,0-1.81-.31-2.19-.75,.64,.02,1.73-.14,2.07-.26-.02-.07-.03-.21-.05-.28-.34,.15-1.29,.29-2.15,.11-.43-.09-1.22-1.66-1.22-1.66,0,0,.71,.23,1.53,.16,.52-.05,1.1-.18,1.34-.25-.04-.09-.07-.19-.11-.28-.21,.09-.79,.26-1.49,.24-.72-.02-1.73-.38-1.91-.72-.17-.34,.22-.74,.61-.93,.35-.18,1.33-.61,1.5-.69-.06-.07-.12-.17-.18-.22-.17,.07-1.07,.44-1.38,.62-.35,.19-.58,.32-.93,.93-.27,.48-.45,.23-.9,.48-.41,.23-.9,.62-.9,.62,0,0-.17-1.49,.39-2.44,.58-.98,.64-1.35,.81-1.59,.27-.38,1.19-.38,1.5-.37-.05-.07-.1-.15-.14-.22-.27-.02-1.01-.06-1.29,.2-.02-.64,.43-1.14,.62-1.48-.03-.08-.09-.22-.1-.3-.23,.43-.67,1.06-.79,1.71-.13,.71-.4,1.07-.77,1.72-.37,.65-.5,1.69-.55,2.55-.05,.87-.17,2.4-1.44,2.86-1.27,.46-2.79,.42-2.79,.42v.64s1.31,.19,3.09-.56c1.78-.75,1.41-2.31,1.74-2.72,.38-.47,1.48-1.28,2.06-.36,.58,.92,1.02,2.13,2.16,2.69,.72,.36,1.6,.47,1.86,.46-.01-.12,.02-.19,0-.31Z"/><path class="cls-59" d="M99.45,126.76s-.82,1.43-.94,2.14-.35,1.08-.72,1.73-.5,1.69-.55,2.55-.19,1.59-1.46,2.05c-1.27,.46-2.9,.31-2.9,.31v.64s1.42,.29,3.2-.46c1.78-.75,1.43-1.48,1.76-1.89,.38-.47,1.48-1.28,2.06-.36,.58,.92,1.52,1.92,2.43,2.13,1.15,.28,1.73,.17,1.73,.17l-.05-.34s-1.72,.03-2.11-.29c.68-.13,1.9-.6,1.9-.6l-.06-.21s-1.15,.61-2.25,.38c-.43-.09-1.12-1.25-1.12-1.25,0,0,1.24,.04,1.67-.06,.42-.09,1.21-.35,1.21-.35l-.15-.27s-.62,.29-1.4,.38c-.72,.08-1.78-.22-1.95-.56-.17-.34,.27-1.06,.67-1.26s1.31-.6,1.31-.6l-.16-.22s-.91,.36-1.26,.56c-.35,.19-.48,.32-.82,.93-.27,.48-.56,.52-1.01,.78-.41,.23-.9,.62-.9,.62,0,0-.17-1.49,.39-2.44,.58-.98,.64-1.35,.81-1.59,.33-.46,1.61-.37,1.61-.37l-.15-.22s-1.05-.14-1.39,.19c-.02-.84,.67-1.94,.67-1.94l-.05-.29Z"/></g></svg>