<?xml version="1.0" encoding="utf-8"?>
<svg xmlns="http://www.w3.org/2000/svg" viewBox="46.4877 125.5866 40.6565 31.1858" width="40.6565px" height="31.1858px"><defs><style>
      .cls-1 {
        fill: #d6734c;
      }

      .cls-2, .cls-3, .cls-4, .cls-5, .cls-6, .cls-7, .cls-8, .cls-9, .cls-10, .cls-11, .cls-12, .cls-13, .cls-14, .cls-15, .cls-16, .cls-17 {
        opacity: .5;
      }

      .cls-2, .cls-18 {
        fill: #ea8b60;
      }

      .cls-19, .cls-7, .cls-20 {
        fill: #ff7b94;
      }

      .cls-21 {
        fill: #e8426a;
      }

      .cls-22 {
        fill: #dd3e4e;
      }

      .cls-23 {
        fill: #e23354;
      }

      .cls-3, .cls-24 {
        fill: #f4996c;
      }

      .cls-4, .cls-25, .cls-26 {
        fill: #ff9cb4;
      }

      .cls-27 {
        fill: #59a038;
      }

      .cls-5, .cls-28 {
        fill: #ba5b5b;
      }

      .cls-29 {
        fill: #ffb38d;
      }

      .cls-30 {
        fill: #4174e5;
      }

      .cls-6, .cls-31, .cls-32 {
        fill: #ffc1a6;
      }

      .cls-33 {
        fill: #bf2a26;
      }

      .cls-34 {
        fill: #b55454;
        opacity: .6;
      }

      .cls-31, .cls-35, .cls-25, .cls-20, .cls-28 {
        opacity: .7;
      }

      .cls-36 {
        fill: #892c29;
      }

      .cls-8 {
        fill: #ed5551;
      }

      .cls-35, .cls-37 {
        fill: #ff5f76;
      }

      .cls-38 {
        fill: #fea97a;
      }

      .cls-39 {
        fill: #ffcdbb;
      }

      .cls-40 {
        fill: #2a66d1;
      }

      .cls-41 {
        fill: #e5937a;
      }

      .cls-9 {
        fill: #ffa9be;
      }

      .cls-42 {
        fill: #ce392e;
      }

      .cls-43 {
        fill: #d63048;
      }

      .cls-10 {
        fill: #e54c41;
      }

      .cls-44 {
        fill: #e08686;
      }

      .cls-45 {
        fill: #528bef;
      }

      .cls-46 {
        fill: #bc2f40;
      }

      .cls-47 {
        fill: #96362f;
      }

      .cls-11 {
        fill: #ff9f9f;
      }

      .cls-12 {
        fill: #ef566d;
      }

      .cls-48 {
        fill: #e83f57;
      }

      .cls-49 {
        fill: #dd7b54;
      }

      .cls-50 {
        fill: #c9633f;
      }

      .cls-51 {
        fill: #a84848;
      }

      .cls-13 {
        fill: #f46060;
      }

      .cls-52 {
        fill: #7c1e1e;
      }

      .cls-53 {
        fill: #609cf4;
      }

      .cls-54 {
        fill: #d37863;
      }

      .cls-14, .cls-55 {
        fill: #ffd0c0;
      }

      .cls-56 {
        fill: #f4bba6;
      }

      .cls-57 {
        fill: #a03f3d;
      }

      .cls-58 {
        fill: #d64532;
      }

      .cls-15 {
        fill: #ffbbce;
      }

      .cls-16 {
        fill: #f9738d;
      }

      .cls-59 {
        fill: #f44d5d;
      }

      .cls-17 {
        fill: #ffccdc;
      }

      .cls-60 {
        fill: #f2aa91;
      }

      .cls-61 {
        fill: #ce1743;
      }

      .cls-62 {
        fill: #cc173a;
      }

      .cls-63 {
        fill: #70b753;
      }

      .cls-64 {
        fill: #ffe7e1;
      }

      .cls-65 {
        fill: #e88b62;
      }

      .cls-66 {
        fill: #d6253f;
      }
    </style></defs><g transform="matrix(1, 0, 0, 1, 0.8982086181640341, 2.2455270290374756)" id="object-4"><path class="cls-63" d="M57.71,150.38c-.44-.18-1.02,.08-1.43,.19-.87,.23-1.73,.46-2.6,.69-.21,.06-.22,.29-.12,.42,.36,1.81,3.04,1.82,4.06,.57,.37-.45,.89-1.54,.08-1.87Z"/><path class="cls-27" d="M57.15,150.38c-.59-.24-2-.17-2.24,.54,0,0,0,.02,0,.02-.26,.32-.24,.76,.1,1.16,.69,.79,1.53,.58,2.25-.05,.57-.5,.74-1.32-.1-1.67Z"/><path class="cls-42" d="M67.54,137.15c0-1.12-.11-2.22-.31-3.26,0-.04-.06-.03-.07,0-.3,2.71,0,5.53-1.26,8.07-1.19,2.41-3.91,4.64-6.3,5.78-1.37,.65-2.85,1-4.35,1.19-1.13,.14-2.32,.16-3.4,.59-.99,.4-1.43,1.13-2.19,1.82-.83,.76-1.63,.9-2.37,.69,.04,.16,.07,.33,.11,.49,.27,1.13,.8,2.37,2.07,1.39,1.02-.79,1.72-1.45,3-1.84,1.02-.31,2.09-.45,3.15-.61,1.99-.32,3.9-.84,5.7-1.76,1.75-.9,3.35-2.13,4.59-3.67,.57-.72,1.07-1.49,1.45-2.33,.47-1.01,.69-1.97,1.71-2.18-.34-1.48-.8-2.91-1.26-4.17-.05-.14-.16-.19-.28-.2Z"/><g><path class="cls-58" d="M68.57,126.37c.03-.07,.1-.1,.16-.08,.14-.37,.32-.72,.56-1.04-.22,.08-.44,.16-.67,.23-4.8,1.48-8.64-2.72-13.39-2.07-3.75,.51-6.81,3.52-8.23,6.91-1.94,4.61-1.5,9.9-.9,14.74,.29,2.34,.67,4.68,1.2,6.98,.74,.21,1.54,.06,2.37-.69,.76-.69,1.19-1.42,2.19-1.82,1.07-.43,2.27-.44,3.4-.59,1.5-.19,2.98-.53,4.35-1.19,2.39-1.14,5.12-3.37,6.3-5.78,1.25-2.53,.95-5.35,1.26-8.07,0-.03,.06-.05,.07,0,.2,1.04,.31,2.15,.31,3.26,.11,0,.23,.06,.28,.2,.05,.13,.1,.28,.15,.41-.25-1.4-.42-2.83-.41-4.24,.02-2.33,.12-4.98,1.02-7.15Z"/><path class="cls-58" d="M68.98,129.23c-.04,1.44-.1,2.9-.04,4.34,.08,1.74,.51,3.63,2.04,4.67,1.62,1.11,3.45,.23,5.03-.52,1.35-.64,2.68-1.45,3.65-2.61,.96-1.15,1.39-2.59,1.95-3.95,.38-.92,.83-1.85,1.53-2.58,.99-1.03,2.83-1.61,3.03-3.14-.08-.21-.24-.38-.48-.49-1.04-.5-2.44-.11-3.27-.21-1.52-.19-3.88-.77-5.39-.86-3.14-.18-4.99,.36-6.52,.92,0,.07-.03,.13-.08,.18-1.2,1.16-1.39,2.65-1.44,4.25Z"/><path class="cls-46" d="M70.05,124.51c-.3,.22-.55,.47-.76,.74,.39-.14,.79-.3,1.21-.45,.01-.22-.23-.45-.45-.29Z"/><path class="cls-42" d="M69.81,141.49c4.37,.44,8.47-1.67,11.15-5.06,1.64-2.08,2.27-4.42,3.44-6.73,.39-.77,2.24-3.09,1.77-4.25-.2,1.53-2.03,2.11-3.03,3.14-.7,.73-1.14,1.65-1.53,2.58-.56,1.36-.99,2.8-1.95,3.95-.97,1.16-2.29,1.97-3.65,2.61-1.58,.75-3.41,1.63-5.03,.52-1.53-1.04-1.96-2.93-2.04-4.67-.07-1.44,0-2.9,.04-4.34,.05-1.6,.23-3.09,1.44-4.25,.06-.05,.08-.12,.08-.18-.42,.15-.82,.31-1.21,.45-.24,.32-.42,.67-.56,1.04-.06-.01-.13,0-.16,.08-.91,2.17-1,4.82-1.02,7.15-.01,1.42,.16,2.84,.41,4.24,.41,1.16,.81,2.43,1.11,3.75,.21-.04,.45-.05,.73-.02Z"/></g><path class="cls-10" d="M65.3,130.27c-.71-4.76-5.77-6.85-10.5-6.07-3.72,.61-6.2,3.26-7.51,6.36-.98,2.33-1.26,4.88-1.13,7.39,.06,1.2,.2,2.4,.4,3.59,.15,.86,.35,1.91,1.09,2.48,1.36,1.05,2.9-.99,3.71-1.87,.81-.88,1.59-1.81,2.59-2.48,1.15-.77,2.5-1.04,3.84-1.27,2.19-.38,4.32-.8,5.84-2.55,1.33-1.52,1.96-3.58,1.66-5.58Z"/><path class="cls-8" d="M61.5,126.1c-.88-.97-1.89-1.25-3.42-1.53-2.63-.48-5.58,.47-7.65,2.06-1.15,.88-1.99,2.04-2.55,3.37-.5,1.21-1.08,2.87-.84,4.21,.21,1.15,1.15,1.49,2.22,1.58,1.78,.14,3.57-.16,5.22-.83,1.55-.63,3.1-1.37,4.51-2.27,1.09-.69,2.5-1.62,3.02-2.85,.53-1.23,.42-2.71-.51-3.74Z"/><path class="cls-13" d="M60.19,127.19c-.32-1.63-3.26-2.03-4.86-1.94-2.77,.16-5.64,2.11-6.73,4.89-.32,.8-1.11,2.55,.51,3.15,1.13,.42,3.75-.51,4.69-.74,2.17-.53,6.84-3.06,6.4-5.36Z"/><g><path class="cls-38" d="M67.43,129.44c.53,2.85,.6,5.86,.91,8.74,.13,1.19,.43,2.25,.85,2.8,.31,.41,.66,.69,1.03,.94,.14-.23,.25-.39,.25-.39,0,0-1.66-1.34-1.79-5.29-.13-3.95-.52-8.05,.07-9.56,.59-1.51,4.09-2.59,4.09-2.59,0,0-1.29-.62-2.8-.36-1.51,.27-2.68,2.04-4.43,1.15-.66-.34-1.79-.78-3.04-1.11,2.41,1.01,4.41,3.21,4.87,5.66Z"/><path class="cls-24" d="M69.6,143.22c.14-.46,.41-.96,.62-1.29-.37-.24-.72-.52-1.03-.94-.42-.56-.72-1.61-.85-2.8-.31-2.88-.38-5.89-.91-8.74-.45-2.46-2.46-4.65-4.87-5.66-1.49-.39-3.15-.6-4.35-.22,.27,.06,.55,.12,.83,.2,4.24-.56,7.48,3.01,8.14,6.8,.46,2.67,.58,5.93,.78,8.63,.09,1.3,.5,3.09,.19,4.53,.26,.15,.56,.41,.84,.87,.7,1.15,1.06,1.8,1.06,1.8l.72-.36s-1.4-2.01-1.17-2.8Z"/><path class="cls-65" d="M67.96,139.18c-.19-2.7-.31-5.96-.78-8.63-.66-3.79-3.9-7.36-8.14-6.8,1.06,.28,2.22,.7,3.46,1.39,1.17,.65,1.9,1.53,2.39,2.14,.91,1.14,1.59,2.43,1.98,4.55,.63,3.42,.58,11.68,.58,11.68,0,0,.31-.02,.7,.21,.31-1.45-.1-3.24-.19-4.53Z"/></g><path class="cls-10" d="M73.7,124.49c-2,.56-3.53,1.39-4.09,3.67-.31,1.26-.58,3.44,.06,4.65,.67,1.27,2.26,.56,3.31,.18,2.71-.98,6.13-2.91,6.74-6.22,.34-1.85-3.52-2.98-6.02-2.27Z"/><path class="cls-8" d="M76.61,125.83c-.24-1.88-4.82-1.4-6.31,1.68-.33,.68-.51,2.18,.07,2.78,.71,.75,2.24-.02,2.98-.31,1.59-.64,3.55-1.97,3.26-4.15Z"/><path class="cls-13" d="M74.81,125.65c-.42-1.14-3.11,.41-3.7,1.44-.14,.25-.35,.69-.05,.92,.38,.3,1.02-.31,1.33-.47,.61-.31,2.82-.82,2.42-1.88Z"/><path class="cls-11" d="M72.15,126.55c-.42,0-.74,.45-.74,.81,0,.43,.65-.01,.77-.13,.12-.11,.26-.27,.23-.45-.02-.14-.13-.23-.26-.23Z"/><path class="cls-11" d="M73.92,125.58c-.34-.07-1.04,.22-1.09,.65-.02,.15,.16,.15,.29,.14,.25-.02,.49-.06,.72-.16,.14-.06,.36-.15,.37-.33,0-.16-.15-.27-.29-.3Z"/><path class="cls-33" d="M85.89,126.93c-1.36,1.48-2.2,3.17-3.07,4.98-.81,1.7-1.59,3.36-2.81,4.82-1.08,1.3-2.39,2.42-3.87,3.24-1.19,.66-4.33,2.19-6.08,.96-.25-.18-.29,0-.17,.15,.66,.89,2.51,.91,3.83,.58,1.87-.47,3.58-1.52,5.03-2.77,1.52-1.31,2.76-2.95,3.65-4.74,.71-1.43,1.41-3.07,2.14-4.49,.51-1,1.1-1.82,1.42-2.63,.03-.07-.03-.14-.07-.08Z"/><path class="cls-33" d="M67.46,142c0-.06-.11-.05-.11,.02,.09,2.74-2.19,4.34-4.16,5.81-1.97,1.47-3.89,2.51-6.3,3.01-1.97,.41-4.03,.64-5.84,1.58-.44,.23-.87,.5-1.28,.94-.16,.18-.98,1.35-1.81,.52-.19-.19-.61-1.63-.67-1.88-.16-.68-.18-1.43-.35-2.11-.07-.29-.16-.36-.14-.05,.1,1.05,.12,5.22,2.06,4.63,.48-.15,.84-.53,1.21-.83,.65-.52,1.39-.92,2.17-1.22,1.39-.54,2.96-.76,4.41-1.05,2.87-.58,5.02-1.63,7.32-3.45,1.82-1.43,3.9-3.02,3.47-5.9Z"/><path class="cls-1" d="M72.84,124.1c-1.15,.15-2.57,.89-3.45,1.64-.97,.84-1.08,2-1.11,3.2-.04,1.79,.12,3.59,.23,5.38,.1,1.63,.07,3.31,.61,4.87,.02,.05,.07,.05,.06,0-.26-1.31-.31-2.65-.37-3.98-.07-1.42-.22-2.84-.28-4.26-.06-1.34-.21-3.59,.6-4.72,.78-1.08,2.53-1.65,3.71-2.09,.03-.01,.04-.06,0-.05Z"/><path class="cls-1" d="M67.33,133.53c-.1-1.59-.33-3.23-1.17-4.63-1.45-2.42-3.28-4.63-7.37-5.23-.03,0-.13,.02,.02,.07,.11,.03,2.22,.46,3.79,1.51,1.79,1.19,2.8,2.81,3.36,3.86,.78,1.5,1.04,3.47,1.14,5.12,.1,1.59,.19,3.33,.25,4.92,.01,.32,.07,.19,.08,.08,.13-1.86,.01-3.92-.1-5.7Z"/><path class="cls-11" d="M49.73,130.13c-.14-.13-.34-.07-.46,.04-.22,.2-.33,.56-.4,.84-.04,.17-.13,.44-.02,.59,0,0,0,0,0,0,.27,.6,.77-.77,.84-.93,.07-.17,.21-.4,.04-.55Z"/><path class="cls-11" d="M54.24,125.85c-1.65,.44-3.69,2.01-4.1,3-.3,.73,1.4-.82,2.69-1.51,1.3-.7,2.75-.96,4.47-.6,.3,.06,1.11-.15,.88-.52-.5-.79-3.36-.52-3.95-.37Z"/></g></svg>