<?xml version="1.0" encoding="utf-8"?>
<svg xmlns="http://www.w3.org/2000/svg" viewBox="47.6338 63.9455 55.8989 64.785" width="55.8989px" height="64.785px"><defs><style>
      .cls-1 {
        fill: #d6734c;
      }

      .cls-2, .cls-3, .cls-4, .cls-5, .cls-6, .cls-7, .cls-8, .cls-9, .cls-10, .cls-11, .cls-12, .cls-13, .cls-14, .cls-15, .cls-16, .cls-17 {
        opacity: .5;
      }

      .cls-2, .cls-18 {
        fill: #ea8b60;
      }

      .cls-19, .cls-7, .cls-20 {
        fill: #ff7b94;
      }

      .cls-21 {
        fill: #e8426a;
      }

      .cls-22 {
        fill: #dd3e4e;
      }

      .cls-23 {
        fill: #e23354;
      }

      .cls-3, .cls-24 {
        fill: #f4996c;
      }

      .cls-4, .cls-25, .cls-26 {
        fill: #ff9cb4;
      }

      .cls-27 {
        fill: #59a038;
      }

      .cls-5, .cls-28 {
        fill: #ba5b5b;
      }

      .cls-29 {
        fill: #ffb38d;
      }

      .cls-30 {
        fill: #4174e5;
      }

      .cls-6, .cls-31, .cls-32 {
        fill: #ffc1a6;
      }

      .cls-33 {
        fill: #bf2a26;
      }

      .cls-34 {
        fill: #b55454;
        opacity: .6;
      }

      .cls-31, .cls-35, .cls-25, .cls-20, .cls-28 {
        opacity: .7;
      }

      .cls-36 {
        fill: #892c29;
      }

      .cls-8 {
        fill: #ed5551;
      }

      .cls-35, .cls-37 {
        fill: #ff5f76;
      }

      .cls-38 {
        fill: #fea97a;
      }

      .cls-39 {
        fill: #ffcdbb;
      }

      .cls-40 {
        fill: #2a66d1;
      }

      .cls-41 {
        fill: #e5937a;
      }

      .cls-9 {
        fill: #ffa9be;
      }

      .cls-42 {
        fill: #ce392e;
      }

      .cls-43 {
        fill: #d63048;
      }

      .cls-10 {
        fill: #e54c41;
      }

      .cls-44 {
        fill: #e08686;
      }

      .cls-45 {
        fill: #528bef;
      }

      .cls-46 {
        fill: #bc2f40;
      }

      .cls-47 {
        fill: #96362f;
      }

      .cls-11 {
        fill: #ff9f9f;
      }

      .cls-12 {
        fill: #ef566d;
      }

      .cls-48 {
        fill: #e83f57;
      }

      .cls-49 {
        fill: #dd7b54;
      }

      .cls-50 {
        fill: #c9633f;
      }

      .cls-51 {
        fill: #a84848;
      }

      .cls-13 {
        fill: #f46060;
      }

      .cls-52 {
        fill: #7c1e1e;
      }

      .cls-53 {
        fill: #609cf4;
      }

      .cls-54 {
        fill: #d37863;
      }

      .cls-14, .cls-55 {
        fill: #ffd0c0;
      }

      .cls-56 {
        fill: #f4bba6;
      }

      .cls-57 {
        fill: #a03f3d;
      }

      .cls-58 {
        fill: #d64532;
      }

      .cls-15 {
        fill: #ffbbce;
      }

      .cls-16 {
        fill: #f9738d;
      }

      .cls-59 {
        fill: #f44d5d;
      }

      .cls-17 {
        fill: #ffccdc;
      }

      .cls-60 {
        fill: #f2aa91;
      }

      .cls-61 {
        fill: #ce1743;
      }

      .cls-62 {
        fill: #cc173a;
      }

      .cls-63 {
        fill: #70b753;
      }

      .cls-64 {
        fill: #ffe7e1;
      }

      .cls-65 {
        fill: #e88b62;
      }

      .cls-66 {
        fill: #d6253f;
      }
    </style></defs><g transform="matrix(1, 0, 0, 1, 0.8982086181640341, 2.2455270290374756)" id="object-1"><g><path class="cls-65" d="M73.59,109.08c-.03-.18-.32-.18-.33,.01,0,.26-.01,.53-.02,.8-.15-.2-.41-.32-.7-.23-6.6,2.08-13.06,5.1-19.16,8.34-1.72,.92-5.21,4.75-3.2,7.49,1.15,1.56,6.17,.94,8.71,.45,3.1-.59,6.87-1.44,9.79-2.66,2.38-1,4.2-1.71,4.84-4.34,.78-3.21,.71-6.65,.07-9.86Z"/><path class="cls-49" d="M72.74,111.93c0-.15-.3-.1-.3,.05,0,.11,0,.22,0,.33-.22-.13-.55-.11-.67,.2-.85,2.08-3.19,2.85-5.07,3.74-1.81,.85-3.62,1.68-5.44,2.5-3.78,1.71-7.58,3.36-11.41,4.97-.39,.16-.32,.69,.03,.87,5.45,2.72,13.25-.41,18.34-2.47,4.11-1.66,4.68-5.13,4.52-10.19Z"/><path class="cls-65" d="M73.1,82.62c-1.31-4.23-3.96-6.78-7.06-7.38,.26,1.05,2.16,2.15,2.13,2.24-1.09,2.97-.88,6.7-.39,9.8,.25,1.55,.81,6.36,2.59,6.93,.27,.09,.59-.02,.69-.31,.66-1.94,1.32-3.87,1.97-5.81,.5-1.48,.55-3.92,.07-5.46Z"/><path class="cls-49" d="M71.86,86.61c-.08-1.54-.83-2.53-1.83-3.58-.02-.1-.03-.2-.06-.3-.04-.13-.22-.16-.27-.05-.01-.01-.03-.03-.04-.04-.04-.04-.09,0-.06,.05,.02,.04,.05,.07,.08,.11-.18,2.97-.53,5.81,.34,8.71,.05,.17,.29,.28,.41,.1,.97-1.49,1.54-3.21,1.45-5Z"/><g><path class="cls-38" d="M53.18,121.84c-.26-.19-.03-.61,.27-.49,4.76,1.92,11.17-.59,14.6-4.17,1.71-1.79,2.91-4,3.62-6.37,.37-1.24,.61-2.53,.74-3.81,.05-.51,.16-1.11,.11-1.62,0-.27,.02-.54,.03-.81l-1.56-1.66c-.18,.11-.39-.07-.27-.26,.15-.23,.29-.4,.44-.52-.06-.02-.11-.06-.15-.12-.01-.02-.03-.05-.04-.08-.31,.22-.66,.38-1.07,.44-.18,.03-.35-.19-.22-.35,1.95-2.26,1.84-4.32,.66-6.97-.85-1.91-1.67-3.73-2.04-5.8-.42-2.36-.18-4.71-.2-7.09-.02-2.37-.25-5.75-2.54-7.1-2.19-.92-3.47-.45-8.85,5.89-3.13,3.68-6.27,9.09-7.63,13.73-.2,.68-.58,2.21-1.01,4.77-.08,.49-.16,1.01-.25,1.58-.11,.4-.2,.81-.29,1.23-1.03,4.84-1,11.04-.16,15.31,.38,1.97,.8,4.01,1.47,5.9,.33,.93,.65,1.72,1.67,2.35,.27-.5,3.08-1.28,4.19-1.64,1.43-.45,2.52-.77,3.51-1.08-1.73,.15-3.45-.14-5.02-1.25Z"/><path class="cls-24" d="M70.85,116.46c2.65-2.74,3.52-6.63,3.61-10.28,.04-1.63-.07-3.44-.68-5.83-.09-.34-.18-.69-.29-1.05-.15-.81-.33-1.63-.54-2.47-.46-1.8-1.08-3.74-2.01-6.01-.75-1.85-.97-3.94-.61-5.89,.22-1.17-.66-8.78-4.99-9.94-.06-.02,.06,.01,0,0,2.29,1.35,2.73,4.82,2.75,7.18,.02,2.38-.22,4.73,.2,7.09,.37,2.07,1.19,3.89,2.04,5.8,1.19,2.65,1.29,4.72-.66,6.97-.13,.15,.04,.37,.22,.35,.41-.06,1.1-.38,1.11-.36,.04,.06-.15,.42-.3,.65-.12,.19,.09,.37,.27,.26,0,0,1.08,1.21,1.16,3.98,.04,1.29-.1,2.68-.47,3.92-.71,2.37-1.91,4.57-3.62,6.37-3.42,3.58-9.83,6.09-14.6,4.17-.3-.12-.53,.31-.27,.49,1.57,1.11,3.28,1.4,5.02,1.25,1.05-.33,2-.65,3.14-1.13,3.28-1.37,6.99-2.9,9.51-5.5Z"/></g><path class="cls-29" d="M55.12,104.54c3.32,.34,8.76-1.39,12.2-4.36,1.99-1.72,1.1-5.41,.54-8.59-.69-4.01-1.59-8.37-1.53-10.91,.03-1.29-.42-3.3-.96-4.03-2.96-3.97-9.29,7.75-10.31,10.14-1.91,4.47-3.1,9.23-3.71,14.06,.36,2.03,1.53,3.46,3.77,3.69Z"/><path class="cls-29" d="M60.03,108.55c-1.41,.22-3.53,.38-4.95,.19-.82-.11-3.86-1.07-4.23,.86-.54,2.85-.09,7.08,1.85,9.47,.93,1.14,4-.1,6.49-2.11,1.91-1.54,4.73-5.24,5.08-5.96,2.23-4.46-2.69-2.69-4.25-2.45Z"/><path class="cls-32" d="M54.77,102.23c1.57,.32,3.57-.35,4.97-1.03,2.15-1.04,4.82-4.13,4.58-7-.15-1.76-.84-10.27-.24-11.98,.45-1.28,1.16-5.48-1.29-4.83-1.15,.3-2.35,2.18-3.09,3.3-2.21,3.37-4.12,7.52-5.2,10.86-.66,2.05-1.76,5.23-1.74,8,0,1.23,.67,2.39,2.01,2.67Z"/><path class="cls-24" d="M46.76,108.43v2.74s.87,3.99,2.63,7.38c2.4,4.64,6.47,5.26,6.47,5.26l2.74-.84s-2.58-.35-5.12-2.14c-2.54-1.79-4.14-5.28-5.14-7.45-1-2.17-1.58-4.95-1.58-4.95Z"/><path class="cls-55" d="M62.76,78.75c-.47,.33-1.67,1.83-2.74,3.83s-2,4.48-2.27,5.87c-.18,.9,.43,1.04,.8,.32,.79-1.52,.86-3.28,1.56-4.43,1.34-2.19,2.58-3.09,3.22-5.17,.12-.38-.3-.61-.57-.42Z"/><path class="cls-24" d="M51.22,106.9c2.94,1.24,7.08,1.16,10.11,.57,4.31-.84,9.75-3.17,12.46-7.12-.09-.34-.18-.69-.29-1.05-.15-.81-.33-1.63-.54-2.47-.67,1.73-2.47,4.29-3.62,5.14-2.18,1.62-5,2.81-7.59,3.47-2.93,.75-6.13,1.26-9.09,.15-2.83-1.06-3.54-3.74-4.58-6.14-.08,.49-.16,1.01-.25,1.58-.11,.4-.2,.81-.29,1.23,.55,2.08,1.74,3.82,3.7,4.65Z"/><path class="cls-55" d="M58.1,91.15c.15-.77-.53-1.03-1.05-.07-.24,.44-.4,1.43-.35,1.71,.09,.55,.74,.44,.85,.31,.58-.7,.43-1.32,.55-1.94Z"/><path class="cls-18" d="M73.41,98.92c-2.37,4.5-8.2,6.59-12.89,7.48-4.85,.92-11.37,.53-12.68-5.37,0-.02-.04-.02-.04,0-.06,5.5,6.53,6.75,10.79,6.26,4.93-.58,13.25-2.6,14.88-8.07-.03-.1-.03-.21-.06-.3Z"/><path class="cls-18" d="M57.14,123.42c.27-.1,.58-.14,.84-.26-6.83-.78-9.31-7.74-11.24-13.49-.01,.2,0,.38,0,.58,1.33,5.57,4.08,12.57,10.41,13.18Z"/><path class="cls-32" d="M61.27,110.27c.02-.89-.8-.93-1.56-.83-.82,.12-3.04,.34-4.54,.02-2.14-.45-2.84-.29-3.28,.19-.55,.6-.39,1.81-.28,2.5,.15,.89,.58,2.41,1.39,2.94,.88,.58,2.28-.2,3.12-.54,1.31-.53,5.1-2.65,5.14-4.29Z"/><path class="cls-55" d="M53.71,110.04c-.31-.11-.63-.08-.88,.19-.29,.3-.35,.77-.31,1.15,.05,.43,.24,.98,.58,1.26,.36,.28,.77,.16,.98-.22,.41-.72,.63-2.01-.38-2.37Z"/><path class="cls-1" d="M73.44,98.62c.04-.6-.04-1.21-.2-1.82-.42-2.28-1.66-4.42-2.26-6.65-.5-1.86-.25-3.62-.17-5.51,.07-1.52-.15-3.03-.72-4.45,0-.02-.04,0-.03,.01,.34,1.84,.4,3.61,.19,5.47-.17,1.56-.2,3.03,.2,4.56,.71,2.72,2.15,4.85,2.52,7.65,.18,1.38-.55,2.68-1.52,3.64-1.42,1.4-3.19,2.39-5.03,3.12-4.21,1.68-8.88,2.56-13.34,1.68-.1-.02-.04,.07,.05,.11,4.52,1.54,10.24,.04,14.45-1.89,1.94-.89,3.78-2.13,5.09-3.85,.37-.49,.59-1.03,.7-1.58,1.03,3.38,1.15,6.7,.36,10.19-.41,1.81-1,3.25-1.71,4.97-.79,1.91-2.07,3.13-3.89,4.27-2.86,1.79-6.29,3.47-9.64,4.07-4.17,.75-6.89-2.6-8.98-5.69-.05-.08-.19,0-.14,.09,1.78,2.97,4.14,6.26,8.01,6.17,1.9-.04,3.78-.82,5.51-1.53,1.94-.79,3.82-1.72,5.61-2.78,1.35-.8,2.63-1.81,3.43-3.2,1.03-1.79,1.67-3.82,2.15-5.82,.86-3.59,1.14-7.86-.66-11.23Z"/></g><g><path class="cls-65" d="M100.81,121.93c-.12-.02-2.39-6.75-3.44-10.14-.53-1.73-1.08-3.45-1.45-5.23-.38-1.84-.6-3.7-.98-5.53-1.45-7-4.4-13.59-7.66-19.92-.66-1.28-1.3-3.34-2.63-4.09-.48-.27-1.03-.32-1.48-.13-4.2,4.49-4.1,10.35-5.15,18.5-.66,5.14-3.6,19.47,.73,25.37,1.71,2.32,5.83,3.07,8.39,3.73,3.86,1.01,8.37,1.44,12.18,1.41,.9,0,2.86-.07,2.87-1.05,0-.68-1-2.87-1.38-2.92Z"/><path class="cls-49" d="M101.77,120.26c-.28-4.89-2.21-9.73-6.09-12.83-2.23-1.79-4.87-2.98-7.58-3.87-3.07-1.01-9.62-4.19-9.55-4.1-.13,2.76-.21,7.25-.05,10,.14,2.45,.48,5.59,1.15,7.97,1.4,4.93,8.29,5.58,13.07,6.65,1.25,.28,2.51,.5,3.77,.65,1.06,.13,2.22,.27,3.24-.13,1.76-.7,2.12-2.63,2.03-4.32Z"/><path class="cls-38" d="M99.82,94.58c-2.15-6.41-5.85-12.08-10.76-16.87-1.05-1.02-2.41-1.98-3.95-1.84-.95,.08-1.79,.58-2.25,1.36-.91,1.51-.91,3.69-1.01,5.33-.12,2.2-.81,4.25-1.89,6.16-.8,1.41-1.83,3.08-2.26,4.68-1.08,3.99,.53,8.92,2.72,11.06,4.79,4.69,4.73,7.69,4.67,10.79-.04,2.06,.76,4.1,2.27,5.38,.97,.82,2.29,1.21,3.43,1.65,1.61,.62,2.82,1.01,3.62,1.11,2.8,.37,6.44,.52,7.78,1.44,.41-2.66,.71-9.93,.09-19.08-.23-3.37-1.11-7.16-2.46-11.19Z"/><path class="cls-24" d="M102.46,109.2c-.32,.99-.88,2.57-1.59,3.9-1.12,2.11-2.92,5.5-5.57,7.13-2.65,1.64-5.65,1.72-5.65,1.72,0,0,1.01,.22,1.24,.34,.82,.42,1.99,.76,1.99,.76,0,0,3.97-.36,6.64-4.85,1.82-3.05,2.89-6.58,3.03-7.07-.03-.62-.06-1.31-.1-1.93Z"/><path class="cls-18" d="M102.51,109.95c-2.24,5.53-5.12,11.96-12.18,12.22,.25,.14,.98,.29,1.25,.4,6.2-.22,9.28-6.71,10.97-12.12-.01-.17-.03-.34-.04-.51Z"/><path class="cls-1" d="M100.72,114.45c-1.88,3.87-5.08,7.76-9.57,7.69-2.12-.03-3.82-1.31-4.9-3.14-.9-1.52-1.1-3.15-1.17-4.83,.03-.02,.04-.05,.05-.1,.22-2.83-1.05-5.38-2.85-7.47-2.09-2.42-3.87-4.78-4.52-8-.66-3.3,.18-6.16,1.8-9.03,1.46-2.58,2.5-4.98,2.26-8.02,0-.03-.05-.02-.05,0-.29,1.88-.39,3.63-1.23,5.37-.66,1.37-1.5,2.64-2.18,4-1.13,2.26-1.49,4.72-1.1,7.22,.39,2.49,1.5,4.84,3.05,6.82,1.02,1.3,2.26,2.45,3.11,3.88,.83,1.4,1.21,2.88,1.36,4.45-.43,4.05,1.64,8.74,6.15,9.15,4.53,.41,8.28-4.21,9.92-7.92,.04-.1-.11-.14-.15-.05Z"/><path class="cls-29" d="M97.54,112.33c-2.87,3.25-6.87,4.09-7.97-2.03-.6-3.33-3.51-6.74-5.39-8.1-2.64-1.9-4.34-5.79-2.76-9.14,2.06-4.37,2.77-7.53,2.63-10.06-.07-1.29,.33-3.31,.85-4.05,2.85-4.05,9.5,7.5,10.58,9.86,2.03,4.42,4.08,9.09,4.09,13.96,0,2.06-.54,7.88-2.03,9.57Z"/><path class="cls-32" d="M96.46,108.76c-3.21,1.21-3.31-3.08-5.27-5.43-3.2-3.85-7.65-3.59-6.5-8.17,.43-1.72,2.8-5.38,1.65-10.68-.29-1.32-1.31-5.44,1.16-4.86,1.16,.27,2.41,2.12,3.17,3.22,2.3,3.31,4.32,7.4,5.49,10.72,.72,2.03,1.75,5.19,1.96,7.95,.19,2.56-.38,6.78-1.67,7.26Z"/><path class="cls-55" d="M87.82,80.95c.49,.29,1.83,1.68,3.06,3.57,1.24,1.89,2.38,4.29,2.77,5.65,.26,.88-.34,1.07-.77,.39-.92-1.45-1.15-3.19-1.95-4.27-1.53-2.07-2.84-2.85-3.66-4.87-.15-.37,.25-.63,.54-.46Z"/><path class="cls-55" d="M93.54,92.89c-.22-.75,.44-1.07,1.04-.17,.28,.42,3.05,6.01,2.18,9.34-.25,.98-.98,1.33-1.34,.7-.89-1.59-.16-4.31-.46-5.7-.59-2.74-1.31-3.77-1.42-4.18Z"/></g><g><g><g><path class="cls-32" d="M76.2,74.89c.03-1.87,.01-9.77,0-12.27-.41,.13-.94,.25-1.43,.25-.42,0-.78-.04-1.1-.09,.3,2.56,.34,5.17,.42,7.74,.09,2.96,.1,5.92,.04,8.88-.04,2.3-.12,4.69-1,6.84-.52,1.28-1.34,2.31-2.29,3.24,.22,1.04,.61,2.08,.95,2.99,.81-1.2,1.67-2.52,1.99-3.24,.59-1.33,1.36-3.85,1.36-3.85,0,0,.76,2.81,3.1,5.79,.4-.79,1.12-1.92,1.57-2.86-.41-.56-1.07-1.44-1.65-2.35-2.36-3.65-1.99-8.83-1.96-11.06Z"/><path class="cls-60" d="M76.95,75.14c-.08-3.68,0-12.8,0-12.8,0,0-.31,.14-.75,.27,0,2.51,.03,10.41,0,12.27-.04,2.23-.4,7.41,1.96,11.06,.59,.91,1.08,1.62,1.49,2.18,.25-.52,.44-.9,.48-.96-2.72-3.5-3.1-8.37-3.17-12.02Z"/></g><path class="cls-39" d="M73.14,86.24c.88-2.16,.95-4.55,1-6.84,.06-2.96,.05-5.92-.04-8.88-.07-2.57-.11-5.18-.42-7.74-.7-.11-1.13-.28-1.13-.28,0,0,0,15.86,0,18.6,0,2.62-.8,4.78-1.89,6.83,0,.51,.07,1.03,.18,1.55,.95-.93,1.77-1.96,2.29-3.24Z"/></g><g><path class="cls-41" d="M75.77,64.43c-1.69,.2-2.65-.15-3.25-.44v.57c1.04,.69,2.94,.67,4.41,.15v-.6c-.35,.16-.73,.26-1.17,.31Z"/><path class="cls-41" d="M75.77,66.46c-1.69,.2-2.65-.15-3.25-.44v.57c1.04,.69,2.94,.67,4.41,.15v-.6c-.35,.16-.73,.26-1.17,.31Z"/><path class="cls-41" d="M75.77,68.3c-1.69,.2-2.65-.15-3.25-.44v.57c1.04,.69,2.94,.67,4.41,.15v-.6c-.35,.16-.73,.26-1.17,.31Z"/><path class="cls-41" d="M75.77,70.33c-1.69,.2-2.65-.15-3.25-.44v.57c1.04,.69,2.94,.67,4.41,.15v-.6c-.35,.16-.73,.26-1.17,.31Z"/></g><g><path class="cls-41" d="M75.77,72.36c-1.69,.2-2.65-.15-3.25-.44v.57c1.04,.69,2.94,.67,4.41,.15v-.6c-.35,.16-.73,.26-1.17,.31Z"/><path class="cls-41" d="M75.77,74.4c-1.69,.2-2.65-.15-3.25-.44v.57c1.04,.69,2.94,.67,4.41,.15v-.6c-.35,.16-.73,.26-1.17,.31Z"/><path class="cls-41" d="M75.77,76.23c-1.69,.2-2.65-.15-3.25-.44v.57c1.04,.69,2.99,.67,4.47,.16l-.02-.58c-.35,.16-.76,.24-1.2,.29Z"/><path class="cls-41" d="M77.3,79.84c-.35,.16-1.09,.38-1.53,.43-1.66,.2-2.62-.14-3.22-.43v.58c1.05,.67,3.37,.73,4.86,.06l-.12-.64Z"/><path class="cls-41" d="M77.67,81.76c-1.98,1-4.55,.5-5.15,.2l-.06,.66c1.05,.67,3.89,.49,5.38-.18l-.17-.68Z"/><path class="cls-41" d="M78.34,83.95c-1.98,1-4.3,.94-6.18,.22l-.18,.64c1.26,.86,4.69,.7,6.59-.3l-.23-.57Z"/><path class="cls-41" d="M75.77,78.27c-1.69,.2-2.65-.15-3.25-.44v.57c1.04,.69,3.13,.61,4.61,.09l-.05-.6c-.35,.16-.88,.33-1.31,.38Z"/></g><path class="cls-41" d="M71.42,86.34s.47,.68,1.38,1.33,1.27,.84,1.27,.84l.24-.66s-.69-.34-1.45-.91c-.76-.57-1.22-1.17-1.22-1.17l-.23,.56Z"/><path class="cls-41" d="M70.94,87.37s.85,1.03,1.39,1.55c.54,.52,1.1,.98,1.1,.98l-.34,.57s-1.01-.87-1.48-1.34c-.47-.47-.95-1.2-.95-1.2l.29-.56Z"/><path class="cls-41" d="M79.43,86.17s-.68,.85-1.59,1.5c-.91,.65-1.32,.84-1.32,.84l-.32-.6s.82-.39,1.57-.96c.76-.57,1.36-1.28,1.36-1.28l.3,.5Z"/><path class="cls-41" d="M80.31,87.37l-.29-.34s-1.18,1.37-1.72,1.88c-.54,.52-1.05,.85-1.05,.85l.4,.6s.9-.77,1.37-1.24c.06-.06,1-1.16,1.28-1.75Z"/><g><path class="cls-41" d="M76.59,62.7c.3-.18,.36-.35,.36-.35,0,0-.04-.65-2.17-.65s-2.23,.79-2.23,.79c0,0,.1,.18,.53,.34,.39-.31,.9-.44,1.4-.51,.79-.1,1.58,.09,2.1,.38Z"/><path class="cls-54" d="M76.59,62.7c-.52-.28-1.31-.47-2.1-.38-.5,.06-1.01,.19-1.4,.51,.33,.12,.86,.22,1.7,.22,.97,0,1.51-.18,1.81-.35Z"/></g></g></g></svg>